<?xml version="1.0" encoding="utf-8" standalone="no"?>
<!DOCTYPE svg PUBLIC "-//W3C//DTD SVG 1.1//EN"
  "http://www.w3.org/Graphics/SVG/1.1/DTD/svg11.dtd">
<svg xmlns:xlink="http://www.w3.org/1999/xlink" width="720pt" height="720pt" viewBox="0 0 720 720" xmlns="http://www.w3.org/2000/svg" version="1.1">
 <metadata>
  <rdf:RDF xmlns:dc="http://purl.org/dc/elements/1.1/" xmlns:cc="http://creativecommons.org/ns#" xmlns:rdf="http://www.w3.org/1999/02/22-rdf-syntax-ns#">
   <cc:Work>
    <dc:type rdf:resource="http://purl.org/dc/dcmitype/StillImage"/>
    <dc:date>2023-06-18T11:36:56.332604</dc:date>
    <dc:format>image/svg+xml</dc:format>
    <dc:creator>
     <cc:Agent>
      <dc:title>Matplotlib v3.6.0, https://matplotlib.org/</dc:title>
     </cc:Agent>
    </dc:creator>
   </cc:Work>
  </rdf:RDF>
 </metadata>
 <defs>
  <style type="text/css">*{stroke-linejoin: round; stroke-linecap: butt}</style>
 </defs>
 <g id="figure_1">
  <g id="patch_1">
   <path d="M 0 720 
L 720 720 
L 720 0 
L 0 0 
z
" style="fill: #ffffff"/>
  </g>
  <g id="axes_1">
   <g id="patch_2">
    <path d="M 90 640.8 
L 648 640.8 
L 648 86.4 
L 90 86.4 
z
" style="fill: #ffffff"/>
   </g>
   <g id="patch_3">
    <path d="M 117.9 640.8 
L 119.802273 640.8 
L 119.802273 506.006266 
L 117.9 506.006266 
z
" clip-path="url(#p6ac7ad3e31)" style="fill: #377eb8; fill-opacity: 0.5; stroke: #000000; stroke-width: 0.190227; stroke-linejoin: miter"/>
   </g>
   <g id="patch_4">
    <path d="M 122.972727 640.8 
L 124.875 640.8 
L 124.875 602.182279 
L 122.972727 602.182279 
z
" clip-path="url(#p6ac7ad3e31)" style="fill: #377eb8; fill-opacity: 0.5; stroke: #000000; stroke-width: 0.190227; stroke-linejoin: miter"/>
   </g>
   <g id="patch_5">
    <path d="M 128.045455 640.8 
L 129.947727 640.8 
L 129.947727 635.728136 
L 128.045455 635.728136 
z
" clip-path="url(#p6ac7ad3e31)" style="fill: #377eb8; fill-opacity: 0.5; stroke: #000000; stroke-width: 0.190227; stroke-linejoin: miter"/>
   </g>
   <g id="patch_6">
    <path d="M 133.118182 640.8 
L 135.020455 640.8 
L 135.020455 620.386273 
L 133.118182 620.386273 
z
" clip-path="url(#p6ac7ad3e31)" style="fill: #377eb8; fill-opacity: 0.5; stroke: #000000; stroke-width: 0.190227; stroke-linejoin: miter"/>
   </g>
   <g id="patch_7">
    <path d="M 138.190909 640.8 
L 140.093182 640.8 
L 140.093182 112.8 
L 138.190909 112.8 
z
" clip-path="url(#p6ac7ad3e31)" style="fill: #377eb8; fill-opacity: 0.5; stroke: #000000; stroke-width: 0.190227; stroke-linejoin: miter"/>
   </g>
   <g id="patch_8">
    <path d="M 143.263636 640.8 
L 145.165909 640.8 
L 145.165909 630.803587 
L 143.263636 630.803587 
z
" clip-path="url(#p6ac7ad3e31)" style="fill: #377eb8; fill-opacity: 0.5; stroke: #000000; stroke-width: 0.190227; stroke-linejoin: miter"/>
   </g>
   <g id="patch_9">
    <path d="M 148.336364 640.8 
L 150.238636 640.8 
L 150.238636 561.396915 
L 148.336364 561.396915 
z
" clip-path="url(#p6ac7ad3e31)" style="fill: #377eb8; fill-opacity: 0.5; stroke: #000000; stroke-width: 0.190227; stroke-linejoin: miter"/>
   </g>
   <g id="patch_10">
    <path d="M 153.409091 640.8 
L 155.311364 640.8 
L 155.311364 397.855602 
L 153.409091 397.855602 
z
" clip-path="url(#p6ac7ad3e31)" style="fill: #377eb8; fill-opacity: 0.5; stroke: #000000; stroke-width: 0.190227; stroke-linejoin: miter"/>
   </g>
   <g id="patch_11">
    <path d="M 158.481818 640.8 
L 160.384091 640.8 
L 160.384091 581.684372 
L 158.481818 581.684372 
z
" clip-path="url(#p6ac7ad3e31)" style="fill: #377eb8; fill-opacity: 0.5; stroke: #000000; stroke-width: 0.190227; stroke-linejoin: miter"/>
   </g>
   <g id="patch_12">
    <path d="M 163.554545 640.8 
L 165.456818 640.8 
L 165.456818 637.832644 
L 163.554545 637.832644 
z
" clip-path="url(#p6ac7ad3e31)" style="fill: #377eb8; fill-opacity: 0.5; stroke: #000000; stroke-width: 0.190227; stroke-linejoin: miter"/>
   </g>
   <g id="patch_13">
    <path d="M 168.627273 640.8 
L 170.529545 640.8 
L 170.529545 474.564917 
L 168.627273 474.564917 
z
" clip-path="url(#p6ac7ad3e31)" style="fill: #377eb8; fill-opacity: 0.5; stroke: #000000; stroke-width: 0.190227; stroke-linejoin: miter"/>
   </g>
   <g id="patch_14">
    <path d="M 173.7 640.8 
L 175.602273 640.8 
L 175.602273 593.637977 
L 173.7 593.637977 
z
" clip-path="url(#p6ac7ad3e31)" style="fill: #377eb8; fill-opacity: 0.5; stroke: #000000; stroke-width: 0.190227; stroke-linejoin: miter"/>
   </g>
   <g id="patch_15">
    <path d="M 178.772727 640.8 
L 180.675 640.8 
L 180.675 342.254502 
L 178.772727 342.254502 
z
" clip-path="url(#p6ac7ad3e31)" style="fill: #377eb8; fill-opacity: 0.5; stroke: #000000; stroke-width: 0.190227; stroke-linejoin: miter"/>
   </g>
   <g id="patch_16">
    <path d="M 183.845455 640.8 
L 185.747727 640.8 
L 185.747727 558.534784 
L 183.845455 558.534784 
z
" clip-path="url(#p6ac7ad3e31)" style="fill: #377eb8; fill-opacity: 0.5; stroke: #000000; stroke-width: 0.190227; stroke-linejoin: miter"/>
   </g>
   <g id="patch_17">
    <path d="M 188.918182 640.8 
L 190.820455 640.8 
L 190.820455 527.535382 
L 188.918182 527.535382 
z
" clip-path="url(#p6ac7ad3e31)" style="fill: #377eb8; fill-opacity: 0.5; stroke: #000000; stroke-width: 0.190227; stroke-linejoin: miter"/>
   </g>
   <g id="patch_18">
    <path d="M 193.990909 640.8 
L 195.893182 640.8 
L 195.893182 639.221619 
L 193.990909 639.221619 
z
" clip-path="url(#p6ac7ad3e31)" style="fill: #377eb8; fill-opacity: 0.5; stroke: #000000; stroke-width: 0.190227; stroke-linejoin: miter"/>
   </g>
   <g id="patch_19">
    <path d="M 199.063636 640.8 
L 200.965909 640.8 
L 200.965909 543.571733 
L 199.063636 543.571733 
z
" clip-path="url(#p6ac7ad3e31)" style="fill: #377eb8; fill-opacity: 0.5; stroke: #000000; stroke-width: 0.190227; stroke-linejoin: miter"/>
   </g>
   <g id="patch_20">
    <path d="M 204.136364 640.8 
L 206.038636 640.8 
L 206.038636 538.520914 
L 204.136364 538.520914 
z
" clip-path="url(#p6ac7ad3e31)" style="fill: #377eb8; fill-opacity: 0.5; stroke: #000000; stroke-width: 0.190227; stroke-linejoin: miter"/>
   </g>
   <g id="patch_21">
    <path d="M 209.209091 640.8 
L 211.111364 640.8 
L 211.111364 640.210738 
L 209.209091 640.210738 
z
" clip-path="url(#p6ac7ad3e31)" style="fill: #377eb8; fill-opacity: 0.5; stroke: #000000; stroke-width: 0.190227; stroke-linejoin: miter"/>
   </g>
   <g id="patch_22">
    <path d="M 214.281818 640.8 
L 216.184091 640.8 
L 216.184091 471.534425 
L 214.281818 471.534425 
z
" clip-path="url(#p6ac7ad3e31)" style="fill: #377eb8; fill-opacity: 0.5; stroke: #000000; stroke-width: 0.190227; stroke-linejoin: miter"/>
   </g>
   <g id="patch_23">
    <path d="M 219.354545 640.8 
L 221.256818 640.8 
L 221.256818 562.596485 
L 219.354545 562.596485 
z
" clip-path="url(#p6ac7ad3e31)" style="fill: #377eb8; fill-opacity: 0.5; stroke: #000000; stroke-width: 0.190227; stroke-linejoin: miter"/>
   </g>
   <g id="patch_24">
    <path d="M 224.427273 640.8 
L 226.329545 640.8 
L 226.329545 529.324214 
L 224.427273 529.324214 
z
" clip-path="url(#p6ac7ad3e31)" style="fill: #377eb8; fill-opacity: 0.5; stroke: #000000; stroke-width: 0.190227; stroke-linejoin: miter"/>
   </g>
   <g id="patch_25">
    <path d="M 229.5 640.8 
L 231.402273 640.8 
L 231.402273 611.063303 
L 229.5 611.063303 
z
" clip-path="url(#p6ac7ad3e31)" style="fill: #377eb8; fill-opacity: 0.5; stroke: #000000; stroke-width: 0.190227; stroke-linejoin: miter"/>
   </g>
   <g id="patch_26">
    <path d="M 234.572727 640.8 
L 236.475 640.8 
L 236.475 501.692024 
L 234.572727 501.692024 
z
" clip-path="url(#p6ac7ad3e31)" style="fill: #377eb8; fill-opacity: 0.5; stroke: #000000; stroke-width: 0.190227; stroke-linejoin: miter"/>
   </g>
   <g id="patch_27">
    <path d="M 239.645455 640.8 
L 241.547727 640.8 
L 241.547727 510.067966 
L 239.645455 510.067966 
z
" clip-path="url(#p6ac7ad3e31)" style="fill: #377eb8; fill-opacity: 0.5; stroke: #000000; stroke-width: 0.190227; stroke-linejoin: miter"/>
   </g>
   <g id="patch_28">
    <path d="M 244.718182 640.8 
L 246.620455 640.8 
L 246.620455 605.802033 
L 244.718182 605.802033 
z
" clip-path="url(#p6ac7ad3e31)" style="fill: #377eb8; fill-opacity: 0.5; stroke: #000000; stroke-width: 0.190227; stroke-linejoin: miter"/>
   </g>
   <g id="patch_29">
    <path d="M 249.790909 640.8 
L 251.693182 640.8 
L 251.693182 563.585603 
L 249.790909 563.585603 
z
" clip-path="url(#p6ac7ad3e31)" style="fill: #377eb8; fill-opacity: 0.5; stroke: #000000; stroke-width: 0.190227; stroke-linejoin: miter"/>
   </g>
   <g id="patch_30">
    <path d="M 254.863636 640.8 
L 256.765909 640.8 
L 256.765909 471.492335 
L 254.863636 471.492335 
z
" clip-path="url(#p6ac7ad3e31)" style="fill: #377eb8; fill-opacity: 0.5; stroke: #000000; stroke-width: 0.190227; stroke-linejoin: miter"/>
   </g>
   <g id="patch_31">
    <path d="M 259.936364 640.8 
L 261.838636 640.8 
L 261.838636 633.791989 
L 259.936364 633.791989 
z
" clip-path="url(#p6ac7ad3e31)" style="fill: #377eb8; fill-opacity: 0.5; stroke: #000000; stroke-width: 0.190227; stroke-linejoin: miter"/>
   </g>
   <g id="patch_32">
    <path d="M 265.009091 640.8 
L 266.911364 640.8 
L 266.911364 639.137439 
L 265.009091 639.137439 
z
" clip-path="url(#p6ac7ad3e31)" style="fill: #377eb8; fill-opacity: 0.5; stroke: #000000; stroke-width: 0.190227; stroke-linejoin: miter"/>
   </g>
   <g id="patch_33">
    <path d="M 270.081818 640.8 
L 271.984091 640.8 
L 271.984091 420.247567 
L 270.081818 420.247567 
z
" clip-path="url(#p6ac7ad3e31)" style="fill: #377eb8; fill-opacity: 0.5; stroke: #000000; stroke-width: 0.190227; stroke-linejoin: miter"/>
   </g>
   <g id="patch_34">
    <path d="M 275.154545 640.8 
L 277.056818 640.8 
L 277.056818 626.826067 
L 275.154545 626.826067 
z
" clip-path="url(#p6ac7ad3e31)" style="fill: #377eb8; fill-opacity: 0.5; stroke: #000000; stroke-width: 0.190227; stroke-linejoin: miter"/>
   </g>
   <g id="patch_35">
    <path d="M 280.227273 640.8 
L 282.129545 640.8 
L 282.129545 609.463877 
L 280.227273 609.463877 
z
" clip-path="url(#p6ac7ad3e31)" style="fill: #377eb8; fill-opacity: 0.5; stroke: #000000; stroke-width: 0.190227; stroke-linejoin: miter"/>
   </g>
   <g id="patch_36">
    <path d="M 285.3 640.8 
L 287.202273 640.8 
L 287.202273 630.172235 
L 285.3 630.172235 
z
" clip-path="url(#p6ac7ad3e31)" style="fill: #377eb8; fill-opacity: 0.5; stroke: #000000; stroke-width: 0.190227; stroke-linejoin: miter"/>
   </g>
   <g id="patch_37">
    <path d="M 290.372727 640.8 
L 292.275 640.8 
L 292.275 622.111969 
L 290.372727 622.111969 
z
" clip-path="url(#p6ac7ad3e31)" style="fill: #377eb8; fill-opacity: 0.5; stroke: #000000; stroke-width: 0.190227; stroke-linejoin: miter"/>
   </g>
   <g id="patch_38">
    <path d="M 295.445455 640.8 
L 297.347727 640.8 
L 297.347727 608.285352 
L 295.445455 608.285352 
z
" clip-path="url(#p6ac7ad3e31)" style="fill: #377eb8; fill-opacity: 0.5; stroke: #000000; stroke-width: 0.190227; stroke-linejoin: miter"/>
   </g>
   <g id="patch_39">
    <path d="M 300.518182 640.8 
L 302.420455 640.8 
L 302.420455 640.8 
L 300.518182 640.8 
z
" clip-path="url(#p6ac7ad3e31)" style="fill: #377eb8; fill-opacity: 0.5; stroke: #000000; stroke-width: 0.190227; stroke-linejoin: miter"/>
   </g>
   <g id="patch_40">
    <path d="M 305.590909 640.8 
L 307.493182 640.8 
L 307.493182 449.184551 
L 305.590909 449.184551 
z
" clip-path="url(#p6ac7ad3e31)" style="fill: #377eb8; fill-opacity: 0.5; stroke: #000000; stroke-width: 0.190227; stroke-linejoin: miter"/>
   </g>
   <g id="patch_41">
    <path d="M 310.663636 640.8 
L 312.565909 640.8 
L 312.565909 640.8 
L 310.663636 640.8 
z
" clip-path="url(#p6ac7ad3e31)" style="fill: #377eb8; fill-opacity: 0.5; stroke: #000000; stroke-width: 0.190227; stroke-linejoin: miter"/>
   </g>
   <g id="patch_42">
    <path d="M 315.736364 640.8 
L 317.638636 640.8 
L 317.638636 544.666077 
L 315.736364 544.666077 
z
" clip-path="url(#p6ac7ad3e31)" style="fill: #377eb8; fill-opacity: 0.5; stroke: #000000; stroke-width: 0.190227; stroke-linejoin: miter"/>
   </g>
   <g id="patch_43">
    <path d="M 320.809091 640.8 
L 322.711364 640.8 
L 322.711364 611.273753 
L 320.809091 611.273753 
z
" clip-path="url(#p6ac7ad3e31)" style="fill: #377eb8; fill-opacity: 0.5; stroke: #000000; stroke-width: 0.190227; stroke-linejoin: miter"/>
   </g>
   <g id="patch_44">
    <path d="M 325.881818 640.8 
L 327.784091 640.8 
L 327.784091 619.58656 
L 325.881818 619.58656 
z
" clip-path="url(#p6ac7ad3e31)" style="fill: #377eb8; fill-opacity: 0.5; stroke: #000000; stroke-width: 0.190227; stroke-linejoin: miter"/>
   </g>
   <g id="patch_45">
    <path d="M 330.954545 640.8 
L 332.856818 640.8 
L 332.856818 640.526414 
L 330.954545 640.526414 
z
" clip-path="url(#p6ac7ad3e31)" style="fill: #377eb8; fill-opacity: 0.5; stroke: #000000; stroke-width: 0.190227; stroke-linejoin: miter"/>
   </g>
   <g id="patch_46">
    <path d="M 336.027273 640.8 
L 337.929545 640.8 
L 337.929545 640.526414 
L 336.027273 640.526414 
z
" clip-path="url(#p6ac7ad3e31)" style="fill: #377eb8; fill-opacity: 0.5; stroke: #000000; stroke-width: 0.190227; stroke-linejoin: miter"/>
   </g>
   <g id="patch_47">
    <path d="M 341.1 640.8 
L 343.002273 640.8 
L 343.002273 640.736865 
L 341.1 640.736865 
z
" clip-path="url(#p6ac7ad3e31)" style="fill: #377eb8; fill-opacity: 0.5; stroke: #000000; stroke-width: 0.190227; stroke-linejoin: miter"/>
   </g>
   <g id="patch_48">
    <path d="M 346.172727 640.8 
L 348.075 640.8 
L 348.075 640.8 
L 346.172727 640.8 
z
" clip-path="url(#p6ac7ad3e31)" style="fill: #377eb8; fill-opacity: 0.5; stroke: #000000; stroke-width: 0.190227; stroke-linejoin: miter"/>
   </g>
   <g id="patch_49">
    <path d="M 351.245455 640.8 
L 353.147727 640.8 
L 353.147727 640.589549 
L 351.245455 640.589549 
z
" clip-path="url(#p6ac7ad3e31)" style="fill: #377eb8; fill-opacity: 0.5; stroke: #000000; stroke-width: 0.190227; stroke-linejoin: miter"/>
   </g>
   <g id="patch_50">
    <path d="M 356.318182 640.8 
L 358.220455 640.8 
L 358.220455 640.8 
L 356.318182 640.8 
z
" clip-path="url(#p6ac7ad3e31)" style="fill: #377eb8; fill-opacity: 0.5; stroke: #000000; stroke-width: 0.190227; stroke-linejoin: miter"/>
   </g>
   <g id="patch_51">
    <path d="M 361.390909 640.8 
L 363.293182 640.8 
L 363.293182 618.807892 
L 361.390909 618.807892 
z
" clip-path="url(#p6ac7ad3e31)" style="fill: #377eb8; fill-opacity: 0.5; stroke: #000000; stroke-width: 0.190227; stroke-linejoin: miter"/>
   </g>
   <g id="patch_52">
    <path d="M 366.463636 640.8 
L 368.365909 640.8 
L 368.365909 618.913117 
L 366.463636 618.913117 
z
" clip-path="url(#p6ac7ad3e31)" style="fill: #377eb8; fill-opacity: 0.5; stroke: #000000; stroke-width: 0.190227; stroke-linejoin: miter"/>
   </g>
   <g id="patch_53">
    <path d="M 371.536364 640.8 
L 373.438636 640.8 
L 373.438636 596.605333 
L 371.536364 596.605333 
z
" clip-path="url(#p6ac7ad3e31)" style="fill: #377eb8; fill-opacity: 0.5; stroke: #000000; stroke-width: 0.190227; stroke-linejoin: miter"/>
   </g>
   <g id="patch_54">
    <path d="M 376.609091 640.8 
L 378.511364 640.8 
L 378.511364 572.613942 
L 376.609091 572.613942 
z
" clip-path="url(#p6ac7ad3e31)" style="fill: #377eb8; fill-opacity: 0.5; stroke: #000000; stroke-width: 0.190227; stroke-linejoin: miter"/>
   </g>
   <g id="patch_55">
    <path d="M 381.681818 640.8 
L 383.584091 640.8 
L 383.584091 640.294918 
L 381.681818 640.294918 
z
" clip-path="url(#p6ac7ad3e31)" style="fill: #377eb8; fill-opacity: 0.5; stroke: #000000; stroke-width: 0.190227; stroke-linejoin: miter"/>
   </g>
   <g id="patch_56">
    <path d="M 386.754545 640.8 
L 388.656818 640.8 
L 388.656818 640.8 
L 386.754545 640.8 
z
" clip-path="url(#p6ac7ad3e31)" style="fill: #377eb8; fill-opacity: 0.5; stroke: #000000; stroke-width: 0.190227; stroke-linejoin: miter"/>
   </g>
   <g id="patch_57">
    <path d="M 391.827273 640.8 
L 393.729545 640.8 
L 393.729545 640.694775 
L 391.827273 640.694775 
z
" clip-path="url(#p6ac7ad3e31)" style="fill: #377eb8; fill-opacity: 0.5; stroke: #000000; stroke-width: 0.190227; stroke-linejoin: miter"/>
   </g>
   <g id="patch_58">
    <path d="M 396.9 640.8 
L 398.802273 640.8 
L 398.802273 634.465431 
L 396.9 634.465431 
z
" clip-path="url(#p6ac7ad3e31)" style="fill: #377eb8; fill-opacity: 0.5; stroke: #000000; stroke-width: 0.190227; stroke-linejoin: miter"/>
   </g>
   <g id="patch_59">
    <path d="M 401.972727 640.8 
L 403.875 640.8 
L 403.875 640.67373 
L 401.972727 640.67373 
z
" clip-path="url(#p6ac7ad3e31)" style="fill: #377eb8; fill-opacity: 0.5; stroke: #000000; stroke-width: 0.190227; stroke-linejoin: miter"/>
   </g>
   <g id="patch_60">
    <path d="M 407.045455 640.8 
L 408.947727 640.8 
L 408.947727 628.193997 
L 407.045455 628.193997 
z
" clip-path="url(#p6ac7ad3e31)" style="fill: #377eb8; fill-opacity: 0.5; stroke: #000000; stroke-width: 0.190227; stroke-linejoin: miter"/>
   </g>
   <g id="patch_61">
    <path d="M 412.118182 640.8 
L 414.020455 640.8 
L 414.020455 640.8 
L 412.118182 640.8 
z
" clip-path="url(#p6ac7ad3e31)" style="fill: #377eb8; fill-opacity: 0.5; stroke: #000000; stroke-width: 0.190227; stroke-linejoin: miter"/>
   </g>
   <g id="patch_62">
    <path d="M 417.190909 640.8 
L 419.093182 640.8 
L 419.093182 640.8 
L 417.190909 640.8 
z
" clip-path="url(#p6ac7ad3e31)" style="fill: #377eb8; fill-opacity: 0.5; stroke: #000000; stroke-width: 0.190227; stroke-linejoin: miter"/>
   </g>
   <g id="patch_63">
    <path d="M 422.263636 640.8 
L 424.165909 640.8 
L 424.165909 600.140906 
L 422.263636 600.140906 
z
" clip-path="url(#p6ac7ad3e31)" style="fill: #377eb8; fill-opacity: 0.5; stroke: #000000; stroke-width: 0.190227; stroke-linejoin: miter"/>
   </g>
   <g id="patch_64">
    <path d="M 427.336364 640.8 
L 429.238636 640.8 
L 429.238636 640.8 
L 427.336364 640.8 
z
" clip-path="url(#p6ac7ad3e31)" style="fill: #377eb8; fill-opacity: 0.5; stroke: #000000; stroke-width: 0.190227; stroke-linejoin: miter"/>
   </g>
   <g id="patch_65">
    <path d="M 432.409091 640.8 
L 434.311364 640.8 
L 434.311364 640.8 
L 432.409091 640.8 
z
" clip-path="url(#p6ac7ad3e31)" style="fill: #377eb8; fill-opacity: 0.5; stroke: #000000; stroke-width: 0.190227; stroke-linejoin: miter"/>
   </g>
   <g id="patch_66">
    <path d="M 437.481818 640.8 
L 439.384091 640.8 
L 439.384091 627.688915 
L 437.481818 627.688915 
z
" clip-path="url(#p6ac7ad3e31)" style="fill: #377eb8; fill-opacity: 0.5; stroke: #000000; stroke-width: 0.190227; stroke-linejoin: miter"/>
   </g>
   <g id="patch_67">
    <path d="M 442.554545 640.8 
L 444.456818 640.8 
L 444.456818 640.505369 
L 442.554545 640.505369 
z
" clip-path="url(#p6ac7ad3e31)" style="fill: #377eb8; fill-opacity: 0.5; stroke: #000000; stroke-width: 0.190227; stroke-linejoin: miter"/>
   </g>
   <g id="patch_68">
    <path d="M 447.627273 640.8 
L 449.529545 640.8 
L 449.529545 640.568504 
L 447.627273 640.568504 
z
" clip-path="url(#p6ac7ad3e31)" style="fill: #377eb8; fill-opacity: 0.5; stroke: #000000; stroke-width: 0.190227; stroke-linejoin: miter"/>
   </g>
   <g id="patch_69">
    <path d="M 452.7 640.8 
L 454.602273 640.8 
L 454.602273 633.350042 
L 452.7 633.350042 
z
" clip-path="url(#p6ac7ad3e31)" style="fill: #377eb8; fill-opacity: 0.5; stroke: #000000; stroke-width: 0.190227; stroke-linejoin: miter"/>
   </g>
   <g id="patch_70">
    <path d="M 457.772727 640.8 
L 459.675 640.8 
L 459.675 640.631639 
L 457.772727 640.631639 
z
" clip-path="url(#p6ac7ad3e31)" style="fill: #377eb8; fill-opacity: 0.5; stroke: #000000; stroke-width: 0.190227; stroke-linejoin: miter"/>
   </g>
   <g id="patch_71">
    <path d="M 462.845455 640.8 
L 464.747727 640.8 
L 464.747727 592.964534 
L 462.845455 592.964534 
z
" clip-path="url(#p6ac7ad3e31)" style="fill: #377eb8; fill-opacity: 0.5; stroke: #000000; stroke-width: 0.190227; stroke-linejoin: miter"/>
   </g>
   <g id="patch_72">
    <path d="M 467.918182 640.8 
L 469.820455 640.8 
L 469.820455 640.8 
L 467.918182 640.8 
z
" clip-path="url(#p6ac7ad3e31)" style="fill: #377eb8; fill-opacity: 0.5; stroke: #000000; stroke-width: 0.190227; stroke-linejoin: miter"/>
   </g>
   <g id="patch_73">
    <path d="M 472.990909 640.8 
L 474.893182 640.8 
L 474.893182 593.006624 
L 472.990909 593.006624 
z
" clip-path="url(#p6ac7ad3e31)" style="fill: #377eb8; fill-opacity: 0.5; stroke: #000000; stroke-width: 0.190227; stroke-linejoin: miter"/>
   </g>
   <g id="patch_74">
    <path d="M 478.063636 640.8 
L 479.965909 640.8 
L 479.965909 640.8 
L 478.063636 640.8 
z
" clip-path="url(#p6ac7ad3e31)" style="fill: #377eb8; fill-opacity: 0.5; stroke: #000000; stroke-width: 0.190227; stroke-linejoin: miter"/>
   </g>
   <g id="patch_75">
    <path d="M 483.136364 640.8 
L 485.038636 640.8 
L 485.038636 636.422623 
L 483.136364 636.422623 
z
" clip-path="url(#p6ac7ad3e31)" style="fill: #377eb8; fill-opacity: 0.5; stroke: #000000; stroke-width: 0.190227; stroke-linejoin: miter"/>
   </g>
   <g id="patch_76">
    <path d="M 488.209091 640.8 
L 490.111364 640.8 
L 490.111364 640.8 
L 488.209091 640.8 
z
" clip-path="url(#p6ac7ad3e31)" style="fill: #377eb8; fill-opacity: 0.5; stroke: #000000; stroke-width: 0.190227; stroke-linejoin: miter"/>
   </g>
   <g id="patch_77">
    <path d="M 493.281818 640.8 
L 495.184091 640.8 
L 495.184091 640.8 
L 493.281818 640.8 
z
" clip-path="url(#p6ac7ad3e31)" style="fill: #377eb8; fill-opacity: 0.5; stroke: #000000; stroke-width: 0.190227; stroke-linejoin: miter"/>
   </g>
   <g id="patch_78">
    <path d="M 498.354545 640.8 
L 500.256818 640.8 
L 500.256818 640.8 
L 498.354545 640.8 
z
" clip-path="url(#p6ac7ad3e31)" style="fill: #377eb8; fill-opacity: 0.5; stroke: #000000; stroke-width: 0.190227; stroke-linejoin: miter"/>
   </g>
   <g id="patch_79">
    <path d="M 503.427273 640.8 
L 505.329545 640.8 
L 505.329545 640.8 
L 503.427273 640.8 
z
" clip-path="url(#p6ac7ad3e31)" style="fill: #377eb8; fill-opacity: 0.5; stroke: #000000; stroke-width: 0.190227; stroke-linejoin: miter"/>
   </g>
   <g id="patch_80">
    <path d="M 508.5 640.8 
L 510.402273 640.8 
L 510.402273 640.8 
L 508.5 640.8 
z
" clip-path="url(#p6ac7ad3e31)" style="fill: #377eb8; fill-opacity: 0.5; stroke: #000000; stroke-width: 0.190227; stroke-linejoin: miter"/>
   </g>
   <g id="patch_81">
    <path d="M 513.572727 640.8 
L 515.475 640.8 
L 515.475 640.8 
L 513.572727 640.8 
z
" clip-path="url(#p6ac7ad3e31)" style="fill: #377eb8; fill-opacity: 0.5; stroke: #000000; stroke-width: 0.190227; stroke-linejoin: miter"/>
   </g>
   <g id="patch_82">
    <path d="M 518.645455 640.8 
L 520.547727 640.8 
L 520.547727 640.8 
L 518.645455 640.8 
z
" clip-path="url(#p6ac7ad3e31)" style="fill: #377eb8; fill-opacity: 0.5; stroke: #000000; stroke-width: 0.190227; stroke-linejoin: miter"/>
   </g>
   <g id="patch_83">
    <path d="M 523.718182 640.8 
L 525.620455 640.8 
L 525.620455 640.8 
L 523.718182 640.8 
z
" clip-path="url(#p6ac7ad3e31)" style="fill: #377eb8; fill-opacity: 0.5; stroke: #000000; stroke-width: 0.190227; stroke-linejoin: miter"/>
   </g>
   <g id="patch_84">
    <path d="M 528.790909 640.8 
L 530.693182 640.8 
L 530.693182 640.8 
L 528.790909 640.8 
z
" clip-path="url(#p6ac7ad3e31)" style="fill: #377eb8; fill-opacity: 0.5; stroke: #000000; stroke-width: 0.190227; stroke-linejoin: miter"/>
   </g>
   <g id="patch_85">
    <path d="M 533.863636 640.8 
L 535.765909 640.8 
L 535.765909 640.8 
L 533.863636 640.8 
z
" clip-path="url(#p6ac7ad3e31)" style="fill: #377eb8; fill-opacity: 0.5; stroke: #000000; stroke-width: 0.190227; stroke-linejoin: miter"/>
   </g>
   <g id="patch_86">
    <path d="M 538.936364 640.8 
L 540.838636 640.8 
L 540.838636 640.8 
L 538.936364 640.8 
z
" clip-path="url(#p6ac7ad3e31)" style="fill: #377eb8; fill-opacity: 0.5; stroke: #000000; stroke-width: 0.190227; stroke-linejoin: miter"/>
   </g>
   <g id="patch_87">
    <path d="M 544.009091 640.8 
L 545.911364 640.8 
L 545.911364 640.8 
L 544.009091 640.8 
z
" clip-path="url(#p6ac7ad3e31)" style="fill: #377eb8; fill-opacity: 0.5; stroke: #000000; stroke-width: 0.190227; stroke-linejoin: miter"/>
   </g>
   <g id="patch_88">
    <path d="M 549.081818 640.8 
L 550.984091 640.8 
L 550.984091 611.273753 
L 549.081818 611.273753 
z
" clip-path="url(#p6ac7ad3e31)" style="fill: #377eb8; fill-opacity: 0.5; stroke: #000000; stroke-width: 0.190227; stroke-linejoin: miter"/>
   </g>
   <g id="patch_89">
    <path d="M 554.154545 640.8 
L 556.056818 640.8 
L 556.056818 640.736865 
L 554.154545 640.736865 
z
" clip-path="url(#p6ac7ad3e31)" style="fill: #377eb8; fill-opacity: 0.5; stroke: #000000; stroke-width: 0.190227; stroke-linejoin: miter"/>
   </g>
   <g id="patch_90">
    <path d="M 559.227273 640.8 
L 561.129545 640.8 
L 561.129545 640.67373 
L 559.227273 640.67373 
z
" clip-path="url(#p6ac7ad3e31)" style="fill: #377eb8; fill-opacity: 0.5; stroke: #000000; stroke-width: 0.190227; stroke-linejoin: miter"/>
   </g>
   <g id="patch_91">
    <path d="M 564.3 640.8 
L 566.202273 640.8 
L 566.202273 640.778955 
L 564.3 640.778955 
z
" clip-path="url(#p6ac7ad3e31)" style="fill: #377eb8; fill-opacity: 0.5; stroke: #000000; stroke-width: 0.190227; stroke-linejoin: miter"/>
   </g>
   <g id="patch_92">
    <path d="M 569.372727 640.8 
L 571.275 640.8 
L 571.275 640.8 
L 569.372727 640.8 
z
" clip-path="url(#p6ac7ad3e31)" style="fill: #377eb8; fill-opacity: 0.5; stroke: #000000; stroke-width: 0.190227; stroke-linejoin: miter"/>
   </g>
   <g id="patch_93">
    <path d="M 574.445455 640.8 
L 576.347727 640.8 
L 576.347727 640.8 
L 574.445455 640.8 
z
" clip-path="url(#p6ac7ad3e31)" style="fill: #377eb8; fill-opacity: 0.5; stroke: #000000; stroke-width: 0.190227; stroke-linejoin: miter"/>
   </g>
   <g id="patch_94">
    <path d="M 579.518182 640.8 
L 581.420455 640.8 
L 581.420455 640.652684 
L 579.518182 640.652684 
z
" clip-path="url(#p6ac7ad3e31)" style="fill: #377eb8; fill-opacity: 0.5; stroke: #000000; stroke-width: 0.190227; stroke-linejoin: miter"/>
   </g>
   <g id="patch_95">
    <path d="M 584.590909 640.8 
L 586.493182 640.8 
L 586.493182 640.778955 
L 584.590909 640.778955 
z
" clip-path="url(#p6ac7ad3e31)" style="fill: #377eb8; fill-opacity: 0.5; stroke: #000000; stroke-width: 0.190227; stroke-linejoin: miter"/>
   </g>
   <g id="patch_96">
    <path d="M 589.663636 640.8 
L 591.565909 640.8 
L 591.565909 640.8 
L 589.663636 640.8 
z
" clip-path="url(#p6ac7ad3e31)" style="fill: #377eb8; fill-opacity: 0.5; stroke: #000000; stroke-width: 0.190227; stroke-linejoin: miter"/>
   </g>
   <g id="patch_97">
    <path d="M 594.736364 640.8 
L 596.638636 640.8 
L 596.638636 640.8 
L 594.736364 640.8 
z
" clip-path="url(#p6ac7ad3e31)" style="fill: #377eb8; fill-opacity: 0.5; stroke: #000000; stroke-width: 0.190227; stroke-linejoin: miter"/>
   </g>
   <g id="patch_98">
    <path d="M 599.809091 640.8 
L 601.711364 640.8 
L 601.711364 640.8 
L 599.809091 640.8 
z
" clip-path="url(#p6ac7ad3e31)" style="fill: #377eb8; fill-opacity: 0.5; stroke: #000000; stroke-width: 0.190227; stroke-linejoin: miter"/>
   </g>
   <g id="patch_99">
    <path d="M 604.881818 640.8 
L 606.784091 640.8 
L 606.784091 640.8 
L 604.881818 640.8 
z
" clip-path="url(#p6ac7ad3e31)" style="fill: #377eb8; fill-opacity: 0.5; stroke: #000000; stroke-width: 0.190227; stroke-linejoin: miter"/>
   </g>
   <g id="patch_100">
    <path d="M 609.954545 640.8 
L 611.856818 640.8 
L 611.856818 640.8 
L 609.954545 640.8 
z
" clip-path="url(#p6ac7ad3e31)" style="fill: #377eb8; fill-opacity: 0.5; stroke: #000000; stroke-width: 0.190227; stroke-linejoin: miter"/>
   </g>
   <g id="patch_101">
    <path d="M 615.027273 640.8 
L 616.929545 640.8 
L 616.929545 640.8 
L 615.027273 640.8 
z
" clip-path="url(#p6ac7ad3e31)" style="fill: #377eb8; fill-opacity: 0.5; stroke: #000000; stroke-width: 0.190227; stroke-linejoin: miter"/>
   </g>
   <g id="patch_102">
    <path d="M 620.1 640.8 
L 622.002273 640.8 
L 622.002273 634.612747 
L 620.1 634.612747 
z
" clip-path="url(#p6ac7ad3e31)" style="fill: #377eb8; fill-opacity: 0.5; stroke: #000000; stroke-width: 0.190227; stroke-linejoin: miter"/>
   </g>
   <g id="patch_103">
    <path d="M 115.997727 640.8 
L 117.9 640.8 
L 117.9 352.293005 
L 115.997727 352.293005 
z
" clip-path="url(#p6ac7ad3e31)" style="fill: #e41a1c; fill-opacity: 0.5; stroke: #000000; stroke-width: 0.190227; stroke-linejoin: miter"/>
   </g>
   <g id="patch_104">
    <path d="M 121.070455 640.8 
L 122.972727 640.8 
L 122.972727 477.384958 
L 121.070455 477.384958 
z
" clip-path="url(#p6ac7ad3e31)" style="fill: #e41a1c; fill-opacity: 0.5; stroke: #000000; stroke-width: 0.190227; stroke-linejoin: miter"/>
   </g>
   <g id="patch_105">
    <path d="M 126.143182 640.8 
L 128.045455 640.8 
L 128.045455 429.675762 
L 126.143182 429.675762 
z
" clip-path="url(#p6ac7ad3e31)" style="fill: #e41a1c; fill-opacity: 0.5; stroke: #000000; stroke-width: 0.190227; stroke-linejoin: miter"/>
   </g>
   <g id="patch_106">
    <path d="M 131.215909 640.8 
L 133.118182 640.8 
L 133.118182 486.518522 
L 131.215909 486.518522 
z
" clip-path="url(#p6ac7ad3e31)" style="fill: #e41a1c; fill-opacity: 0.5; stroke: #000000; stroke-width: 0.190227; stroke-linejoin: miter"/>
   </g>
   <g id="patch_107">
    <path d="M 136.288636 640.8 
L 138.190909 640.8 
L 138.190909 263.587995 
L 136.288636 263.587995 
z
" clip-path="url(#p6ac7ad3e31)" style="fill: #e41a1c; fill-opacity: 0.5; stroke: #000000; stroke-width: 0.190227; stroke-linejoin: miter"/>
   </g>
   <g id="patch_108">
    <path d="M 141.361364 640.8 
L 143.263636 640.8 
L 143.263636 476.921966 
L 141.361364 476.921966 
z
" clip-path="url(#p6ac7ad3e31)" style="fill: #e41a1c; fill-opacity: 0.5; stroke: #000000; stroke-width: 0.190227; stroke-linejoin: miter"/>
   </g>
   <g id="patch_109">
    <path d="M 146.434091 640.8 
L 148.336364 640.8 
L 148.336364 458.970513 
L 146.434091 458.970513 
z
" clip-path="url(#p6ac7ad3e31)" style="fill: #e41a1c; fill-opacity: 0.5; stroke: #000000; stroke-width: 0.190227; stroke-linejoin: miter"/>
   </g>
   <g id="patch_110">
    <path d="M 151.506818 640.8 
L 153.409091 640.8 
L 153.409091 324.239914 
L 151.506818 324.239914 
z
" clip-path="url(#p6ac7ad3e31)" style="fill: #e41a1c; fill-opacity: 0.5; stroke: #000000; stroke-width: 0.190227; stroke-linejoin: miter"/>
   </g>
   <g id="patch_111">
    <path d="M 156.579545 640.8 
L 158.481818 640.8 
L 158.481818 494.431472 
L 156.579545 494.431472 
z
" clip-path="url(#p6ac7ad3e31)" style="fill: #e41a1c; fill-opacity: 0.5; stroke: #000000; stroke-width: 0.190227; stroke-linejoin: miter"/>
   </g>
   <g id="patch_112">
    <path d="M 161.652273 640.8 
L 163.554545 640.8 
L 163.554545 593.11185 
L 161.652273 593.11185 
z
" clip-path="url(#p6ac7ad3e31)" style="fill: #e41a1c; fill-opacity: 0.5; stroke: #000000; stroke-width: 0.190227; stroke-linejoin: miter"/>
   </g>
   <g id="patch_113">
    <path d="M 166.725 640.8 
L 168.627273 640.8 
L 168.627273 538.647184 
L 166.725 538.647184 
z
" clip-path="url(#p6ac7ad3e31)" style="fill: #e41a1c; fill-opacity: 0.5; stroke: #000000; stroke-width: 0.190227; stroke-linejoin: miter"/>
   </g>
   <g id="patch_114">
    <path d="M 171.797727 640.8 
L 173.7 640.8 
L 173.7 483.530121 
L 171.797727 483.530121 
z
" clip-path="url(#p6ac7ad3e31)" style="fill: #e41a1c; fill-opacity: 0.5; stroke: #000000; stroke-width: 0.190227; stroke-linejoin: miter"/>
   </g>
   <g id="patch_115">
    <path d="M 176.870455 640.8 
L 178.772727 640.8 
L 178.772727 432.053856 
L 176.870455 432.053856 
z
" clip-path="url(#p6ac7ad3e31)" style="fill: #e41a1c; fill-opacity: 0.5; stroke: #000000; stroke-width: 0.190227; stroke-linejoin: miter"/>
   </g>
   <g id="patch_116">
    <path d="M 181.943182 640.8 
L 183.845455 640.8 
L 183.845455 497.230468 
L 181.943182 497.230468 
z
" clip-path="url(#p6ac7ad3e31)" style="fill: #e41a1c; fill-opacity: 0.5; stroke: #000000; stroke-width: 0.190227; stroke-linejoin: miter"/>
   </g>
   <g id="patch_117">
    <path d="M 187.015909 640.8 
L 188.918182 640.8 
L 188.918182 289.094631 
L 187.015909 289.094631 
z
" clip-path="url(#p6ac7ad3e31)" style="fill: #e41a1c; fill-opacity: 0.5; stroke: #000000; stroke-width: 0.190227; stroke-linejoin: miter"/>
   </g>
   <g id="patch_118">
    <path d="M 192.088636 640.8 
L 193.990909 640.8 
L 193.990909 597.278776 
L 192.088636 597.278776 
z
" clip-path="url(#p6ac7ad3e31)" style="fill: #e41a1c; fill-opacity: 0.5; stroke: #000000; stroke-width: 0.190227; stroke-linejoin: miter"/>
   </g>
   <g id="patch_119">
    <path d="M 197.161364 640.8 
L 199.063636 640.8 
L 199.063636 590.312854 
L 197.161364 590.312854 
z
" clip-path="url(#p6ac7ad3e31)" style="fill: #e41a1c; fill-opacity: 0.5; stroke: #000000; stroke-width: 0.190227; stroke-linejoin: miter"/>
   </g>
   <g id="patch_120">
    <path d="M 202.234091 640.8 
L 204.136364 640.8 
L 204.136364 497.90391 
L 202.234091 497.90391 
z
" clip-path="url(#p6ac7ad3e31)" style="fill: #e41a1c; fill-opacity: 0.5; stroke: #000000; stroke-width: 0.190227; stroke-linejoin: miter"/>
   </g>
   <g id="patch_121">
    <path d="M 207.306818 640.8 
L 209.209091 640.8 
L 209.209091 619.523425 
L 207.306818 619.523425 
z
" clip-path="url(#p6ac7ad3e31)" style="fill: #e41a1c; fill-opacity: 0.5; stroke: #000000; stroke-width: 0.190227; stroke-linejoin: miter"/>
   </g>
   <g id="patch_122">
    <path d="M 212.379545 640.8 
L 214.281818 640.8 
L 214.281818 489.549014 
L 212.379545 489.549014 
z
" clip-path="url(#p6ac7ad3e31)" style="fill: #e41a1c; fill-opacity: 0.5; stroke: #000000; stroke-width: 0.190227; stroke-linejoin: miter"/>
   </g>
   <g id="patch_123">
    <path d="M 217.452273 640.8 
L 219.354545 640.8 
L 219.354545 462.842808 
L 217.452273 462.842808 
z
" clip-path="url(#p6ac7ad3e31)" style="fill: #e41a1c; fill-opacity: 0.5; stroke: #000000; stroke-width: 0.190227; stroke-linejoin: miter"/>
   </g>
   <g id="patch_124">
    <path d="M 222.525 640.8 
L 224.427273 640.8 
L 224.427273 506.111491 
L 222.525 506.111491 
z
" clip-path="url(#p6ac7ad3e31)" style="fill: #e41a1c; fill-opacity: 0.5; stroke: #000000; stroke-width: 0.190227; stroke-linejoin: miter"/>
   </g>
   <g id="patch_125">
    <path d="M 227.597727 640.8 
L 229.5 640.8 
L 229.5 502.155016 
L 227.597727 502.155016 
z
" clip-path="url(#p6ac7ad3e31)" style="fill: #e41a1c; fill-opacity: 0.5; stroke: #000000; stroke-width: 0.190227; stroke-linejoin: miter"/>
   </g>
   <g id="patch_126">
    <path d="M 232.670455 640.8 
L 234.572727 640.8 
L 234.572727 547.907019 
L 232.670455 547.907019 
z
" clip-path="url(#p6ac7ad3e31)" style="fill: #e41a1c; fill-opacity: 0.5; stroke: #000000; stroke-width: 0.190227; stroke-linejoin: miter"/>
   </g>
   <g id="patch_127">
    <path d="M 237.743182 640.8 
L 239.645455 640.8 
L 239.645455 509.120937 
L 237.743182 509.120937 
z
" clip-path="url(#p6ac7ad3e31)" style="fill: #e41a1c; fill-opacity: 0.5; stroke: #000000; stroke-width: 0.190227; stroke-linejoin: miter"/>
   </g>
   <g id="patch_128">
    <path d="M 242.815909 640.8 
L 244.718182 640.8 
L 244.718182 599.65687 
L 242.815909 599.65687 
z
" clip-path="url(#p6ac7ad3e31)" style="fill: #e41a1c; fill-opacity: 0.5; stroke: #000000; stroke-width: 0.190227; stroke-linejoin: miter"/>
   </g>
   <g id="patch_129">
    <path d="M 247.888636 640.8 
L 249.790909 640.8 
L 249.790909 512.109339 
L 247.888636 512.109339 
z
" clip-path="url(#p6ac7ad3e31)" style="fill: #e41a1c; fill-opacity: 0.5; stroke: #000000; stroke-width: 0.190227; stroke-linejoin: miter"/>
   </g>
   <g id="patch_130">
    <path d="M 252.961364 640.8 
L 254.863636 640.8 
L 254.863636 541.509315 
L 252.961364 541.509315 
z
" clip-path="url(#p6ac7ad3e31)" style="fill: #e41a1c; fill-opacity: 0.5; stroke: #000000; stroke-width: 0.190227; stroke-linejoin: miter"/>
   </g>
   <g id="patch_131">
    <path d="M 258.034091 640.8 
L 259.936364 640.8 
L 259.936364 319.083869 
L 258.034091 319.083869 
z
" clip-path="url(#p6ac7ad3e31)" style="fill: #e41a1c; fill-opacity: 0.5; stroke: #000000; stroke-width: 0.190227; stroke-linejoin: miter"/>
   </g>
   <g id="patch_132">
    <path d="M 263.106818 640.8 
L 265.009091 640.8 
L 265.009091 611.79988 
L 263.106818 611.79988 
z
" clip-path="url(#p6ac7ad3e31)" style="fill: #e41a1c; fill-opacity: 0.5; stroke: #000000; stroke-width: 0.190227; stroke-linejoin: miter"/>
   </g>
   <g id="patch_133">
    <path d="M 268.179545 640.8 
L 270.081818 640.8 
L 270.081818 472.102643 
L 268.179545 472.102643 
z
" clip-path="url(#p6ac7ad3e31)" style="fill: #e41a1c; fill-opacity: 0.5; stroke: #000000; stroke-width: 0.190227; stroke-linejoin: miter"/>
   </g>
   <g id="patch_134">
    <path d="M 273.252273 640.8 
L 275.154545 640.8 
L 275.154545 606.664881 
L 273.252273 606.664881 
z
" clip-path="url(#p6ac7ad3e31)" style="fill: #e41a1c; fill-opacity: 0.5; stroke: #000000; stroke-width: 0.190227; stroke-linejoin: miter"/>
   </g>
   <g id="patch_135">
    <path d="M 278.325 640.8 
L 280.227273 640.8 
L 280.227273 509.099892 
L 278.325 509.099892 
z
" clip-path="url(#p6ac7ad3e31)" style="fill: #e41a1c; fill-opacity: 0.5; stroke: #000000; stroke-width: 0.190227; stroke-linejoin: miter"/>
   </g>
   <g id="patch_136">
    <path d="M 283.397727 640.8 
L 285.3 640.8 
L 285.3 593.28021 
L 283.397727 593.28021 
z
" clip-path="url(#p6ac7ad3e31)" style="fill: #e41a1c; fill-opacity: 0.5; stroke: #000000; stroke-width: 0.190227; stroke-linejoin: miter"/>
   </g>
   <g id="patch_137">
    <path d="M 288.470455 640.8 
L 290.372727 640.8 
L 290.372727 597.952218 
L 288.470455 597.952218 
z
" clip-path="url(#p6ac7ad3e31)" style="fill: #e41a1c; fill-opacity: 0.5; stroke: #000000; stroke-width: 0.190227; stroke-linejoin: miter"/>
   </g>
   <g id="patch_138">
    <path d="M 293.543182 640.8 
L 295.445455 640.8 
L 295.445455 546.938945 
L 293.543182 546.938945 
z
" clip-path="url(#p6ac7ad3e31)" style="fill: #e41a1c; fill-opacity: 0.5; stroke: #000000; stroke-width: 0.190227; stroke-linejoin: miter"/>
   </g>
   <g id="patch_139">
    <path d="M 298.615909 640.8 
L 300.518182 640.8 
L 300.518182 640.8 
L 298.615909 640.8 
z
" clip-path="url(#p6ac7ad3e31)" style="fill: #e41a1c; fill-opacity: 0.5; stroke: #000000; stroke-width: 0.190227; stroke-linejoin: miter"/>
   </g>
   <g id="patch_140">
    <path d="M 303.688636 640.8 
L 305.590909 640.8 
L 305.590909 529.871386 
L 303.688636 529.871386 
z
" clip-path="url(#p6ac7ad3e31)" style="fill: #e41a1c; fill-opacity: 0.5; stroke: #000000; stroke-width: 0.190227; stroke-linejoin: miter"/>
   </g>
   <g id="patch_141">
    <path d="M 308.761364 640.8 
L 310.663636 640.8 
L 310.663636 640.8 
L 308.761364 640.8 
z
" clip-path="url(#p6ac7ad3e31)" style="fill: #e41a1c; fill-opacity: 0.5; stroke: #000000; stroke-width: 0.190227; stroke-linejoin: miter"/>
   </g>
   <g id="patch_142">
    <path d="M 313.834091 640.8 
L 315.736364 640.8 
L 315.736364 561.859907 
L 313.834091 561.859907 
z
" clip-path="url(#p6ac7ad3e31)" style="fill: #e41a1c; fill-opacity: 0.5; stroke: #000000; stroke-width: 0.190227; stroke-linejoin: miter"/>
   </g>
   <g id="patch_143">
    <path d="M 318.906818 640.8 
L 320.809091 640.8 
L 320.809091 638.632357 
L 318.906818 638.632357 
z
" clip-path="url(#p6ac7ad3e31)" style="fill: #e41a1c; fill-opacity: 0.5; stroke: #000000; stroke-width: 0.190227; stroke-linejoin: miter"/>
   </g>
   <g id="patch_144">
    <path d="M 323.979545 640.8 
L 325.881818 640.8 
L 325.881818 605.759943 
L 323.979545 605.759943 
z
" clip-path="url(#p6ac7ad3e31)" style="fill: #e41a1c; fill-opacity: 0.5; stroke: #000000; stroke-width: 0.190227; stroke-linejoin: miter"/>
   </g>
   <g id="patch_145">
    <path d="M 329.052273 640.8 
L 330.954545 640.8 
L 330.954545 622.932727 
L 329.052273 622.932727 
z
" clip-path="url(#p6ac7ad3e31)" style="fill: #e41a1c; fill-opacity: 0.5; stroke: #000000; stroke-width: 0.190227; stroke-linejoin: miter"/>
   </g>
   <g id="patch_146">
    <path d="M 334.125 640.8 
L 336.027273 640.8 
L 336.027273 618.323855 
L 334.125 618.323855 
z
" clip-path="url(#p6ac7ad3e31)" style="fill: #e41a1c; fill-opacity: 0.5; stroke: #000000; stroke-width: 0.190227; stroke-linejoin: miter"/>
   </g>
   <g id="patch_147">
    <path d="M 339.197727 640.8 
L 341.1 640.8 
L 341.1 636.633074 
L 339.197727 636.633074 
z
" clip-path="url(#p6ac7ad3e31)" style="fill: #e41a1c; fill-opacity: 0.5; stroke: #000000; stroke-width: 0.190227; stroke-linejoin: miter"/>
   </g>
   <g id="patch_148">
    <path d="M 344.270455 640.8 
L 346.172727 640.8 
L 346.172727 640.8 
L 344.270455 640.8 
z
" clip-path="url(#p6ac7ad3e31)" style="fill: #e41a1c; fill-opacity: 0.5; stroke: #000000; stroke-width: 0.190227; stroke-linejoin: miter"/>
   </g>
   <g id="patch_149">
    <path d="M 349.343182 640.8 
L 351.245455 640.8 
L 351.245455 630.992993 
L 349.343182 630.992993 
z
" clip-path="url(#p6ac7ad3e31)" style="fill: #e41a1c; fill-opacity: 0.5; stroke: #000000; stroke-width: 0.190227; stroke-linejoin: miter"/>
   </g>
   <g id="patch_150">
    <path d="M 354.415909 640.8 
L 356.318182 640.8 
L 356.318182 640.8 
L 354.415909 640.8 
z
" clip-path="url(#p6ac7ad3e31)" style="fill: #e41a1c; fill-opacity: 0.5; stroke: #000000; stroke-width: 0.190227; stroke-linejoin: miter"/>
   </g>
   <g id="patch_151">
    <path d="M 359.488636 640.8 
L 361.390909 640.8 
L 361.390909 637.075021 
L 359.488636 637.075021 
z
" clip-path="url(#p6ac7ad3e31)" style="fill: #e41a1c; fill-opacity: 0.5; stroke: #000000; stroke-width: 0.190227; stroke-linejoin: miter"/>
   </g>
   <g id="patch_152">
    <path d="M 364.561364 640.8 
L 366.463636 640.8 
L 366.463636 637.369652 
L 364.561364 637.369652 
z
" clip-path="url(#p6ac7ad3e31)" style="fill: #e41a1c; fill-opacity: 0.5; stroke: #000000; stroke-width: 0.190227; stroke-linejoin: miter"/>
   </g>
   <g id="patch_153">
    <path d="M 369.634091 640.8 
L 371.536364 640.8 
L 371.536364 634.823197 
L 369.634091 634.823197 
z
" clip-path="url(#p6ac7ad3e31)" style="fill: #e41a1c; fill-opacity: 0.5; stroke: #000000; stroke-width: 0.190227; stroke-linejoin: miter"/>
   </g>
   <g id="patch_154">
    <path d="M 374.706818 640.8 
L 376.609091 640.8 
L 376.609091 608.874614 
L 374.706818 608.874614 
z
" clip-path="url(#p6ac7ad3e31)" style="fill: #e41a1c; fill-opacity: 0.5; stroke: #000000; stroke-width: 0.190227; stroke-linejoin: miter"/>
   </g>
   <g id="patch_155">
    <path d="M 379.779545 640.8 
L 381.681818 640.8 
L 381.681818 598.836111 
L 379.779545 598.836111 
z
" clip-path="url(#p6ac7ad3e31)" style="fill: #e41a1c; fill-opacity: 0.5; stroke: #000000; stroke-width: 0.190227; stroke-linejoin: miter"/>
   </g>
   <g id="patch_156">
    <path d="M 384.852273 640.8 
L 386.754545 640.8 
L 386.754545 640.8 
L 384.852273 640.8 
z
" clip-path="url(#p6ac7ad3e31)" style="fill: #e41a1c; fill-opacity: 0.5; stroke: #000000; stroke-width: 0.190227; stroke-linejoin: miter"/>
   </g>
   <g id="patch_157">
    <path d="M 389.925 640.8 
L 391.827273 640.8 
L 391.827273 611.484204 
L 389.925 611.484204 
z
" clip-path="url(#p6ac7ad3e31)" style="fill: #e41a1c; fill-opacity: 0.5; stroke: #000000; stroke-width: 0.190227; stroke-linejoin: miter"/>
   </g>
   <g id="patch_158">
    <path d="M 394.997727 640.8 
L 396.9 640.8 
L 396.9 629.309387 
L 394.997727 629.309387 
z
" clip-path="url(#p6ac7ad3e31)" style="fill: #e41a1c; fill-opacity: 0.5; stroke: #000000; stroke-width: 0.190227; stroke-linejoin: miter"/>
   </g>
   <g id="patch_159">
    <path d="M 400.070455 640.8 
L 401.972727 640.8 
L 401.972727 630.992993 
L 400.070455 630.992993 
z
" clip-path="url(#p6ac7ad3e31)" style="fill: #e41a1c; fill-opacity: 0.5; stroke: #000000; stroke-width: 0.190227; stroke-linejoin: miter"/>
   </g>
   <g id="patch_160">
    <path d="M 405.143182 640.8 
L 407.045455 640.8 
L 407.045455 639.937152 
L 405.143182 639.937152 
z
" clip-path="url(#p6ac7ad3e31)" style="fill: #e41a1c; fill-opacity: 0.5; stroke: #000000; stroke-width: 0.190227; stroke-linejoin: miter"/>
   </g>
   <g id="patch_161">
    <path d="M 410.215909 640.8 
L 412.118182 640.8 
L 412.118182 640.8 
L 410.215909 640.8 
z
" clip-path="url(#p6ac7ad3e31)" style="fill: #e41a1c; fill-opacity: 0.5; stroke: #000000; stroke-width: 0.190227; stroke-linejoin: miter"/>
   </g>
   <g id="patch_162">
    <path d="M 415.288636 640.8 
L 417.190909 640.8 
L 417.190909 638.569222 
L 415.288636 638.569222 
z
" clip-path="url(#p6ac7ad3e31)" style="fill: #e41a1c; fill-opacity: 0.5; stroke: #000000; stroke-width: 0.190227; stroke-linejoin: miter"/>
   </g>
   <g id="patch_163">
    <path d="M 420.361364 640.8 
L 422.263636 640.8 
L 422.263636 558.345378 
L 420.361364 558.345378 
z
" clip-path="url(#p6ac7ad3e31)" style="fill: #e41a1c; fill-opacity: 0.5; stroke: #000000; stroke-width: 0.190227; stroke-linejoin: miter"/>
   </g>
   <g id="patch_164">
    <path d="M 425.434091 640.8 
L 427.336364 640.8 
L 427.336364 640.8 
L 425.434091 640.8 
z
" clip-path="url(#p6ac7ad3e31)" style="fill: #e41a1c; fill-opacity: 0.5; stroke: #000000; stroke-width: 0.190227; stroke-linejoin: miter"/>
   </g>
   <g id="patch_165">
    <path d="M 430.506818 640.8 
L 432.409091 640.8 
L 432.409091 640.8 
L 430.506818 640.8 
z
" clip-path="url(#p6ac7ad3e31)" style="fill: #e41a1c; fill-opacity: 0.5; stroke: #000000; stroke-width: 0.190227; stroke-linejoin: miter"/>
   </g>
   <g id="patch_166">
    <path d="M 435.579545 640.8 
L 437.481818 640.8 
L 437.481818 638.695492 
L 435.579545 638.695492 
z
" clip-path="url(#p6ac7ad3e31)" style="fill: #e41a1c; fill-opacity: 0.5; stroke: #000000; stroke-width: 0.190227; stroke-linejoin: miter"/>
   </g>
   <g id="patch_167">
    <path d="M 440.652273 640.8 
L 442.554545 640.8 
L 442.554545 615.040823 
L 440.652273 615.040823 
z
" clip-path="url(#p6ac7ad3e31)" style="fill: #e41a1c; fill-opacity: 0.5; stroke: #000000; stroke-width: 0.190227; stroke-linejoin: miter"/>
   </g>
   <g id="patch_168">
    <path d="M 445.725 640.8 
L 447.627273 640.8 
L 447.627273 633.223771 
L 445.725 633.223771 
z
" clip-path="url(#p6ac7ad3e31)" style="fill: #e41a1c; fill-opacity: 0.5; stroke: #000000; stroke-width: 0.190227; stroke-linejoin: miter"/>
   </g>
   <g id="patch_169">
    <path d="M 450.797727 640.8 
L 452.7 640.8 
L 452.7 639.979242 
L 450.797727 639.979242 
z
" clip-path="url(#p6ac7ad3e31)" style="fill: #e41a1c; fill-opacity: 0.5; stroke: #000000; stroke-width: 0.190227; stroke-linejoin: miter"/>
   </g>
   <g id="patch_170">
    <path d="M 455.870455 640.8 
L 457.772727 640.8 
L 457.772727 635.53873 
L 455.870455 635.53873 
z
" clip-path="url(#p6ac7ad3e31)" style="fill: #e41a1c; fill-opacity: 0.5; stroke: #000000; stroke-width: 0.190227; stroke-linejoin: miter"/>
   </g>
   <g id="patch_171">
    <path d="M 460.943182 640.8 
L 462.845455 640.8 
L 462.845455 620.133732 
L 460.943182 620.133732 
z
" clip-path="url(#p6ac7ad3e31)" style="fill: #e41a1c; fill-opacity: 0.5; stroke: #000000; stroke-width: 0.190227; stroke-linejoin: miter"/>
   </g>
   <g id="patch_172">
    <path d="M 466.015909 640.8 
L 467.918182 640.8 
L 467.918182 640.8 
L 466.015909 640.8 
z
" clip-path="url(#p6ac7ad3e31)" style="fill: #e41a1c; fill-opacity: 0.5; stroke: #000000; stroke-width: 0.190227; stroke-linejoin: miter"/>
   </g>
   <g id="patch_173">
    <path d="M 471.088636 640.8 
L 472.990909 640.8 
L 472.990909 586.251154 
L 471.088636 586.251154 
z
" clip-path="url(#p6ac7ad3e31)" style="fill: #e41a1c; fill-opacity: 0.5; stroke: #000000; stroke-width: 0.190227; stroke-linejoin: miter"/>
   </g>
   <g id="patch_174">
    <path d="M 476.161364 640.8 
L 478.063636 640.8 
L 478.063636 640.8 
L 476.161364 640.8 
z
" clip-path="url(#p6ac7ad3e31)" style="fill: #e41a1c; fill-opacity: 0.5; stroke: #000000; stroke-width: 0.190227; stroke-linejoin: miter"/>
   </g>
   <g id="patch_175">
    <path d="M 481.234091 640.8 
L 483.136364 640.8 
L 483.136364 640.063422 
L 481.234091 640.063422 
z
" clip-path="url(#p6ac7ad3e31)" style="fill: #e41a1c; fill-opacity: 0.5; stroke: #000000; stroke-width: 0.190227; stroke-linejoin: miter"/>
   </g>
   <g id="patch_176">
    <path d="M 486.306818 640.8 
L 488.209091 640.8 
L 488.209091 640.8 
L 486.306818 640.8 
z
" clip-path="url(#p6ac7ad3e31)" style="fill: #e41a1c; fill-opacity: 0.5; stroke: #000000; stroke-width: 0.190227; stroke-linejoin: miter"/>
   </g>
   <g id="patch_177">
    <path d="M 491.379545 640.8 
L 493.281818 640.8 
L 493.281818 640.8 
L 491.379545 640.8 
z
" clip-path="url(#p6ac7ad3e31)" style="fill: #e41a1c; fill-opacity: 0.5; stroke: #000000; stroke-width: 0.190227; stroke-linejoin: miter"/>
   </g>
   <g id="patch_178">
    <path d="M 496.452273 640.8 
L 498.354545 640.8 
L 498.354545 640.8 
L 496.452273 640.8 
z
" clip-path="url(#p6ac7ad3e31)" style="fill: #e41a1c; fill-opacity: 0.5; stroke: #000000; stroke-width: 0.190227; stroke-linejoin: miter"/>
   </g>
   <g id="patch_179">
    <path d="M 501.525 640.8 
L 503.427273 640.8 
L 503.427273 633.623628 
L 501.525 633.623628 
z
" clip-path="url(#p6ac7ad3e31)" style="fill: #e41a1c; fill-opacity: 0.5; stroke: #000000; stroke-width: 0.190227; stroke-linejoin: miter"/>
   </g>
   <g id="patch_180">
    <path d="M 506.597727 640.8 
L 508.5 640.8 
L 508.5 635.707091 
L 506.597727 635.707091 
z
" clip-path="url(#p6ac7ad3e31)" style="fill: #e41a1c; fill-opacity: 0.5; stroke: #000000; stroke-width: 0.190227; stroke-linejoin: miter"/>
   </g>
   <g id="patch_181">
    <path d="M 511.670455 640.8 
L 513.572727 640.8 
L 513.572727 640.8 
L 511.670455 640.8 
z
" clip-path="url(#p6ac7ad3e31)" style="fill: #e41a1c; fill-opacity: 0.5; stroke: #000000; stroke-width: 0.190227; stroke-linejoin: miter"/>
   </g>
   <g id="patch_182">
    <path d="M 516.743182 640.8 
L 518.645455 640.8 
L 518.645455 640.8 
L 516.743182 640.8 
z
" clip-path="url(#p6ac7ad3e31)" style="fill: #e41a1c; fill-opacity: 0.5; stroke: #000000; stroke-width: 0.190227; stroke-linejoin: miter"/>
   </g>
   <g id="patch_183">
    <path d="M 521.815909 640.8 
L 523.718182 640.8 
L 523.718182 640.8 
L 521.815909 640.8 
z
" clip-path="url(#p6ac7ad3e31)" style="fill: #e41a1c; fill-opacity: 0.5; stroke: #000000; stroke-width: 0.190227; stroke-linejoin: miter"/>
   </g>
   <g id="patch_184">
    <path d="M 526.888636 640.8 
L 528.790909 640.8 
L 528.790909 640.8 
L 526.888636 640.8 
z
" clip-path="url(#p6ac7ad3e31)" style="fill: #e41a1c; fill-opacity: 0.5; stroke: #000000; stroke-width: 0.190227; stroke-linejoin: miter"/>
   </g>
   <g id="patch_185">
    <path d="M 531.961364 640.8 
L 533.863636 640.8 
L 533.863636 640.8 
L 531.961364 640.8 
z
" clip-path="url(#p6ac7ad3e31)" style="fill: #e41a1c; fill-opacity: 0.5; stroke: #000000; stroke-width: 0.190227; stroke-linejoin: miter"/>
   </g>
   <g id="patch_186">
    <path d="M 537.034091 640.8 
L 538.936364 640.8 
L 538.936364 639.34789 
L 537.034091 639.34789 
z
" clip-path="url(#p6ac7ad3e31)" style="fill: #e41a1c; fill-opacity: 0.5; stroke: #000000; stroke-width: 0.190227; stroke-linejoin: miter"/>
   </g>
   <g id="patch_187">
    <path d="M 542.106818 640.8 
L 544.009091 640.8 
L 544.009091 640.8 
L 542.106818 640.8 
z
" clip-path="url(#p6ac7ad3e31)" style="fill: #e41a1c; fill-opacity: 0.5; stroke: #000000; stroke-width: 0.190227; stroke-linejoin: miter"/>
   </g>
   <g id="patch_188">
    <path d="M 547.179545 640.8 
L 549.081818 640.8 
L 549.081818 632.150472 
L 547.179545 632.150472 
z
" clip-path="url(#p6ac7ad3e31)" style="fill: #e41a1c; fill-opacity: 0.5; stroke: #000000; stroke-width: 0.190227; stroke-linejoin: miter"/>
   </g>
   <g id="patch_189">
    <path d="M 552.252273 640.8 
L 554.154545 640.8 
L 554.154545 635.033648 
L 552.252273 635.033648 
z
" clip-path="url(#p6ac7ad3e31)" style="fill: #e41a1c; fill-opacity: 0.5; stroke: #000000; stroke-width: 0.190227; stroke-linejoin: miter"/>
   </g>
   <g id="patch_190">
    <path d="M 557.325 640.8 
L 559.227273 640.8 
L 559.227273 635.980677 
L 557.325 635.980677 
z
" clip-path="url(#p6ac7ad3e31)" style="fill: #e41a1c; fill-opacity: 0.5; stroke: #000000; stroke-width: 0.190227; stroke-linejoin: miter"/>
   </g>
   <g id="patch_191">
    <path d="M 562.397727 640.8 
L 564.3 640.8 
L 564.3 625.500227 
L 562.397727 625.500227 
z
" clip-path="url(#p6ac7ad3e31)" style="fill: #e41a1c; fill-opacity: 0.5; stroke: #000000; stroke-width: 0.190227; stroke-linejoin: miter"/>
   </g>
   <g id="patch_192">
    <path d="M 567.470455 640.8 
L 569.372727 640.8 
L 569.372727 640.8 
L 567.470455 640.8 
z
" clip-path="url(#p6ac7ad3e31)" style="fill: #e41a1c; fill-opacity: 0.5; stroke: #000000; stroke-width: 0.190227; stroke-linejoin: miter"/>
   </g>
   <g id="patch_193">
    <path d="M 572.543182 640.8 
L 574.445455 640.8 
L 574.445455 640.8 
L 572.543182 640.8 
z
" clip-path="url(#p6ac7ad3e31)" style="fill: #e41a1c; fill-opacity: 0.5; stroke: #000000; stroke-width: 0.190227; stroke-linejoin: miter"/>
   </g>
   <g id="patch_194">
    <path d="M 577.615909 640.8 
L 579.518182 640.8 
L 579.518182 622.469736 
L 577.615909 622.469736 
z
" clip-path="url(#p6ac7ad3e31)" style="fill: #e41a1c; fill-opacity: 0.5; stroke: #000000; stroke-width: 0.190227; stroke-linejoin: miter"/>
   </g>
   <g id="patch_195">
    <path d="M 582.688636 640.8 
L 584.590909 640.8 
L 584.590909 635.475595 
L 582.688636 635.475595 
z
" clip-path="url(#p6ac7ad3e31)" style="fill: #e41a1c; fill-opacity: 0.5; stroke: #000000; stroke-width: 0.190227; stroke-linejoin: miter"/>
   </g>
   <g id="patch_196">
    <path d="M 587.761364 640.8 
L 589.663636 640.8 
L 589.663636 640.8 
L 587.761364 640.8 
z
" clip-path="url(#p6ac7ad3e31)" style="fill: #e41a1c; fill-opacity: 0.5; stroke: #000000; stroke-width: 0.190227; stroke-linejoin: miter"/>
   </g>
   <g id="patch_197">
    <path d="M 592.834091 640.8 
L 594.736364 640.8 
L 594.736364 640.8 
L 592.834091 640.8 
z
" clip-path="url(#p6ac7ad3e31)" style="fill: #e41a1c; fill-opacity: 0.5; stroke: #000000; stroke-width: 0.190227; stroke-linejoin: miter"/>
   </g>
   <g id="patch_198">
    <path d="M 597.906818 640.8 
L 599.809091 640.8 
L 599.809091 640.8 
L 597.906818 640.8 
z
" clip-path="url(#p6ac7ad3e31)" style="fill: #e41a1c; fill-opacity: 0.5; stroke: #000000; stroke-width: 0.190227; stroke-linejoin: miter"/>
   </g>
   <g id="patch_199">
    <path d="M 602.979545 640.8 
L 604.881818 640.8 
L 604.881818 640.8 
L 602.979545 640.8 
z
" clip-path="url(#p6ac7ad3e31)" style="fill: #e41a1c; fill-opacity: 0.5; stroke: #000000; stroke-width: 0.190227; stroke-linejoin: miter"/>
   </g>
   <g id="patch_200">
    <path d="M 608.052273 640.8 
L 609.954545 640.8 
L 609.954545 640.8 
L 608.052273 640.8 
z
" clip-path="url(#p6ac7ad3e31)" style="fill: #e41a1c; fill-opacity: 0.5; stroke: #000000; stroke-width: 0.190227; stroke-linejoin: miter"/>
   </g>
   <g id="patch_201">
    <path d="M 613.125 640.8 
L 615.027273 640.8 
L 615.027273 640.8 
L 613.125 640.8 
z
" clip-path="url(#p6ac7ad3e31)" style="fill: #e41a1c; fill-opacity: 0.5; stroke: #000000; stroke-width: 0.190227; stroke-linejoin: miter"/>
   </g>
   <g id="patch_202">
    <path d="M 618.197727 640.8 
L 620.1 640.8 
L 620.1 639.495205 
L 618.197727 639.495205 
z
" clip-path="url(#p6ac7ad3e31)" style="fill: #e41a1c; fill-opacity: 0.5; stroke: #000000; stroke-width: 0.190227; stroke-linejoin: miter"/>
   </g>
   <g id="matplotlib.axis_1">
    <g id="xtick_1">
     <g id="line2d_1">
      <defs>
       <path id="m2e981a5b54" d="M 0 0 
L 0 3.5 
" style="stroke: #000000; stroke-width: 0.8"/>
      </defs>
      <g>
       <use xlink:href="#m2e981a5b54" x="135.648906" y="640.8" style="stroke: #000000; stroke-width: 0.8"/>
      </g>
     </g>
     <g id="text_1">
      <!-- 30 -->
      <g transform="translate(122.923906 665.496875) scale(0.2 -0.2)">
       <defs>
        <path id="DejaVuSans-33" d="M 2597 2516 
Q 3050 2419 3304 2112 
Q 3559 1806 3559 1356 
Q 3559 666 3084 287 
Q 2609 -91 1734 -91 
Q 1441 -91 1130 -33 
Q 819 25 488 141 
L 488 750 
Q 750 597 1062 519 
Q 1375 441 1716 441 
Q 2309 441 2620 675 
Q 2931 909 2931 1356 
Q 2931 1769 2642 2001 
Q 2353 2234 1838 2234 
L 1294 2234 
L 1294 2753 
L 1863 2753 
Q 2328 2753 2575 2939 
Q 2822 3125 2822 3475 
Q 2822 3834 2567 4026 
Q 2313 4219 1838 4219 
Q 1578 4219 1281 4162 
Q 984 4106 628 3988 
L 628 4550 
Q 988 4650 1302 4700 
Q 1616 4750 1894 4750 
Q 2613 4750 3031 4423 
Q 3450 4097 3450 3541 
Q 3450 3153 3228 2886 
Q 3006 2619 2597 2516 
z
" transform="scale(0.015625)"/>
        <path id="DejaVuSans-30" d="M 2034 4250 
Q 1547 4250 1301 3770 
Q 1056 3291 1056 2328 
Q 1056 1369 1301 889 
Q 1547 409 2034 409 
Q 2525 409 2770 889 
Q 3016 1369 3016 2328 
Q 3016 3291 2770 3770 
Q 2525 4250 2034 4250 
z
M 2034 4750 
Q 2819 4750 3233 4129 
Q 3647 3509 3647 2328 
Q 3647 1150 3233 529 
Q 2819 -91 2034 -91 
Q 1250 -91 836 529 
Q 422 1150 422 2328 
Q 422 3509 836 4129 
Q 1250 4750 2034 4750 
z
" transform="scale(0.015625)"/>
       </defs>
       <use xlink:href="#DejaVuSans-33"/>
       <use xlink:href="#DejaVuSans-30" x="63.623047"/>
      </g>
     </g>
    </g>
    <g id="xtick_2">
     <g id="line2d_2">
      <g>
       <use xlink:href="#m2e981a5b54" x="210.213282" y="640.8" style="stroke: #000000; stroke-width: 0.8"/>
      </g>
     </g>
     <g id="text_2">
      <!-- 40 -->
      <g transform="translate(197.488282 665.496875) scale(0.2 -0.2)">
       <defs>
        <path id="DejaVuSans-34" d="M 2419 4116 
L 825 1625 
L 2419 1625 
L 2419 4116 
z
M 2253 4666 
L 3047 4666 
L 3047 1625 
L 3713 1625 
L 3713 1100 
L 3047 1100 
L 3047 0 
L 2419 0 
L 2419 1100 
L 313 1100 
L 313 1709 
L 2253 4666 
z
" transform="scale(0.015625)"/>
       </defs>
       <use xlink:href="#DejaVuSans-34"/>
       <use xlink:href="#DejaVuSans-30" x="63.623047"/>
      </g>
     </g>
    </g>
    <g id="xtick_3">
     <g id="line2d_3">
      <g>
       <use xlink:href="#m2e981a5b54" x="284.777658" y="640.8" style="stroke: #000000; stroke-width: 0.8"/>
      </g>
     </g>
     <g id="text_3">
      <!-- 50 -->
      <g transform="translate(272.052658 665.496875) scale(0.2 -0.2)">
       <defs>
        <path id="DejaVuSans-35" d="M 691 4666 
L 3169 4666 
L 3169 4134 
L 1269 4134 
L 1269 2991 
Q 1406 3038 1543 3061 
Q 1681 3084 1819 3084 
Q 2600 3084 3056 2656 
Q 3513 2228 3513 1497 
Q 3513 744 3044 326 
Q 2575 -91 1722 -91 
Q 1428 -91 1123 -41 
Q 819 9 494 109 
L 494 744 
Q 775 591 1075 516 
Q 1375 441 1709 441 
Q 2250 441 2565 725 
Q 2881 1009 2881 1497 
Q 2881 1984 2565 2268 
Q 2250 2553 1709 2553 
Q 1456 2553 1204 2497 
Q 953 2441 691 2322 
L 691 4666 
z
" transform="scale(0.015625)"/>
       </defs>
       <use xlink:href="#DejaVuSans-35"/>
       <use xlink:href="#DejaVuSans-30" x="63.623047"/>
      </g>
     </g>
    </g>
    <g id="xtick_4">
     <g id="line2d_4">
      <g>
       <use xlink:href="#m2e981a5b54" x="359.342034" y="640.8" style="stroke: #000000; stroke-width: 0.8"/>
      </g>
     </g>
     <g id="text_4">
      <!-- 60 -->
      <g transform="translate(346.617034 665.496875) scale(0.2 -0.2)">
       <defs>
        <path id="DejaVuSans-36" d="M 2113 2584 
Q 1688 2584 1439 2293 
Q 1191 2003 1191 1497 
Q 1191 994 1439 701 
Q 1688 409 2113 409 
Q 2538 409 2786 701 
Q 3034 994 3034 1497 
Q 3034 2003 2786 2293 
Q 2538 2584 2113 2584 
z
M 3366 4563 
L 3366 3988 
Q 3128 4100 2886 4159 
Q 2644 4219 2406 4219 
Q 1781 4219 1451 3797 
Q 1122 3375 1075 2522 
Q 1259 2794 1537 2939 
Q 1816 3084 2150 3084 
Q 2853 3084 3261 2657 
Q 3669 2231 3669 1497 
Q 3669 778 3244 343 
Q 2819 -91 2113 -91 
Q 1303 -91 875 529 
Q 447 1150 447 2328 
Q 447 3434 972 4092 
Q 1497 4750 2381 4750 
Q 2619 4750 2861 4703 
Q 3103 4656 3366 4563 
z
" transform="scale(0.015625)"/>
       </defs>
       <use xlink:href="#DejaVuSans-36"/>
       <use xlink:href="#DejaVuSans-30" x="63.623047"/>
      </g>
     </g>
    </g>
    <g id="xtick_5">
     <g id="line2d_5">
      <g>
       <use xlink:href="#m2e981a5b54" x="433.906409" y="640.8" style="stroke: #000000; stroke-width: 0.8"/>
      </g>
     </g>
     <g id="text_5">
      <!-- 70 -->
      <g transform="translate(421.181409 665.496875) scale(0.2 -0.2)">
       <defs>
        <path id="DejaVuSans-37" d="M 525 4666 
L 3525 4666 
L 3525 4397 
L 1831 0 
L 1172 0 
L 2766 4134 
L 525 4134 
L 525 4666 
z
" transform="scale(0.015625)"/>
       </defs>
       <use xlink:href="#DejaVuSans-37"/>
       <use xlink:href="#DejaVuSans-30" x="63.623047"/>
      </g>
     </g>
    </g>
    <g id="xtick_6">
     <g id="line2d_6">
      <g>
       <use xlink:href="#m2e981a5b54" x="508.470785" y="640.8" style="stroke: #000000; stroke-width: 0.8"/>
      </g>
     </g>
     <g id="text_6">
      <!-- 80 -->
      <g transform="translate(495.745785 665.496875) scale(0.2 -0.2)">
       <defs>
        <path id="DejaVuSans-38" d="M 2034 2216 
Q 1584 2216 1326 1975 
Q 1069 1734 1069 1313 
Q 1069 891 1326 650 
Q 1584 409 2034 409 
Q 2484 409 2743 651 
Q 3003 894 3003 1313 
Q 3003 1734 2745 1975 
Q 2488 2216 2034 2216 
z
M 1403 2484 
Q 997 2584 770 2862 
Q 544 3141 544 3541 
Q 544 4100 942 4425 
Q 1341 4750 2034 4750 
Q 2731 4750 3128 4425 
Q 3525 4100 3525 3541 
Q 3525 3141 3298 2862 
Q 3072 2584 2669 2484 
Q 3125 2378 3379 2068 
Q 3634 1759 3634 1313 
Q 3634 634 3220 271 
Q 2806 -91 2034 -91 
Q 1263 -91 848 271 
Q 434 634 434 1313 
Q 434 1759 690 2068 
Q 947 2378 1403 2484 
z
M 1172 3481 
Q 1172 3119 1398 2916 
Q 1625 2713 2034 2713 
Q 2441 2713 2670 2916 
Q 2900 3119 2900 3481 
Q 2900 3844 2670 4047 
Q 2441 4250 2034 4250 
Q 1625 4250 1398 4047 
Q 1172 3844 1172 3481 
z
" transform="scale(0.015625)"/>
       </defs>
       <use xlink:href="#DejaVuSans-38"/>
       <use xlink:href="#DejaVuSans-30" x="63.623047"/>
      </g>
     </g>
    </g>
    <g id="xtick_7">
     <g id="line2d_7">
      <g>
       <use xlink:href="#m2e981a5b54" x="583.035161" y="640.8" style="stroke: #000000; stroke-width: 0.8"/>
      </g>
     </g>
     <g id="text_7">
      <!-- 90 -->
      <g transform="translate(570.310161 665.496875) scale(0.2 -0.2)">
       <defs>
        <path id="DejaVuSans-39" d="M 703 97 
L 703 672 
Q 941 559 1184 500 
Q 1428 441 1663 441 
Q 2288 441 2617 861 
Q 2947 1281 2994 2138 
Q 2813 1869 2534 1725 
Q 2256 1581 1919 1581 
Q 1219 1581 811 2004 
Q 403 2428 403 3163 
Q 403 3881 828 4315 
Q 1253 4750 1959 4750 
Q 2769 4750 3195 4129 
Q 3622 3509 3622 2328 
Q 3622 1225 3098 567 
Q 2575 -91 1691 -91 
Q 1453 -91 1209 -44 
Q 966 3 703 97 
z
M 1959 2075 
Q 2384 2075 2632 2365 
Q 2881 2656 2881 3163 
Q 2881 3666 2632 3958 
Q 2384 4250 1959 4250 
Q 1534 4250 1286 3958 
Q 1038 3666 1038 3163 
Q 1038 2656 1286 2365 
Q 1534 2075 1959 2075 
z
" transform="scale(0.015625)"/>
       </defs>
       <use xlink:href="#DejaVuSans-39"/>
       <use xlink:href="#DejaVuSans-30" x="63.623047"/>
      </g>
     </g>
    </g>
    <g id="text_8">
     <!-- Travel Time -->
     <g transform="translate(317.369531 699.333438) scale(0.18 -0.18)">
      <defs>
       <path id="DejaVuSans-54" d="M -19 4666 
L 3928 4666 
L 3928 4134 
L 2272 4134 
L 2272 0 
L 1638 0 
L 1638 4134 
L -19 4134 
L -19 4666 
z
" transform="scale(0.015625)"/>
       <path id="DejaVuSans-72" d="M 2631 2963 
Q 2534 3019 2420 3045 
Q 2306 3072 2169 3072 
Q 1681 3072 1420 2755 
Q 1159 2438 1159 1844 
L 1159 0 
L 581 0 
L 581 3500 
L 1159 3500 
L 1159 2956 
Q 1341 3275 1631 3429 
Q 1922 3584 2338 3584 
Q 2397 3584 2469 3576 
Q 2541 3569 2628 3553 
L 2631 2963 
z
" transform="scale(0.015625)"/>
       <path id="DejaVuSans-61" d="M 2194 1759 
Q 1497 1759 1228 1600 
Q 959 1441 959 1056 
Q 959 750 1161 570 
Q 1363 391 1709 391 
Q 2188 391 2477 730 
Q 2766 1069 2766 1631 
L 2766 1759 
L 2194 1759 
z
M 3341 1997 
L 3341 0 
L 2766 0 
L 2766 531 
Q 2569 213 2275 61 
Q 1981 -91 1556 -91 
Q 1019 -91 701 211 
Q 384 513 384 1019 
Q 384 1609 779 1909 
Q 1175 2209 1959 2209 
L 2766 2209 
L 2766 2266 
Q 2766 2663 2505 2880 
Q 2244 3097 1772 3097 
Q 1472 3097 1187 3025 
Q 903 2953 641 2809 
L 641 3341 
Q 956 3463 1253 3523 
Q 1550 3584 1831 3584 
Q 2591 3584 2966 3190 
Q 3341 2797 3341 1997 
z
" transform="scale(0.015625)"/>
       <path id="DejaVuSans-76" d="M 191 3500 
L 800 3500 
L 1894 563 
L 2988 3500 
L 3597 3500 
L 2284 0 
L 1503 0 
L 191 3500 
z
" transform="scale(0.015625)"/>
       <path id="DejaVuSans-65" d="M 3597 1894 
L 3597 1613 
L 953 1613 
Q 991 1019 1311 708 
Q 1631 397 2203 397 
Q 2534 397 2845 478 
Q 3156 559 3463 722 
L 3463 178 
Q 3153 47 2828 -22 
Q 2503 -91 2169 -91 
Q 1331 -91 842 396 
Q 353 884 353 1716 
Q 353 2575 817 3079 
Q 1281 3584 2069 3584 
Q 2775 3584 3186 3129 
Q 3597 2675 3597 1894 
z
M 3022 2063 
Q 3016 2534 2758 2815 
Q 2500 3097 2075 3097 
Q 1594 3097 1305 2825 
Q 1016 2553 972 2059 
L 3022 2063 
z
" transform="scale(0.015625)"/>
       <path id="DejaVuSans-6c" d="M 603 4863 
L 1178 4863 
L 1178 0 
L 603 0 
L 603 4863 
z
" transform="scale(0.015625)"/>
       <path id="DejaVuSans-20" transform="scale(0.015625)"/>
       <path id="DejaVuSans-69" d="M 603 3500 
L 1178 3500 
L 1178 0 
L 603 0 
L 603 3500 
z
M 603 4863 
L 1178 4863 
L 1178 4134 
L 603 4134 
L 603 4863 
z
" transform="scale(0.015625)"/>
       <path id="DejaVuSans-6d" d="M 3328 2828 
Q 3544 3216 3844 3400 
Q 4144 3584 4550 3584 
Q 5097 3584 5394 3201 
Q 5691 2819 5691 2113 
L 5691 0 
L 5113 0 
L 5113 2094 
Q 5113 2597 4934 2840 
Q 4756 3084 4391 3084 
Q 3944 3084 3684 2787 
Q 3425 2491 3425 1978 
L 3425 0 
L 2847 0 
L 2847 2094 
Q 2847 2600 2669 2842 
Q 2491 3084 2119 3084 
Q 1678 3084 1418 2786 
Q 1159 2488 1159 1978 
L 1159 0 
L 581 0 
L 581 3500 
L 1159 3500 
L 1159 2956 
Q 1356 3278 1631 3431 
Q 1906 3584 2284 3584 
Q 2666 3584 2933 3390 
Q 3200 3197 3328 2828 
z
" transform="scale(0.015625)"/>
      </defs>
      <use xlink:href="#DejaVuSans-54"/>
      <use xlink:href="#DejaVuSans-72" x="46.333984"/>
      <use xlink:href="#DejaVuSans-61" x="87.447266"/>
      <use xlink:href="#DejaVuSans-76" x="148.726562"/>
      <use xlink:href="#DejaVuSans-65" x="207.90625"/>
      <use xlink:href="#DejaVuSans-6c" x="269.429688"/>
      <use xlink:href="#DejaVuSans-20" x="297.212891"/>
      <use xlink:href="#DejaVuSans-54" x="329"/>
      <use xlink:href="#DejaVuSans-69" x="386.958984"/>
      <use xlink:href="#DejaVuSans-6d" x="414.742188"/>
      <use xlink:href="#DejaVuSans-65" x="512.154297"/>
     </g>
    </g>
   </g>
   <g id="matplotlib.axis_2">
    <g id="ytick_1">
     <g id="line2d_8">
      <defs>
       <path id="mbad9ec9878" d="M 0 0 
L -3.5 0 
" style="stroke: #000000; stroke-width: 0.8"/>
      </defs>
      <g>
       <use xlink:href="#mbad9ec9878" x="90" y="640.8" style="stroke: #000000; stroke-width: 0.8"/>
      </g>
     </g>
     <g id="text_9">
      <!-- 0 -->
      <g transform="translate(67.775 648.398438) scale(0.2 -0.2)">
       <use xlink:href="#DejaVuSans-30"/>
      </g>
     </g>
    </g>
    <g id="ytick_2">
     <g id="line2d_9">
      <g>
       <use xlink:href="#mbad9ec9878" x="90" y="535.574602" style="stroke: #000000; stroke-width: 0.8"/>
      </g>
     </g>
     <g id="text_10">
      <!-- 5000 -->
      <g transform="translate(29.6 543.17304) scale(0.2 -0.2)">
       <use xlink:href="#DejaVuSans-35"/>
       <use xlink:href="#DejaVuSans-30" x="63.623047"/>
       <use xlink:href="#DejaVuSans-30" x="127.246094"/>
       <use xlink:href="#DejaVuSans-30" x="190.869141"/>
      </g>
     </g>
    </g>
    <g id="ytick_3">
     <g id="line2d_10">
      <g>
       <use xlink:href="#mbad9ec9878" x="90" y="430.349205" style="stroke: #000000; stroke-width: 0.8"/>
      </g>
     </g>
     <g id="text_11">
      <!-- 10000 -->
      <g transform="translate(16.875 437.947642) scale(0.2 -0.2)">
       <defs>
        <path id="DejaVuSans-31" d="M 794 531 
L 1825 531 
L 1825 4091 
L 703 3866 
L 703 4441 
L 1819 4666 
L 2450 4666 
L 2450 531 
L 3481 531 
L 3481 0 
L 794 0 
L 794 531 
z
" transform="scale(0.015625)"/>
       </defs>
       <use xlink:href="#DejaVuSans-31"/>
       <use xlink:href="#DejaVuSans-30" x="63.623047"/>
       <use xlink:href="#DejaVuSans-30" x="127.246094"/>
       <use xlink:href="#DejaVuSans-30" x="190.869141"/>
       <use xlink:href="#DejaVuSans-30" x="254.492188"/>
      </g>
     </g>
    </g>
    <g id="ytick_4">
     <g id="line2d_11">
      <g>
       <use xlink:href="#mbad9ec9878" x="90" y="325.123807" style="stroke: #000000; stroke-width: 0.8"/>
      </g>
     </g>
     <g id="text_12">
      <!-- 15000 -->
      <g transform="translate(16.875 332.722245) scale(0.2 -0.2)">
       <use xlink:href="#DejaVuSans-31"/>
       <use xlink:href="#DejaVuSans-35" x="63.623047"/>
       <use xlink:href="#DejaVuSans-30" x="127.246094"/>
       <use xlink:href="#DejaVuSans-30" x="190.869141"/>
       <use xlink:href="#DejaVuSans-30" x="254.492188"/>
      </g>
     </g>
    </g>
    <g id="ytick_5">
     <g id="line2d_12">
      <g>
       <use xlink:href="#mbad9ec9878" x="90" y="219.89841" style="stroke: #000000; stroke-width: 0.8"/>
      </g>
     </g>
     <g id="text_13">
      <!-- 20000 -->
      <g transform="translate(16.875 227.496847) scale(0.2 -0.2)">
       <defs>
        <path id="DejaVuSans-32" d="M 1228 531 
L 3431 531 
L 3431 0 
L 469 0 
L 469 531 
Q 828 903 1448 1529 
Q 2069 2156 2228 2338 
Q 2531 2678 2651 2914 
Q 2772 3150 2772 3378 
Q 2772 3750 2511 3984 
Q 2250 4219 1831 4219 
Q 1534 4219 1204 4116 
Q 875 4013 500 3803 
L 500 4441 
Q 881 4594 1212 4672 
Q 1544 4750 1819 4750 
Q 2544 4750 2975 4387 
Q 3406 4025 3406 3419 
Q 3406 3131 3298 2873 
Q 3191 2616 2906 2266 
Q 2828 2175 2409 1742 
Q 1991 1309 1228 531 
z
" transform="scale(0.015625)"/>
       </defs>
       <use xlink:href="#DejaVuSans-32"/>
       <use xlink:href="#DejaVuSans-30" x="63.623047"/>
       <use xlink:href="#DejaVuSans-30" x="127.246094"/>
       <use xlink:href="#DejaVuSans-30" x="190.869141"/>
       <use xlink:href="#DejaVuSans-30" x="254.492188"/>
      </g>
     </g>
    </g>
    <g id="ytick_6">
     <g id="line2d_13">
      <g>
       <use xlink:href="#mbad9ec9878" x="90" y="114.673012" style="stroke: #000000; stroke-width: 0.8"/>
      </g>
     </g>
     <g id="text_14">
      <!-- 25000 -->
      <g transform="translate(16.875 122.27145) scale(0.2 -0.2)">
       <use xlink:href="#DejaVuSans-32"/>
       <use xlink:href="#DejaVuSans-35" x="63.623047"/>
       <use xlink:href="#DejaVuSans-30" x="127.246094"/>
       <use xlink:href="#DejaVuSans-30" x="190.869141"/>
       <use xlink:href="#DejaVuSans-30" x="254.492188"/>
      </g>
     </g>
    </g>
    <g id="text_15">
     <!-- Count -->
     <g transform="translate(-2.868437 390.327187) rotate(-90) scale(0.18 -0.18)">
      <defs>
       <path id="DejaVuSans-43" d="M 4122 4306 
L 4122 3641 
Q 3803 3938 3442 4084 
Q 3081 4231 2675 4231 
Q 1875 4231 1450 3742 
Q 1025 3253 1025 2328 
Q 1025 1406 1450 917 
Q 1875 428 2675 428 
Q 3081 428 3442 575 
Q 3803 722 4122 1019 
L 4122 359 
Q 3791 134 3420 21 
Q 3050 -91 2638 -91 
Q 1578 -91 968 557 
Q 359 1206 359 2328 
Q 359 3453 968 4101 
Q 1578 4750 2638 4750 
Q 3056 4750 3426 4639 
Q 3797 4528 4122 4306 
z
" transform="scale(0.015625)"/>
       <path id="DejaVuSans-6f" d="M 1959 3097 
Q 1497 3097 1228 2736 
Q 959 2375 959 1747 
Q 959 1119 1226 758 
Q 1494 397 1959 397 
Q 2419 397 2687 759 
Q 2956 1122 2956 1747 
Q 2956 2369 2687 2733 
Q 2419 3097 1959 3097 
z
M 1959 3584 
Q 2709 3584 3137 3096 
Q 3566 2609 3566 1747 
Q 3566 888 3137 398 
Q 2709 -91 1959 -91 
Q 1206 -91 779 398 
Q 353 888 353 1747 
Q 353 2609 779 3096 
Q 1206 3584 1959 3584 
z
" transform="scale(0.015625)"/>
       <path id="DejaVuSans-75" d="M 544 1381 
L 544 3500 
L 1119 3500 
L 1119 1403 
Q 1119 906 1312 657 
Q 1506 409 1894 409 
Q 2359 409 2629 706 
Q 2900 1003 2900 1516 
L 2900 3500 
L 3475 3500 
L 3475 0 
L 2900 0 
L 2900 538 
Q 2691 219 2414 64 
Q 2138 -91 1772 -91 
Q 1169 -91 856 284 
Q 544 659 544 1381 
z
M 1991 3584 
L 1991 3584 
z
" transform="scale(0.015625)"/>
       <path id="DejaVuSans-6e" d="M 3513 2113 
L 3513 0 
L 2938 0 
L 2938 2094 
Q 2938 2591 2744 2837 
Q 2550 3084 2163 3084 
Q 1697 3084 1428 2787 
Q 1159 2491 1159 1978 
L 1159 0 
L 581 0 
L 581 3500 
L 1159 3500 
L 1159 2956 
Q 1366 3272 1645 3428 
Q 1925 3584 2291 3584 
Q 2894 3584 3203 3211 
Q 3513 2838 3513 2113 
z
" transform="scale(0.015625)"/>
       <path id="DejaVuSans-74" d="M 1172 4494 
L 1172 3500 
L 2356 3500 
L 2356 3053 
L 1172 3053 
L 1172 1153 
Q 1172 725 1289 603 
Q 1406 481 1766 481 
L 2356 481 
L 2356 0 
L 1766 0 
Q 1100 0 847 248 
Q 594 497 594 1153 
L 594 3053 
L 172 3053 
L 172 3500 
L 594 3500 
L 594 4494 
L 1172 4494 
z
" transform="scale(0.015625)"/>
      </defs>
      <use xlink:href="#DejaVuSans-43"/>
      <use xlink:href="#DejaVuSans-6f" x="69.824219"/>
      <use xlink:href="#DejaVuSans-75" x="131.005859"/>
      <use xlink:href="#DejaVuSans-6e" x="194.384766"/>
      <use xlink:href="#DejaVuSans-74" x="257.763672"/>
     </g>
    </g>
   </g>
   <g id="line2d_14">
    <path d="M 115.363636 597.626933 
L 117.912746 590.15396 
L 120.461855 584.081568 
L 123.010964 577.573203 
L 125.560073 567.766001 
L 128.109182 552.403038 
L 130.658291 531.613932 
L 133.207401 508.646401 
L 135.75651 488.797358 
L 138.305619 476.92721 
L 140.854728 475.029229 
L 143.403837 481.449427 
L 145.952947 492.238207 
L 148.502056 503.571135 
L 151.051165 513.485009 
L 153.600274 521.898462 
L 156.149383 529.323195 
L 158.698492 535.565307 
L 161.247602 539.433538 
L 163.796711 539.470966 
L 166.34582 534.969595 
L 168.894929 526.54581 
L 171.444038 516.083656 
L 173.993148 506.267867 
L 176.542257 499.938377 
L 179.091366 499.345591 
L 181.640475 505.413527 
L 184.189584 517.300217 
L 189.287803 547.993482 
L 191.836912 560.663776 
L 194.386021 568.842236 
L 196.93513 572.22911 
L 199.484239 571.595401 
L 202.033349 568.108 
L 204.582458 562.806813 
L 209.680676 550.169405 
L 212.229785 544.920227 
L 214.778894 542.047355 
L 217.328004 542.30429 
L 219.877113 545.3443 
L 222.426222 549.627132 
L 224.975331 553.010156 
L 227.52444 553.788094 
L 230.07355 551.630975 
L 232.622659 547.838698 
L 235.171768 544.658174 
L 237.720877 543.991523 
L 240.269986 546.297931 
L 245.368205 554.550564 
L 247.917314 557.33052 
L 250.466423 558.711958 
L 253.015532 559.553705 
L 255.564641 560.661189 
L 258.113751 562.042848 
L 260.66286 563.048518 
L 263.211969 563.240014 
L 265.761078 563.175966 
L 268.310187 564.359169 
L 270.859296 568.335255 
L 273.408406 575.657398 
L 275.957515 585.496287 
L 278.506624 596.092947 
L 281.055733 605.615012 
L 283.604842 612.808513 
L 286.153952 617.140959 
L 288.703061 618.540398 
L 291.25217 617.044045 
L 293.801279 612.637757 
L 296.350388 605.3994 
L 298.899497 595.849932 
L 301.448607 585.242933 
L 303.997716 575.497476 
L 306.546825 568.680051 
L 309.095934 566.271871 
L 311.645043 568.650918 
L 314.194153 575.082981 
L 316.743262 584.162363 
L 321.84148 604.517525 
L 324.390589 613.763382 
L 326.939698 621.65864 
L 329.488808 627.995636 
L 332.037917 632.752466 
L 334.587026 636.055367 
L 337.136135 638.133884 
L 339.685244 639.252927 
L 342.234354 639.63971 
L 344.783463 639.43817 
L 347.332572 638.710149 
L 349.881681 637.473581 
L 352.43079 635.742591 
L 354.979899 633.532483 
L 357.529009 630.825239 
L 360.078118 627.543072 
L 362.627227 623.601605 
L 370.274555 610.214392 
L 372.823664 607.690748 
L 375.372773 607.591964 
L 377.921882 610.162737 
L 380.470991 614.901843 
L 385.56921 626.458028 
L 388.118319 631.133421 
L 390.667428 634.353054 
L 393.216537 636.179546 
L 395.765646 636.942377 
L 398.314756 637.017205 
L 400.863865 636.691825 
L 403.412974 636.127394 
L 405.962083 635.372989 
L 408.511192 634.403723 
L 411.060302 633.186558 
L 416.15852 630.388216 
L 418.707629 629.388569 
L 421.256738 629.134749 
L 423.805847 629.775706 
L 426.354957 631.137055 
L 428.904066 632.793114 
L 431.453175 634.283431 
L 434.002284 635.327705 
L 436.551393 635.905542 
L 439.100503 636.174114 
L 444.198721 636.344111 
L 446.74783 636.186964 
L 449.296939 635.620572 
L 451.846048 634.428343 
L 454.395158 632.489313 
L 456.944267 629.856002 
L 462.042485 623.721986 
L 464.591594 621.166113 
L 467.140704 619.576492 
L 469.689813 619.250207 
L 472.238922 620.269513 
L 474.788031 622.485232 
L 477.33714 625.538011 
L 482.435359 632.183998 
L 484.984468 634.926257 
L 487.533577 637.010206 
L 490.082686 638.465226 
L 492.631795 639.419152 
L 495.180905 640.017232 
L 497.730014 640.378432 
L 502.828232 640.700502 
L 510.47556 640.794206 
L 525.770215 640.766178 
L 530.868433 640.554522 
L 533.417542 640.240596 
L 535.966651 639.659822 
L 538.515761 638.721461 
L 541.06487 637.410869 
L 546.163088 634.351914 
L 548.712197 633.27532 
L 551.261307 632.944189 
L 553.810416 633.461336 
L 556.359525 634.663794 
L 561.457743 637.715009 
L 564.006852 638.938446 
L 566.555962 639.784286 
L 569.105071 640.2908 
L 571.65418 640.555383 
L 576.752398 640.72572 
L 597.145272 640.782357 
L 604.792599 640.60999 
L 609.890818 640.196919 
L 617.538145 639.305916 
L 620.087254 639.177688 
L 622.636364 639.221722 
L 622.636364 639.221722 
" clip-path="url(#p6ac7ad3e31)" style="fill: none; stroke: #377eb8; stroke-width: 2; stroke-linecap: square"/>
   </g>
   <g id="line2d_15">
    <path d="M 115.363636 518.229251 
L 117.912746 487.581537 
L 120.461855 464.563191 
L 123.010964 450.438559 
L 125.560073 442.821479 
L 128.109182 437.592682 
L 130.658291 431.594882 
L 133.207401 424.251981 
L 135.75651 417.262744 
L 138.305619 412.941283 
L 140.854728 412.544145 
L 143.403837 415.674919 
L 145.952947 420.966798 
L 148.502056 427.378875 
L 151.051165 435.093464 
L 153.600274 445.306876 
L 156.149383 458.986885 
L 161.247602 491.929902 
L 163.796711 504.394202 
L 166.34582 509.518609 
L 168.894929 506.220834 
L 171.444038 496.003068 
L 176.542257 467.496628 
L 179.091366 455.443943 
L 181.640475 448.330634 
L 184.189584 448.448133 
L 186.738693 457.237863 
L 189.287803 474.09324 
L 194.386021 517.401674 
L 196.93513 534.494519 
L 199.484239 544.738073 
L 202.033349 548.15137 
L 204.582458 545.987182 
L 207.131567 539.583908 
L 209.680676 530.170037 
L 212.229785 519.434691 
L 214.778894 509.826119 
L 217.328004 503.86955 
L 219.877113 502.890803 
L 222.426222 506.222643 
L 224.975331 511.620553 
L 227.52444 516.655626 
L 230.07355 520.139354 
L 232.622659 522.634681 
L 235.171768 525.729635 
L 237.720877 530.578081 
L 240.269986 536.723976 
L 242.819095 542.037953 
L 245.368205 543.788398 
L 247.917314 540.062398 
L 250.466423 530.634873 
L 253.015532 517.006828 
L 255.564641 501.976033 
L 258.113751 489.087746 
L 260.66286 481.870413 
L 263.211969 482.708134 
L 265.761078 491.74232 
L 268.310187 506.587693 
L 270.859296 523.267985 
L 273.408406 537.948398 
L 275.957515 548.508621 
L 278.506624 555.095385 
L 281.055733 559.410413 
L 283.604842 563.309378 
L 286.153952 567.745599 
L 293.801279 582.501335 
L 296.350388 586.57532 
L 298.899497 589.421167 
L 301.448607 590.660913 
L 303.997716 590.573207 
L 306.546825 590.163932 
L 309.095934 590.621672 
L 311.645043 592.633104 
L 314.194153 596.119978 
L 321.84148 609.250664 
L 324.390589 612.997931 
L 326.939698 616.318969 
L 332.037917 622.265217 
L 337.136135 627.750616 
L 339.685244 630.200573 
L 342.234354 632.276951 
L 344.783463 633.875064 
L 347.332572 635.002528 
L 349.881681 635.781225 
L 352.43079 636.363757 
L 354.979899 636.824534 
L 357.529009 637.09657 
L 360.078118 636.97618 
L 362.627227 636.178191 
L 365.176336 634.430369 
L 367.725445 631.610815 
L 370.274555 627.904734 
L 372.823664 623.892835 
L 375.372773 620.452795 
L 377.921882 618.431358 
L 380.470991 618.219732 
L 383.020101 619.510348 
L 385.56921 621.460051 
L 388.118319 623.203876 
L 390.667428 624.364422 
L 393.216537 625.177944 
L 395.765646 626.172076 
L 398.314756 627.695507 
L 403.412974 631.624289 
L 405.962083 632.960534 
L 408.511192 633.069389 
L 411.060302 631.507823 
L 413.609411 628.216415 
L 418.707629 619.436862 
L 421.256738 616.734363 
L 423.805847 616.736168 
L 426.354957 619.446365 
L 431.453175 628.147455 
L 434.002284 631.240724 
L 436.551393 632.536461 
L 439.100503 632.33145 
L 441.649612 631.417471 
L 444.198721 630.629344 
L 446.74783 630.473877 
L 449.296939 630.975445 
L 451.846048 631.770453 
L 454.395158 632.360182 
L 456.944267 632.359067 
L 459.493376 631.610072 
L 462.042485 630.154641 
L 464.591594 628.155864 
L 467.140704 625.890882 
L 469.689813 623.81767 
L 472.238922 622.574066 
L 474.788031 622.768126 
L 477.33714 624.630155 
L 479.886249 627.803777 
L 482.435359 631.486117 
L 484.984468 634.824875 
L 487.533577 637.270921 
L 490.082686 638.675767 
L 492.631795 639.171464 
L 495.180905 639.008103 
L 502.828232 637.401774 
L 505.377341 637.339195 
L 507.92645 637.69066 
L 518.122887 640.228477 
L 520.671996 640.521004 
L 525.770215 640.703698 
L 530.868433 640.566395 
L 533.417542 640.37899 
L 535.966651 640.072889 
L 538.515761 639.601866 
L 541.06487 638.929483 
L 546.163088 637.10947 
L 548.712197 636.204425 
L 551.261307 635.482184 
L 553.810416 634.967376 
L 561.457743 633.897065 
L 564.006852 633.664602 
L 574.203289 633.352125 
L 576.752398 633.310908 
L 579.301508 633.595085 
L 581.850617 634.357375 
L 584.399726 635.545727 
L 589.497944 638.240795 
L 592.047053 639.282205 
L 594.596163 639.993842 
L 597.145272 640.416242 
L 599.694381 640.633986 
L 604.792599 640.752465 
L 612.439927 640.619193 
L 620.087254 640.42901 
L 622.636364 640.436545 
L 622.636364 640.436545 
" clip-path="url(#p6ac7ad3e31)" style="fill: none; stroke: #e41a1c; stroke-width: 2; stroke-linecap: square"/>
   </g>
   <g id="LineCollection_1">
    <path d="M 215.061871 640.8 
L 215.061871 266.618486 
" clip-path="url(#p6ac7ad3e31)" style="fill: none; stroke-dasharray: 7.4,3.2; stroke-dashoffset: 0; stroke: #e41a1c; stroke-width: 2"/>
   </g>
   <g id="LineCollection_2">
    <path d="M 224.398463 640.8 
L 224.398463 266.618486 
" clip-path="url(#p6ac7ad3e31)" style="fill: none; stroke-dasharray: 7.4,3.2; stroke-dashoffset: 0; stroke: #377eb8; stroke-width: 2"/>
   </g>
   <g id="patch_203">
    <path d="M 90 640.8 
L 90 86.4 
" style="fill: none; stroke: #000000; stroke-width: 2; stroke-linejoin: miter; stroke-linecap: square"/>
   </g>
   <g id="patch_204">
    <path d="M 648 640.8 
L 648 86.4 
" style="fill: none; stroke: #000000; stroke-width: 2; stroke-linejoin: miter; stroke-linecap: square"/>
   </g>
   <g id="patch_205">
    <path d="M 90 640.8 
L 648 640.8 
" style="fill: none; stroke: #000000; stroke-width: 2; stroke-linejoin: miter; stroke-linecap: square"/>
   </g>
   <g id="patch_206">
    <path d="M 90 86.4 
L 648 86.4 
" style="fill: none; stroke: #000000; stroke-width: 2; stroke-linejoin: miter; stroke-linecap: square"/>
   </g>
   <g id="legend_1">
    <g id="patch_207">
     <path d="M 573.078125 165.055 
L 638.2 165.055 
Q 641 165.055 641 162.255 
L 641 96.2 
Q 641 93.4 638.2 93.4 
L 573.078125 93.4 
Q 570.278125 93.4 570.278125 96.2 
L 570.278125 162.255 
Q 570.278125 165.055 573.078125 165.055 
z
" style="fill: #ffffff; opacity: 0.8; stroke: #cccccc; stroke-linejoin: miter"/>
    </g>
    <g id="text_16">
     <!-- group -->
     <g transform="translate(576.6 114.196875) scale(0.2 -0.2)">
      <defs>
       <path id="DejaVuSans-67" d="M 2906 1791 
Q 2906 2416 2648 2759 
Q 2391 3103 1925 3103 
Q 1463 3103 1205 2759 
Q 947 2416 947 1791 
Q 947 1169 1205 825 
Q 1463 481 1925 481 
Q 2391 481 2648 825 
Q 2906 1169 2906 1791 
z
M 3481 434 
Q 3481 -459 3084 -895 
Q 2688 -1331 1869 -1331 
Q 1566 -1331 1297 -1286 
Q 1028 -1241 775 -1147 
L 775 -588 
Q 1028 -725 1275 -790 
Q 1522 -856 1778 -856 
Q 2344 -856 2625 -561 
Q 2906 -266 2906 331 
L 2906 616 
Q 2728 306 2450 153 
Q 2172 0 1784 0 
Q 1141 0 747 490 
Q 353 981 353 1791 
Q 353 2603 747 3093 
Q 1141 3584 1784 3584 
Q 2172 3584 2450 3431 
Q 2728 3278 2906 2969 
L 2906 3500 
L 3481 3500 
L 3481 434 
z
" transform="scale(0.015625)"/>
       <path id="DejaVuSans-70" d="M 1159 525 
L 1159 -1331 
L 581 -1331 
L 581 3500 
L 1159 3500 
L 1159 2969 
Q 1341 3281 1617 3432 
Q 1894 3584 2278 3584 
Q 2916 3584 3314 3078 
Q 3713 2572 3713 1747 
Q 3713 922 3314 415 
Q 2916 -91 2278 -91 
Q 1894 -91 1617 61 
Q 1341 213 1159 525 
z
M 3116 1747 
Q 3116 2381 2855 2742 
Q 2594 3103 2138 3103 
Q 1681 3103 1420 2742 
Q 1159 2381 1159 1747 
Q 1159 1113 1420 752 
Q 1681 391 2138 391 
Q 2594 391 2855 752 
Q 3116 1113 3116 1747 
z
" transform="scale(0.015625)"/>
      </defs>
      <use xlink:href="#DejaVuSans-67"/>
      <use xlink:href="#DejaVuSans-72" x="63.476562"/>
      <use xlink:href="#DejaVuSans-6f" x="102.339844"/>
      <use xlink:href="#DejaVuSans-75" x="163.521484"/>
      <use xlink:href="#DejaVuSans-70" x="226.900391"/>
     </g>
    </g>
    <g id="patch_208">
     <path d="M 575.878125 135.994062 
L 603.878125 135.994062 
L 603.878125 126.194062 
L 575.878125 126.194062 
z
" style="fill: #e41a1c; fill-opacity: 0.5; stroke: #000000; stroke-linejoin: miter"/>
    </g>
    <g id="text_17">
     <!-- nw -->
     <g transform="translate(615.078125 135.994062) scale(0.14 -0.14)">
      <defs>
       <path id="DejaVuSans-77" d="M 269 3500 
L 844 3500 
L 1563 769 
L 2278 3500 
L 2956 3500 
L 3675 769 
L 4391 3500 
L 4966 3500 
L 4050 0 
L 3372 0 
L 2619 2869 
L 1863 0 
L 1184 0 
L 269 3500 
z
" transform="scale(0.015625)"/>
      </defs>
      <use xlink:href="#DejaVuSans-6e"/>
      <use xlink:href="#DejaVuSans-77" x="63.378906"/>
     </g>
    </g>
    <g id="patch_209">
     <path d="M 575.878125 156.543437 
L 603.878125 156.543437 
L 603.878125 146.743437 
L 575.878125 146.743437 
z
" style="fill: #377eb8; fill-opacity: 0.5; stroke: #000000; stroke-linejoin: miter"/>
    </g>
    <g id="text_18">
     <!-- w -->
     <g transform="translate(615.078125 156.543437) scale(0.14 -0.14)">
      <use xlink:href="#DejaVuSans-77"/>
     </g>
    </g>
   </g>
  </g>
 </g>
 <defs>
  <clipPath id="p6ac7ad3e31">
   <rect x="90" y="86.4" width="558" height="554.4"/>
  </clipPath>
 </defs>
</svg>
