<?xml version="1.0" encoding="UTF-8" standalone="no"?>
<!-- Created with Inkscape (http://www.inkscape.org/) -->

<svg
   width="117.95312mm"
   height="79.921814mm"
   viewBox="0 0 117.95312 79.921814"
   version="1.1"
   id="svg30268"
   inkscape:version="1.1.2 (0a00cf5339, 2022-02-04)"
   sodipodi:docname="sample_graph_decomposed_print.svg"
   xmlns:inkscape="http://www.inkscape.org/namespaces/inkscape"
   xmlns:sodipodi="http://sodipodi.sourceforge.net/DTD/sodipodi-0.dtd"
   xmlns="http://www.w3.org/2000/svg"
   xmlns:svg="http://www.w3.org/2000/svg">
  <sodipodi:namedview
     id="namedview30270"
     pagecolor="#ffffff"
     bordercolor="#666666"
     borderopacity="1.0"
     inkscape:pageshadow="2"
     inkscape:pageopacity="0.0"
     inkscape:pagecheckerboard="0"
     inkscape:document-units="mm"
     showgrid="false"
     fit-margin-top="0"
     fit-margin-left="0"
     fit-margin-right="0"
     fit-margin-bottom="0"
     inkscape:zoom="1.6676267"
     inkscape:cx="232.9658"
     inkscape:cy="224.57064"
     inkscape:window-width="1920"
     inkscape:window-height="1016"
     inkscape:window-x="0"
     inkscape:window-y="0"
     inkscape:window-maximized="1"
     inkscape:current-layer="text4124-6" />
  <defs
     id="defs30265">
    <marker
       style="overflow:visible"
       id="marker25818-3"
       refX="0"
       refY="0"
       orient="auto"
       inkscape:stockid="Arrow1Lend"
       inkscape:isstock="true">
      <path
         transform="matrix(-0.8,0,0,-0.8,-10,0)"
         style="fill:context-stroke;fill-rule:evenodd;stroke:context-stroke;stroke-width:1pt"
         d="M 0,0 5,-5 -12.5,0 5,5 Z"
         id="path25816-6" />
    </marker>
    <marker
       style="overflow:visible"
       id="marker30339"
       refX="0"
       refY="0"
       orient="auto"
       inkscape:stockid="Arrow1Lend"
       inkscape:isstock="true">
      <path
         transform="matrix(-0.8,0,0,-0.8,-10,0)"
         style="fill:context-stroke;fill-rule:evenodd;stroke:context-stroke;stroke-width:1pt"
         d="M 0,0 5,-5 -12.5,0 5,5 Z"
         id="path30337" />
    </marker>
    <marker
       style="overflow:visible"
       id="marker30343"
       refX="0"
       refY="0"
       orient="auto"
       inkscape:stockid="Arrow1Lend"
       inkscape:isstock="true">
      <path
         transform="matrix(-0.8,0,0,-0.8,-10,0)"
         style="fill:context-stroke;fill-rule:evenodd;stroke:context-stroke;stroke-width:1pt"
         d="M 0,0 5,-5 -12.5,0 5,5 Z"
         id="path30341" />
    </marker>
    <marker
       style="overflow:visible"
       id="marker30347"
       refX="0"
       refY="0"
       orient="auto"
       inkscape:stockid="Arrow1Lend"
       inkscape:isstock="true">
      <path
         transform="matrix(-0.8,0,0,-0.8,-10,0)"
         style="fill:context-stroke;fill-rule:evenodd;stroke:context-stroke;stroke-width:1pt"
         d="M 0,0 5,-5 -12.5,0 5,5 Z"
         id="path30345" />
    </marker>
    <marker
       style="overflow:visible"
       id="marker25818-6"
       refX="0"
       refY="0"
       orient="auto"
       inkscape:stockid="Arrow1Lend"
       inkscape:isstock="true">
      <path
         transform="matrix(-0.8,0,0,-0.8,-10,0)"
         style="fill:context-stroke;fill-rule:evenodd;stroke:context-stroke;stroke-width:1pt"
         d="M 0,0 5,-5 -12.5,0 5,5 Z"
         id="path25816-2" />
    </marker>
    <marker
       style="overflow:visible"
       id="marker30353"
       refX="0"
       refY="0"
       orient="auto"
       inkscape:stockid="Arrow1Lend"
       inkscape:isstock="true">
      <path
         transform="matrix(-0.8,0,0,-0.8,-10,0)"
         style="fill:context-stroke;fill-rule:evenodd;stroke:context-stroke;stroke-width:1pt"
         d="M 0,0 5,-5 -12.5,0 5,5 Z"
         id="path30351" />
    </marker>
    <marker
       style="overflow:visible"
       id="marker25818-9"
       refX="0"
       refY="0"
       orient="auto"
       inkscape:stockid="Arrow1Lend"
       inkscape:isstock="true">
      <path
         transform="matrix(-0.8,0,0,-0.8,-10,0)"
         style="fill:context-stroke;fill-rule:evenodd;stroke:context-stroke;stroke-width:1pt"
         d="M 0,0 5,-5 -12.5,0 5,5 Z"
         id="path25816-1" />
    </marker>
    <marker
       style="overflow:visible"
       id="marker30359"
       refX="0"
       refY="0"
       orient="auto"
       inkscape:stockid="Arrow1Lend"
       inkscape:isstock="true">
      <path
         transform="matrix(-0.8,0,0,-0.8,-10,0)"
         style="fill:context-stroke;fill-rule:evenodd;stroke:context-stroke;stroke-width:1pt"
         d="M 0,0 5,-5 -12.5,0 5,5 Z"
         id="path30357" />
    </marker>
    <marker
       inkscape:isstock="true"
       style="overflow:visible"
       id="marker31431-0-7-2"
       refX="0"
       refY="0"
       orient="auto"
       inkscape:stockid="Arrow1Lend">
      <path
         inkscape:connector-curvature="0"
         transform="matrix(-0.8,0,0,-0.8,-10,0)"
         style="fill:#006680;fill-opacity:1;fill-rule:evenodd;stroke:#006680;stroke-width:1pt;stroke-opacity:1"
         d="M 0,0 5,-5 -12.5,0 5,5 Z"
         id="path31429-3-5-7" />
    </marker>
    <marker
       style="overflow:visible"
       id="marker9376-3-0"
       refX="0"
       refY="0"
       orient="auto"
       inkscape:stockid="Arrow1Lstart"
       inkscape:isstock="true">
      <path
         transform="matrix(0.8,0,0,0.8,10,0)"
         style="fill:context-stroke;fill-rule:evenodd;stroke:context-stroke;stroke-width:1pt"
         d="M 0,0 5,-5 -12.5,0 5,5 Z"
         id="path9374-5-9" />
    </marker>
  </defs>
  <g
     inkscape:label="Layer 1"
     inkscape:groupmode="layer"
     id="layer1"
     transform="translate(-61.038786,-117.27438)">
    <g
       id="g30077"
       transform="translate(103.58153,-194.51497)">
      <g
         id="g7934">
        <g
           id="g7822">
          <g
             aria-label="PTS1"
             id="text4112-2"
             style="font-size:10.5833px;font-family:Helvetica;-inkscape-font-specification:Helvetica;letter-spacing:0px;word-spacing:0px;stroke-width:0.264583">
            <path
               d="m -3.4336352,335.54768 h 1.6157233 c 0.4021669,0 0.7196671,-0.11995 0.99483395,-0.36689 0.31044464,-0.28223 0.44450029,-0.61384 0.44450029,-1.08656 0,-0.96661 -0.57150037,-1.50989 -1.58750104,-1.50989 h -2.1237236 v 5.1435 h 0.6561671 z m 0,-0.57856 v -1.80622 h 1.3687787 c 0.6279448,0 1.0018895,0.33866 1.0018895,0.90311 0,0.56444 -0.3739447,0.90311 -1.0018895,0.90311 z"
               id="path8030" />
            <path
               d="m 2.366025,333.1629 h 1.6862789 v -0.57856 H 0.01652347 v 0.57856 H 1.7098579 v 4.56494 H 2.366025 Z"
               id="path8032" />
            <path
               d="m 8.2080044,334.09423 c 0,-0.35278 -0.021167,-0.45156 -0.1340556,-0.69144 -0.2822224,-0.59267 -0.881945,-0.90312 -1.7497789,-0.90312 -1.1288897,0 -1.8273901,0.57856 -1.8273901,1.50989 0,0.62795 0.3316113,1.02306 1.0089451,1.19945 l 1.2770564,0.33867 c 0.6561671,0.16933 0.945445,0.43039 0.945445,0.83255 0,0.27517 -0.1481667,0.55739 -0.3668891,0.71261 -0.2046112,0.14817 -0.529167,0.21873 -0.9454451,0.21873 -0.5644448,0 -0.9383894,-0.13406 -1.1853341,-0.43039 -0.1905001,-0.22578 -0.2751668,-0.47273 -0.2681112,-0.79023 H 4.3415575 c 0.00706,0.47273 0.098778,0.78317 0.3033891,1.06539 0.352778,0.48684 0.945445,0.73378 1.7286122,0.73378 0.6138337,0 1.1147785,-0.14111 1.4463898,-0.39511 0.3457225,-0.27517 0.5644448,-0.73378 0.5644448,-1.17828 0,-0.635 -0.3951113,-1.10067 -1.0936118,-1.29117 l -1.2911675,-0.34572 c -0.6208893,-0.16933 -0.8466672,-0.36689 -0.8466672,-0.762 0,-0.52211 0.4586114,-0.86783 1.1500563,-0.86783 0.818445,0 1.2770564,0.36689 1.2841119,1.04422 z"
               id="path8034" />
            <path
               d="m 10.536338,334.09423 v 3.63361 h 0.620889 v -5.10117 h -0.409222 c -0.218722,0.78317 -0.359834,0.889 -1.3193897,1.016 v 0.45156 z"
               id="path8036" />
          </g>
          <g
             aria-label="PTS2"
             id="text4116-1"
             style="font-size:10.5833px;font-family:Helvetica;-inkscape-font-specification:Helvetica;letter-spacing:0px;word-spacing:0px;stroke-width:0.264583">
            <path
               d="m -4.1744647,316.54649 h 1.6157233 c 0.4021669,0 0.7196671,-0.11995 0.994834,-0.36689 0.3104446,-0.28223 0.4445003,-0.61384 0.4445003,-1.08656 0,-0.96661 -0.5715004,-1.50989 -1.5875011,-1.50989 h -2.1237236 v 5.1435 h 0.6561671 z m 0,-0.57856 v -1.80622 h 1.3687787 c 0.6279449,0 1.0018895,0.33866 1.0018895,0.90311 0,0.56444 -0.3739446,0.90311 -1.0018895,0.90311 z"
               id="path8047" />
            <path
               d="m 1.6251955,314.16171 h 1.6862789 v -0.57856 H -0.724306 v 0.57856 h 1.69333443 v 4.56494 H 1.6251955 Z"
               id="path8049" />
            <path
               d="m 7.4671749,315.09304 c 0,-0.35278 -0.021167,-0.45156 -0.1340556,-0.69144 -0.2822224,-0.59267 -0.881945,-0.90312 -1.7497789,-0.90312 -1.1288896,0 -1.8273901,0.57856 -1.8273901,1.50989 0,0.62795 0.3316114,1.02306 1.0089451,1.19945 l 1.2770564,0.33867 c 0.6561671,0.16933 0.9454451,0.43039 0.9454451,0.83255 0,0.27517 -0.1481668,0.55739 -0.3668892,0.71261 -0.2046112,0.14817 -0.529167,0.21873 -0.945445,0.21873 -0.5644448,0 -0.9383895,-0.13406 -1.1853341,-0.43039 -0.1905001,-0.22578 -0.2751669,-0.47273 -0.2681113,-0.79023 H 3.600728 c 0.00706,0.47273 0.098778,0.78317 0.3033891,1.06539 0.352778,0.48684 0.945445,0.73378 1.7286122,0.73378 0.6138337,0 1.1147785,-0.14111 1.4463898,-0.39511 0.3457225,-0.27517 0.5644448,-0.73378 0.5644448,-1.17828 0,-0.635 -0.3951113,-1.10067 -1.0936118,-1.29117 l -1.2911675,-0.34572 c -0.6208893,-0.16933 -0.8466672,-0.36689 -0.8466672,-0.762 0,-0.52211 0.4586114,-0.86783 1.1500563,-0.86783 0.818445,0 1.2770564,0.36689 1.284112,1.04422 z"
               id="path8051" />
            <path
               d="M 11.538232,318.11282 H 8.9065082 c 0.0635,-0.42333 0.2892779,-0.69144 0.9031117,-1.06539 l 0.7055561,-0.39511 c 0.6985,-0.38806 1.058334,-0.91017 1.058334,-1.53811 0,-0.42334 -0.169334,-0.81845 -0.465667,-1.09361 -0.296334,-0.26812 -0.663223,-0.39512 -1.1359453,-0.39512 -0.6350004,0 -1.1077229,0.22578 -1.3828897,0.66323 -0.176389,0.26811 -0.2540002,0.58561 -0.2681113,1.10066 H 8.941786 c 0.021167,-0.34572 0.0635,-0.55033 0.1481667,-0.71966 0.1622779,-0.31045 0.4868337,-0.50095 0.8607784,-0.50095 0.5644449,0 0.9877779,0.40922 0.9877779,0.95956 0,0.40922 -0.232833,0.762 -0.677333,1.016 l -0.6491118,0.381 c -1.0442229,0.59972 -1.347612,1.0795 -1.4040565,2.19428 h 3.3302243 z"
               id="path8053" />
          </g>
          <g
             id="path37199-3">
            <path
               style="color:#000000;fill:#555555;stroke-dasharray:0.529167, 0.264583;-inkscape-stroke:none"
               d="m -12.814453,322.22266 -0.529297,0.002 v 0.26562 l 0.529297,-0.002 z m 0.265625,0.002 -0.002,0.26367 0.529297,0.004 0.002,-0.26367 z m -1.060547,0.002 -0.529297,0.008 0.0039,0.26368 0.529297,-0.008 z m 1.855469,0.006 -0.0039,0.26367 0.529297,0.01 0.0039,-0.26563 z m -2.69336,0.006 -0.486328,0.0117 0.0059,0.26562 0.484375,-0.0137 h 0.04297 l -0.0039,-0.26367 z m 3.488282,0.01 -0.0078,0.26367 0.529297,0.0156 0.0078,-0.26562 z m -4.240235,0.008 -0.115234,0.004 -0.414063,0.0137 0.0098,0.26562 0.412109,-0.0156 0.115235,-0.002 z m 5.035156,0.0156 -0.0098,0.26368 0.5292967,0.0215 0.00977,-0.26562 z m -5.828125,0.0117 -0.203124,0.008 -0.328125,0.0156 0.01172,0.26367 0.328125,-0.0156 0.199219,-0.006 z m 6.6230474,0.0195 -0.013672,0.26563 0.5292969,0.0254 0.013672,-0.26367 z m -7.4179684,0.0156 -0.300782,0.0137 -0.228515,0.0137 0.01367,0.26367 0.228515,-0.0137 0.298828,-0.0137 z m 8.2128902,0.0254 -0.017578,0.26367 0.5292969,0.0332 0.015625,-0.26562 z m -9.0078122,0.0156 -0.410156,0.0234 -0.119141,0.008 0.01758,0.26563 0.117188,-0.008 0.410156,-0.0234 z m 9.800781,0.0332 -0.019531,0.26367 0.5292968,0.0371 0.017578,-0.26367 z m -10.59375,0.0176 -0.527344,0.0351 0.01758,0.26367 0.527344,-0.0351 z m 11.3867188,0.041 -0.021484,0.26367 0.5273437,0.043 0.021484,-0.26562 z m -12.1796878,0.0137 -0.527343,0.041 0.01953,0.26367 0.527344,-0.041 z m 12.9726565,0.0508 -0.025391,0.26368 0.5273437,0.0488 0.023437,-0.26367 z m -13.7656245,0.0117 -0.527344,0.0469 0.02344,0.26367 0.527344,-0.0469 z m 14.5566401,0.0625 -0.027344,0.26368 0.5273437,0.0527 0.025391,-0.26367 z m -15.3476561,0.008 -0.03906,0.004 -0.488281,0.0469 0.02539,0.26367 0.486328,-0.0469 0.03906,-0.004 z m 16.1386718,0.0742 -0.029297,0.26368 0.4960937,0.0547 0.027344,0.004 0.033203,-0.26367 -0.029297,-0.004 z m -16.9296878,0.004 -0.210937,0.0195 -0.316406,0.0352 0.02734,0.26172 0.316407,-0.0332 0.208984,-0.0215 z m -0.791015,0.082 -0.396485,0.043 -0.130859,0.0156 0.03125,0.26367 0.128906,-0.0156 0.396485,-0.043 z m 18.5097652,0.004 -0.03125,0.26367 0.4433594,0.0527 0.080078,0.01 0.035156,-0.26172 -0.082031,-0.01 z m -19.2988282,0.0859 -0.52539,0.0625 0.03125,0.26171 0.52539,-0.0605 z m 20.0878907,0.0137 -0.033203,0.26172 0.3828125,0.0488 0.140625,0.0195 0.035156,-0.26172 -0.140625,-0.0195 z m -20.8769527,0.082 -0.525391,0.0664 0.0332,0.26367 0.525391,-0.0684 z m 21.6640621,0.0234 -0.035156,0.26172 0.3203125,0.043 0.203125,0.0312 0.037109,-0.26171 -0.203125,-0.0312 z m -22.4511721,0.0781 -0.0332,0.004 -0.49414,0.0684 0.03711,0.26172 0.492187,-0.0684 0.03125,-0.004 z m 23.2382815,0.0352 -0.037109,0.26172 0.25,0.0352 0.2714844,0.043 0.0410156,-0.26172 -0.27148432,-0.041 z m -24.0273435,0.0723 -0.269531,0.0371 -0.25586,0.0371 0.03906,0.26172 0.255859,-0.0371 0.267578,-0.0371 z m 24.81445288,0.0469 -0.0410156,0.26172 0.17773438,0.0273 0.34375,0.0566 0.0429687,-0.26172 -0.34375001,-0.0566 z m -25.60156288,0.0664 -0.523437,0.0781 0.03906,0.26172 0.523438,-0.0781 z m 26.384766,0.0605 -0.04296875,0.26172 0.10351562,0.0176 0.0429688,-0.26172 z"
               id="path8076" />
            <g
               id="g8066">
              <g
                 id="path8068">
                <path
                   style="color:#000000;fill:#555555;fill-rule:evenodd;stroke-width:0.211666pt;-inkscape-stroke:none"
                   d="m -2.4178292,323.03556 -1.2191037,0.86828 3.8283399,-0.42976 -3.4775215,-1.65763 z"
                   id="path8072" />
                <path
                   style="color:#000000;fill:#555555;fill-rule:evenodd;-inkscape-stroke:none"
                   d="m -3.7167969,321.45508 1.1015625,1.54687 -1.546875,1.10352 4.85937502,-0.54688 z m 0.8613281,0.72265 2.54101567,1.21094 -2.79687497,0.31445 0.890625,-0.63476 -0.082031,-0.11524 z"
                   id="path8074" />
              </g>
            </g>
          </g>
          <g
             id="path37199-3-6">
            <path
               style="color:#000000;fill:#555555;stroke-dasharray:0.529167, 0.264583;-inkscape-stroke:none"
               d="m -26.765625,342.44727 -0.02734,0.26367 0.527344,0.0527 0.02734,-0.26367 z m 26.93359375,0.002 -0.078125,0.0137 0.046875,0.25977 0.078125,-0.0137 z m -0.33789062,0.0586 -0.0839844,0.0156 -0.421875,0.0723 -0.0136719,0.002 0.0429687,0.26171 0.0136719,-0.002 0.42382812,-0.0723 0.0859375,-0.0156 z m -25.80664013,0.0195 -0.02539,0.26172 0.525391,0.0547 0.02734,-0.26367 z m 0.791015,0.0781 -0.02734,0.26367 0.103516,0.0117 0.423828,0.0391 0.02539,-0.26172 -0.421875,-0.041 z m 24.23437512,0.0351 -0.14648432,0.0234 -0.375,0.0586 0.041016,0.26171 0.3769531,-0.0586 0.14648437,-0.0234 z m -23.44531212,0.043 -0.02539,0.26172 0.527344,0.0508 0.02539,-0.26172 z m 0.789062,0.0762 -0.02539,0.26171 0.207031,0.0215 0.322265,0.0293 0.02344,-0.26368 -0.320313,-0.0293 z m 21.8750001,0.002 -0.2070312,0.0312 -0.3164063,0.043 0.037109,0.26172 0.3164063,-0.043 0.2089843,-0.0312 z m -21.0839841,0.0703 -0.02539,0.26367 0.257813,0.0234 0.271484,0.0234 0.02148,-0.26367 -0.269531,-0.0234 z m 20.2988279,0.0391 -0.265625,0.0352 -0.2578125,0.0332 0.033203,0.26172 0.2578125,-0.0312 0.2675781,-0.0371 z m -19.5097659,0.0312 -0.02344,0.26368 0.310547,0.0273 0.21875,0.0195 0.02148,-0.26367 -0.21875,-0.0195 z m 0.791016,0.0684 -0.02148,0.26367 0.359375,0.0293 0.167968,0.0137 0.02148,-0.26367 L -20.876953,343 Z m 17.9335936,0 -0.3222656,0.0371 -0.203125,0.0234 0.029297,0.26172 0.203125,-0.0215 0.3242187,-0.0371 z m -17.1425776,0.0645 -0.02148,0.26367 0.410156,0.0332 0.119141,0.008 0.01953,-0.26367 -0.11914,-0.01 z m 16.3554683,0.0234 -0.3789063,0.0391 -0.1464844,0.0156 0.025391,0.26367 0.1484375,-0.0156 0.3789062,-0.0391 z m -15.5644533,0.0371 -0.01953,0.26367 0.458984,0.0332 0.06836,0.006 0.01758,-0.26367 -0.06641,-0.006 z m 14.7656251,0.043 -0.421875,0.0371 -0.09375,0.008 0.021484,0.26368 0.095703,-0.008 0.421875,-0.0371 0.011719,-0.002 -0.025391,-0.26172 z m -13.9746091,0.0137 -0.01953,0.26368 0.511718,0.0351 0.01758,0.002 0.01563,-0.26562 h -0.01563 z m 0.791015,0.0527 -0.01758,0.26367 0.529297,0.0332 0.01563,-0.26367 z m 12.4042973,0.002 -0.0625,0.004 -0.421875,0.0332 -0.041016,0.002 0.017578,0.26368 0.042969,-0.002 0.421875,-0.0332 0.064453,-0.004 z m -11.6132813,0.0449 -0.01563,0.26563 0.529297,0.0293 0.01367,-0.26562 z m 10.8242188,0.0137 -0.1171875,0.008 -0.4101563,0.0254 0.017578,0.26367 0.4101563,-0.0254 0.1171875,-0.008 z m -10.0332028,0.0293 -0.01172,0.26563 0.527344,0.0254 0.01367,-0.26563 z m 9.2421871,0.0195 -0.1679687,0.01 -0.359375,0.0176 0.013672,0.26367 0.3613281,-0.0176 0.1679687,-0.01 z m -8.4492191,0.0195 -0.01172,0.26368 0.529296,0.0215 0.0098,-0.26367 z m 7.6582035,0.0195 -0.21875,0.01 -0.3085938,0.0117 0.00977,0.26367 0.3105468,-0.01 0.21875,-0.01 z m -6.8671875,0.0117 -0.0078,0.26368 0.527344,0.0176 0.0098,-0.26367 z m 6.0761719,0.0195 -0.2695313,0.01 -0.2578125,0.006 0.00586,0.26367 0.2597656,-0.006 0.2695313,-0.01 z m -5.2832029,0.006 -0.0078,0.26563 0.529297,0.0117 0.0078,-0.26367 z m 4.4902341,0.0156 -0.3183594,0.008 -0.2089847,0.004 0.0039,0.26367 0.2109371,-0.002 0.3183594,-0.008 z m -3.6972661,0.004 -0.0059,0.26562 h 0.01367 l 0.515625,0.008 0.0039,-0.26367 -0.513672,-0.01 z m 2.90625,0.0117 -0.36914,0.004 -0.160156,0.002 0.002,0.26368 h 0.162109 l 0.367188,-0.006 z m -2.113281,0.002 -0.0039,0.26367 0.0625,0.002 0.466797,0.002 0.002,-0.26368 -0.464844,-0.004 z m 1.320313,0.004 -0.417969,0.002 h -0.109375 l -0.002,0.26367 h 0.111328 0.417969 z"
               id="path8090" />
            <g
               id="g8080">
              <g
                 id="path8082">
                <path
                   style="color:#000000;fill:#555555;fill-rule:evenodd;stroke-width:0.211666pt;-inkscape-stroke:none"
                   d="m -2.4111259,343.05519 -0.850335,1.23169 3.4528679,-1.70839 -3.8342242,-0.37364 z"
                   id="path8086" />
                <path
                   style="color:#000000;fill:#555555;fill-rule:evenodd;-inkscape-stroke:none"
                   d="m -4.171875,342.01172 1.5644531,1.08008 -1.0800781,1.5625 4.38476562,-2.16797 z m 1.0585937,0.38672 2.79882817,0.27148 -2.51953127,1.24805 0.6191406,-0.89844 -0.1152343,-0.0801 z"
                   id="path8088" />
              </g>
            </g>
          </g>
          <g
             id="path12244">
            <path
               style="color:#000000;fill:#555555;stroke-dasharray:0.529167, 0.264583;-inkscape-stroke:none"
               d="m 0.11523437,323.36523 -0.4140625,0.29493 0.15234376,0.21484 0.4140625,-0.29297 z m -0.63085937,0.44727 -0.43164063,0.30469 0.15429688,0.21679 0.43164062,-0.30664 z m -0.6464844,0.45898 -0.4316406,0.30469 0.1523438,0.2168 0.4316406,-0.30664 z m -0.6484375,0.45899 -0.4316406,0.30469 0.1523437,0.21679 0.4316407,-0.30664 z m -0.6484375,0.45898 -0.4316406,0.30469 0.1542969,0.2168 0.4316406,-0.30664 z m -0.6464844,0.45899 -0.4316406,0.30468 0.1523438,0.2168 0.4316406,-0.30664 z m -0.6484375,0.45703 -0.4316406,0.30664 0.1523438,0.2168 0.4335937,-0.30664 z m -0.6464843,0.45898 -0.4316406,0.30664 0.1523437,0.21485 0.4316406,-0.30469 z m -0.6484375,0.45899 -0.4316406,0.30664 0.1523437,0.21484 0.4316406,-0.30469 z m -0.6484375,0.45898 -0.4316406,0.30664 0.1542968,0.21485 0.4316407,-0.30469 z m -0.6464844,0.45899 -0.4316406,0.30664 0.1523437,0.21484 0.4316407,-0.30469 z m -0.6484375,0.45898 -0.4316406,0.30664 0.1523437,0.21484 0.4316407,-0.30468 z m -0.6484375,0.45898 -0.4316406,0.30665 0.1542969,0.21484 0.4316406,-0.30664 z m -0.6464844,0.45899 -0.4316406,0.30469 0.1523437,0.21679 0.4316407,-0.30664 z m -0.6484375,0.45898 -0.4316406,0.30469 0.1523437,0.2168 0.4335938,-0.30664 z m -0.6464844,0.45899 -0.4335937,0.30469 0.1542969,0.21679 0.4316406,-0.30664 z m -0.6484377,0.45898 -0.43164,0.30469 0.152343,0.2168 0.431641,-0.30664 z m -0.648437,0.45703 -0.431641,0.30664 0.154297,0.2168 0.431641,-0.30664 z m -0.646485,0.45899 -0.43164,0.30664 0.152343,0.2168 0.431641,-0.30665 z m -0.648437,0.45898 -0.431641,0.30664 0.152344,0.21485 0.431641,-0.30469 z m -0.648438,0.45899 -0.43164,0.30664 0.154297,0.21484 0.43164,-0.30469 z m -0.646484,0.45898 -0.431641,0.30664 0.152344,0.21485 0.431641,-0.30469 z m -0.648438,0.45899 -0.43164,0.30664 0.152344,0.21484 0.43164,-0.30469 z m -0.646484,0.45898 -0.433594,0.30664 0.154297,0.21484 0.431641,-0.30664 z m -0.648437,0.45898 -0.431641,0.30469 0.152344,0.2168 0.43164,-0.30664 z m -0.648438,0.45899 -0.43164,0.30469 0.152343,0.21679 0.433594,-0.30664 z m -0.646484,0.45898 -0.431641,0.30469 0.152344,0.2168 0.431641,-0.30664 z m -0.648438,0.45899 -0.43164,0.30468 0.152343,0.2168 0.431641,-0.30664 z m -0.648437,0.45703 -0.431641,0.30664 0.154297,0.2168 0.431641,-0.30664 z m -0.646485,0.45898 -0.43164,0.30664 0.152344,0.2168 0.43164,-0.30664 z m -0.648437,0.45899 -0.431641,0.30664 0.152344,0.21484 0.431641,-0.30469 z m -0.646484,0.45898 -0.433594,0.30664 0.154297,0.21485 0.43164,-0.30469 z m -0.648438,0.45899 -0.431641,0.30664 0.152344,0.21484 0.431641,-0.30469 z m -0.648437,0.45898 -0.431641,0.30664 0.152344,0.21484 0.433593,-0.30468 z m -0.646485,0.45898 -0.43164,0.30665 0.152343,0.21484 0.431641,-0.30664 z m -0.648437,0.45899 -0.431641,0.30469 0.152344,0.21679 0.43164,-0.30664 z m -0.648438,0.45898 -0.43164,0.30469 0.154296,0.2168 0.431641,-0.30664 z m -0.646484,0.45899 -0.431641,0.30469 0.152344,0.21679 0.431641,-0.30664 z m -0.648438,0.45898 -0.43164,0.30469 0.152343,0.2168 0.431641,-0.30664 z m -0.648437,0.45703 -0.431641,0.30664 0.154297,0.2168 0.431641,-0.30664 z m -0.646485,0.45899 -0.43164,0.30664 0.152344,0.2168 0.43164,-0.30665 z m -0.648437,0.45898 -0.431641,0.30664 0.152344,0.21485 0.433594,-0.30469 z"
               id="path8104" />
            <g
               id="g8094">
              <g
                 id="path8096">
                <path
                   style="color:#000000;fill:#555555;fill-rule:evenodd;stroke-width:0.211666pt;-inkscape-stroke:none"
                   d="m -1.9676346,325.00344 -0.2518709,1.47537 2.4109125,-3.00473 -3.634404,1.27749 z"
                   id="path8100" />
                <path
                   style="color:#000000;fill:#555555;fill-rule:evenodd;-inkscape-stroke:none"
                   d="m 0.61132812,323.17773 -4.61523432,1.6211 1.8730468,0.32031 -0.3203125,1.87305 z m -0.83789062,0.59375 -1.7617187,2.19336 0.1835937,-1.07617 -0.1386719,-0.0234 -0.9414062,-0.16015 z"
                   id="path8102" />
              </g>
            </g>
          </g>
          <g
             id="path12736">
            <path
               style="color:#000000;fill:#555555;stroke-dasharray:0.529167, 0.264583;-inkscape-stroke:none"
               d="m -26.703125,323.36523 -0.152344,0.2168 0.431641,0.30664 0.154297,-0.2168 z m 0.648438,0.45899 -0.152344,0.2168 0.43164,0.30664 0.152344,-0.2168 z m 0.648437,0.45898 -0.154297,0.2168 0.431641,0.30469 0.154297,-0.21485 z m 0.646484,0.45899 -0.152343,0.21679 0.43164,0.30469 0.152344,-0.21484 z m 0.648438,0.45898 -0.152344,0.2168 0.431641,0.30469 0.152344,-0.21485 z m 0.648437,0.45899 -0.154296,0.21679 0.43164,0.30469 0.154297,-0.21484 z m 0.646485,0.45898 -0.152344,0.21484 0.431641,0.30664 0.152343,-0.21484 z m 0.648437,0.45898 -0.152343,0.21485 0.43164,0.30664 0.152344,-0.2168 z m 0.646485,0.45899 -0.152344,0.21484 0.431641,0.30664 0.154296,-0.21679 z m 0.648437,0.45898 -0.152344,0.21485 0.431641,0.30664 0.152344,-0.2168 z m 0.648438,0.45899 -0.154297,0.21484 0.433594,0.30664 0.152343,-0.21679 z m 0.646484,0.45703 -0.152344,0.2168 0.431641,0.30664 0.152344,-0.2168 z m 0.648438,0.45898 -0.152344,0.2168 0.43164,0.30664 0.152344,-0.2168 z m 0.648437,0.45899 -0.154297,0.21679 0.431641,0.30469 0.154297,-0.21484 z m 0.646484,0.45898 -0.152343,0.2168 0.43164,0.30469 0.152344,-0.21485 z m 0.648438,0.45899 -0.152344,0.21679 0.431641,0.30469 0.152344,-0.21484 z m 0.646484,0.45898 -0.152343,0.2168 0.43164,0.30469 0.154297,-0.21485 z m 0.648438,0.45899 -0.152344,0.21484 0.431641,0.30664 0.152343,-0.21484 z m 0.648437,0.45898 -0.154297,0.21484 0.433594,0.30664 0.152344,-0.21679 z m 0.646485,0.45898 -0.152344,0.21485 0.43164,0.30664 0.152344,-0.2168 z m 0.648437,0.45899 -0.152344,0.21484 0.431641,0.30664 0.152344,-0.21679 z m 0.648438,0.45898 -0.154297,0.21485 0.43164,0.30664 0.154297,-0.2168 z m 0.646484,0.45703 -0.152344,0.2168 0.431641,0.30664 0.152344,-0.2168 z m 0.648437,0.45899 -0.152343,0.2168 0.43164,0.30664 0.152344,-0.2168 z m 0.648438,0.45898 -0.154297,0.2168 0.431641,0.30469 0.154297,-0.21485 z m 0.646484,0.45899 -0.152343,0.21679 0.43164,0.30469 0.152344,-0.21484 z m 0.6484379,0.45898 -0.1542969,0.2168 0.4335937,0.30469 0.1523438,-0.21485 z m 0.6464843,0.45899 -0.1523437,0.21679 0.4316406,0.30469 0.1542969,-0.21484 z m 0.6484375,0.45898 -0.1523437,0.21484 0.4316406,0.30664 0.1523438,-0.21484 z m 0.6484376,0.45898 -0.1542969,0.21485 0.4316406,0.30664 0.1542969,-0.2168 z m 0.6464843,0.45899 -0.1523437,0.21484 0.4316406,0.30664 0.1523438,-0.21679 z m 0.6484375,0.45898 -0.1523437,0.21485 0.4316406,0.30664 0.1523438,-0.2168 z m 0.6484375,0.45899 -0.1542968,0.21484 0.4316406,0.30664 0.1542969,-0.21679 z m 0.6464844,0.45898 -0.1523437,0.21485 0.4316406,0.30664 0.1523437,-0.2168 z m 0.6484375,0.45703 -0.1523437,0.2168 0.4316406,0.30664 0.1523437,-0.2168 z m 0.6464844,0.45899 -0.1523438,0.21679 0.4316406,0.30469 0.1542969,-0.21484 z m 0.6484375,0.45898 -0.1523438,0.2168 0.4316406,0.30469 0.1523438,-0.21485 z m 0.6484375,0.45899 -0.1542969,0.21679 0.4316406,0.30469 0.1542969,-0.21484 z m 0.6464843,0.45898 -0.1523437,0.2168 0.4316406,0.30469 0.1523438,-0.21485 z m 0.6484376,0.45899 -0.1523438,0.21679 0.4316406,0.30469 0.1523438,-0.21484 z m 0.64843745,0.45898 -0.15429688,0.21484 0.43164063,0.30664 0.15429687,-0.21679 z m 0.64648438,0.45898 -0.15234376,0.21485 0.4140625,0.29297 0.15234376,-0.21485 z"
               id="path8118" />
            <g
               id="g8108">
              <g
                 id="path8110">
                <path
                   style="color:#000000;fill:#555555;fill-rule:evenodd;stroke-width:0.211666pt;-inkscape-stroke:none"
                   d="m -1.9676346,341.04913 -1.4753624,0.25187 3.634404,1.27749 -2.4109125,-3.00473 z"
                   id="path8114" />
                <path
                   style="color:#000000;fill:#555555;fill-rule:evenodd;-inkscape-stroke:none"
                   d="m -2.4511719,339.06055 0.3203125,1.87304 -1.8730468,0.32032 4.61523432,1.62109 z m 0.4628907,1.02734 1.7617187,2.19336 -2.6582031,-0.93359 1.0800781,-0.1836 -0.023437,-0.13867 z"
                   id="path8116" />
              </g>
            </g>
          </g>
          <g
             aria-label="RC1"
             id="text4124-6"
             style="font-size:10.5833px;font-family:Helvetica;-inkscape-font-specification:Helvetica;letter-spacing:0px;word-spacing:0px;stroke-width:0.264583">
            <path
               d="m -31.403669,316.49357 h 1.693334 c 0.585612,0 0.846667,0.28222 0.846667,0.91722 l -0.0071,0.45861 c 0,0.3175 0.05644,0.62795 0.148167,0.83961 h 0.797278 v -0.16227 c -0.246945,-0.16934 -0.296334,-0.35278 -0.310445,-1.03717 -0.0071,-0.84667 -0.141111,-1.10067 -0.6985,-1.34056 0.578556,-0.28927 0.811389,-0.635 0.811389,-1.22766 0,-0.889 -0.550333,-1.37584 -1.566334,-1.37584 h -2.370668 v 5.1435 h 0.656167 z m 0,-0.57856 v -1.77094 h 1.587501 c 0.366889,0 0.578556,0.0564 0.740834,0.19755 0.176389,0.14817 0.268111,0.381 0.268111,0.68439 0,0.61384 -0.310445,0.889 -1.008945,0.889 z"
               id="path8120" />
            <path
               d="m -23.071067,315.16007 c -0.204611,-1.12889 -0.853722,-1.67923 -1.982612,-1.67923 -0.691445,0 -1.248834,0.21873 -1.629834,0.64206 -0.465667,0.508 -0.719668,1.24178 -0.719668,2.07434 0,0.84666 0.261056,1.57339 0.740834,2.07433 0.402167,0.40922 0.910167,0.59972 1.580446,0.59972 1.255889,0 1.961445,-0.67733 2.116668,-2.03905 h -0.677334 c -0.05645,0.35277 -0.127,0.59266 -0.232834,0.79727 -0.211666,0.42334 -0.649111,0.66323 -1.199445,0.66323 -1.023056,0 -1.672168,-0.81845 -1.672168,-2.10256 0,-1.31939 0.613834,-2.13078 1.615724,-2.13078 0.416278,0 0.804334,0.11995 1.016,0.32456 0.190501,0.17639 0.296334,0.38805 0.373945,0.77611 z"
               id="path8122" />
            <path
               d="m -20.820355,315.0754 v 3.63361 h 0.620889 v -5.10117 h -0.409222 c -0.218723,0.78317 -0.359834,0.88901 -1.31939,1.01601 v 0.45155 z"
               id="path8124" />
          </g>
          <g
             aria-label="RC2"
             id="text4132-5"
             style="font-size:10.5833px;font-family:Helvetica;-inkscape-font-specification:Helvetica;letter-spacing:0px;word-spacing:0px;stroke-width:0.264583">
            <path
               d="m -32.144499,335.5124 h 1.693335 c 0.585611,0 0.846667,0.28222 0.846667,0.91722 l -0.0071,0.45861 c 0,0.3175 0.05645,0.62795 0.148167,0.83961 h 0.797278 v -0.16227 c -0.246944,-0.16934 -0.296333,-0.35278 -0.310444,-1.03717 -0.0071,-0.84667 -0.141111,-1.10067 -0.698501,-1.34056 0.578556,-0.28928 0.81139,-0.635 0.81139,-1.22766 0,-0.88901 -0.550334,-1.37584 -1.566335,-1.37584 h -2.370668 v 5.1435 h 0.656167 z m 0,-0.57856 v -1.77094 h 1.587501 c 0.366889,0 0.578556,0.0564 0.740834,0.19755 0.176389,0.14817 0.268111,0.381 0.268111,0.68439 0,0.61384 -0.310444,0.889 -1.008945,0.889 z"
               id="path8133" />
            <path
               d="m -23.811896,334.1789 c -0.204611,-1.12889 -0.853723,-1.67923 -1.982613,-1.67923 -0.691444,0 -1.248834,0.21873 -1.629834,0.64206 -0.465667,0.508 -0.719667,1.24178 -0.719667,2.07433 0,0.84667 0.261056,1.57339 0.740834,2.07434 0.402167,0.40922 0.910167,0.59972 1.580445,0.59972 1.25589,0 1.961446,-0.67733 2.116668,-2.03905 h -0.677334 c -0.05644,0.35277 -0.127,0.59266 -0.232833,0.79727 -0.211667,0.42334 -0.649112,0.66323 -1.199445,0.66323 -1.023056,0 -1.672168,-0.81845 -1.672168,-2.10256 0,-1.31939 0.613834,-2.13078 1.615723,-2.13078 0.416278,0 0.804334,0.11994 1.016001,0.32456 0.1905,0.17638 0.296333,0.38805 0.373945,0.77611 z"
               id="path8135" />
            <path
               d="m -19.818461,337.11401 h -2.631724 c 0.0635,-0.42333 0.289278,-0.69144 0.903112,-1.06539 l 0.705556,-0.39511 c 0.6985,-0.38806 1.058334,-0.91017 1.058334,-1.53811 0,-0.42334 -0.169334,-0.81845 -0.465667,-1.09361 -0.296334,-0.26812 -0.663223,-0.39512 -1.135946,-0.39512 -0.635,0 -1.107722,0.22578 -1.382889,0.66323 -0.176389,0.26811 -0.254,0.58561 -0.268112,1.10066 h 0.62089 c 0.02117,-0.34572 0.0635,-0.55033 0.148166,-0.71966 0.162278,-0.31045 0.486834,-0.50095 0.860779,-0.50095 0.564445,0 0.987778,0.40922 0.987778,0.95956 0,0.40922 -0.232833,0.762 -0.677334,1.016 l -0.649111,0.381 c -1.044223,0.59972 -1.347612,1.0795 -1.404057,2.19428 h 3.330225 z"
               id="path8137" />
          </g>
          <g
             id="circle850-6">
            <path
               style="color:#000000;fill:#005293;stroke-width:0.396875;-inkscape-stroke:none"
               d="m 5.9023778,323.47427 a 2.8554811,2.8554811 0 0 1 -2.8554811,2.85548 2.8554811,2.8554811 0 0 1 -2.85548115,-2.85548 2.8554811,2.8554811 0 0 1 2.85548115,-2.85548 2.8554811,2.8554811 0 0 1 2.8554811,2.85548 z"
               id="path8148" />
            <path
               style="color:#000000;fill:#000000;-inkscape-stroke:none"
               d="m 3.046875,320.41992 c -1.6842806,0 -3.0546875,1.37041 -3.0546875,3.05469 0,1.68428 1.3704069,3.05273 3.0546875,3.05273 1.6842806,0 3.0546875,-1.36845 3.0546875,-3.05273 0,-1.68428 -1.3704069,-3.05469 -3.0546875,-3.05469 z m 0,0.39649 c 1.4697936,0 2.65625,1.18841 2.65625,2.6582 0,1.46979 -1.1864564,2.65625 -2.65625,2.65625 -1.4697936,0 -2.65625,-1.18646 -2.65625,-2.65625 0,-1.46979 1.1864564,-2.6582 2.65625,-2.6582 z"
               id="path8150" />
          </g>
          <g
             id="circle848-7">
            <path
               style="color:#000000;fill:#005293;stroke-width:0.396875;-inkscape-stroke:none"
               d="m 5.9023778,342.57867 a 2.8554811,2.8554811 0 0 1 -2.8554811,2.85549 2.8554811,2.8554811 0 0 1 -2.85548115,-2.85549 2.8554811,2.8554811 0 0 1 2.85548115,-2.85548 2.8554811,2.8554811 0 0 1 2.8554811,2.85548 z"
               id="path8154" />
            <path
               style="color:#000000;fill:#000000;-inkscape-stroke:none"
               d="m 3.046875,339.52539 c -1.6842806,0 -3.0546875,1.36845 -3.0546875,3.05273 0,1.68429 1.3704069,3.05469 3.0546875,3.05469 1.6842806,0 3.0546875,-1.3704 3.0546875,-3.05469 0,-1.68428 -1.3704069,-3.05273 -3.0546875,-3.05273 z m 0,0.39648 c 1.4697936,0 2.65625,1.18646 2.65625,2.65625 0,1.4698 -1.1864564,2.65821 -2.65625,2.65821 -1.4697936,0 -2.65625,-1.18841 -2.65625,-2.65821 0,-1.46979 1.1864564,-2.65625 2.65625,-2.65625 z"
               id="path8156" />
          </g>
          <g
             id="path836-3">
            <path
               style="color:#000000;fill:#ce1126;stroke-width:0.396875;-inkscape-stroke:none"
               d="m -23.923284,323.47427 a 2.8554811,2.8554811 0 0 1 -2.855481,2.85548 2.8554811,2.8554811 0 0 1 -2.855481,-2.85548 2.8554811,2.8554811 0 0 1 2.855481,-2.85548 2.8554811,2.8554811 0 0 1 2.855481,2.85548 z"
               id="path8160" />
            <path
               style="color:#000000;fill:#000000;-inkscape-stroke:none"
               d="m -26.779297,320.41992 c -1.68428,0 -3.052734,1.37041 -3.052734,3.05469 0,1.68428 1.368454,3.05273 3.052734,3.05273 1.684281,0 3.054688,-1.36845 3.054688,-3.05273 0,-1.68428 -1.370407,-3.05469 -3.054688,-3.05469 z m 0,0.39649 c 1.469794,0 2.658203,1.18841 2.658203,2.6582 0,1.46979 -1.188409,2.65625 -2.658203,2.65625 -1.469794,0 -2.65625,-1.18646 -2.65625,-2.65625 0,-1.46979 1.186456,-2.6582 2.65625,-2.6582 z"
               id="path8162" />
          </g>
          <g
             id="circle840-5">
            <path
               style="color:#000000;fill:#ce1126;stroke-width:0.396875;-inkscape-stroke:none"
               d="m -23.923284,342.57867 a 2.8554811,2.8554811 0 0 1 -2.855481,2.85549 2.8554811,2.8554811 0 0 1 -2.855481,-2.85549 2.8554811,2.8554811 0 0 1 2.855481,-2.85548 2.8554811,2.8554811 0 0 1 2.855481,2.85548 z"
               id="path8166" />
            <path
               style="color:#000000;fill:#000000;-inkscape-stroke:none"
               d="m -26.779297,339.52539 c -1.68428,0 -3.052734,1.36845 -3.052734,3.05273 0,1.68429 1.368454,3.05469 3.052734,3.05469 1.684281,0 3.054688,-1.3704 3.054688,-3.05469 0,-1.68428 -1.370407,-3.05273 -3.054688,-3.05273 z m 0,0.39648 c 1.469794,0 2.658203,1.18646 2.658203,2.65625 0,1.4698 -1.188409,2.65821 -2.658203,2.65821 -1.469794,0 -2.65625,-1.18841 -2.65625,-2.65821 0,-1.46979 1.186456,-2.65625 2.65625,-2.65625 z"
               id="path8168" />
          </g>
        </g>
        <g
           id="g7857">
          <g
             aria-label="POI1"
             id="text4136-4"
             style="font-size:7.05556px;font-family:Helvetica;-inkscape-font-specification:Helvetica;letter-spacing:0px;word-spacing:0px;stroke-width:0.264583">
            <path
               d="m 58.612997,326.04713 h 1.615723 c 0.402167,0 0.719667,-0.11995 0.994834,-0.36689 0.310445,-0.28222 0.4445,-0.61384 0.4445,-1.08656 0,-0.96661 -0.5715,-1.50989 -1.587501,-1.50989 H 57.95683 v 5.1435 h 0.656167 z m 0,-0.57856 v -1.80622 h 1.368778 c 0.627945,0 1.00189,0.33866 1.00189,0.90311 0,0.56444 -0.373945,0.90311 -1.00189,0.90311 z"
               id="path8170" />
            <path
               d="m 64.666653,322.99912 c -1.474612,0 -2.476502,1.08656 -2.476502,2.69523 0,1.61572 0.994834,2.69522 2.483557,2.69522 0.627945,0 1.178279,-0.1905 1.594557,-0.54328 0.557389,-0.47272 0.889001,-1.27 0.889001,-2.10961 0,-1.65805 -0.980723,-2.73756 -2.490613,-2.73756 z m 0,0.57856 c 1.114778,0 1.834445,0.83961 1.834445,2.14489 0,1.24178 -0.740833,2.08845 -1.82739,2.08845 -1.100667,0 -1.82739,-0.84667 -1.82739,-2.11667 0,-1.27 0.726723,-2.11667 1.820335,-2.11667 z"
               id="path8172" />
            <path
               d="M 68.780043,323.08379 H 68.11682 v 5.1435 h 0.663223 z"
               id="path8174" />
            <path
               d="m 71.200099,324.59368 v 3.63361 h 0.62089 v -5.10117 h -0.409223 c -0.218722,0.78317 -0.359833,0.88901 -1.31939,1.01601 v 0.45155 z"
               id="path8176" />
          </g>
          <g
             id="path3610-2-5">
            <path
               style="color:#000000;fill:#555555;stroke-dasharray:0.529167, 0.264583;-inkscape-stroke:none"
               d="m 61.509766,332.96094 -0.248047,0.13086 0.123047,0.23437 0.248046,-0.13086 z m -0.482422,0.2539 -0.242188,0.12696 -0.226562,0.11718 0.121093,0.23438 0.228516,-0.11719 0.242188,-0.12695 z m -0.703125,0.36719 -0.261719,0.13477 -0.208984,0.10742 0.121093,0.23437 0.208985,-0.10742 0.261718,-0.13476 z m -0.705078,0.36328 -0.279297,0.14258 -0.191407,0.0977 0.119141,0.23632 0.191406,-0.0976 0.28125,-0.14453 z m -0.707032,0.35938 -0.296875,0.15039 -0.175781,0.0859 0.119141,0.23828 0.175781,-0.0879 0.296875,-0.15039 z m -0.708984,0.35547 -0.314453,0.15625 -0.158203,0.0781 0.115234,0.23633 0.160156,-0.0762 0.314453,-0.15821 z m -0.710938,0.34961 -0.333984,0.16406 -0.140625,0.0664 0.113281,0.24024 0.142578,-0.0684 0.333985,-0.16406 z m -0.714843,0.3457 -0.355469,0.16992 -0.121094,0.0566 0.113281,0.24024 0.121094,-0.0566 0.357422,-0.17187 z m -0.714844,0.33984 -0.380859,0.17774 -0.09766,0.0449 0.109375,0.24023 0.09961,-0.0449 0.380859,-0.17969 z m -0.71875,0.33399 -0.408203,0.18554 -0.07227,0.0332 0.107422,0.24023 0.07422,-0.0312 0.408203,-0.1875 z m -0.722656,0.32617 -0.441407,0.19726 -0.04102,0.0176 0.105469,0.24219 0.04297,-0.0176 0.441407,-0.19726 z m -0.72461,0.32031 -0.478515,0.20899 -0.0059,0.002 0.103516,0.24414 0.0059,-0.004 0.480469,-0.20898 z m -0.728515,0.3125 -0.486328,0.20703 0.101562,0.24414 0.488281,-0.20703 z m -0.730469,0.30664 -0.490234,0.20117 0.101562,0.24414 0.488281,-0.20117 z m -0.734375,0.29883 -0.490234,0.19531 0.0957,0.2461 0.492187,-0.19532 z m -0.736328,0.29102 -0.300781,0.11718 -0.19336,0.0723 0.0957,0.24805 0.191407,-0.0742 0.302734,-0.11719 z m -0.740235,0.2832 -0.375,0.14062 -0.11914,0.043 0.08984,0.24805 0.121093,-0.043 0.376953,-0.14062 z m -0.74414,0.27539 -0.04297,0.0156 -0.416016,0.15039 -0.03711,0.0117 0.08789,0.25 0.03906,-0.0137 0.416016,-0.15039 0.04492,-0.0156 z m -0.746094,0.26562 -0.132812,0.0469 -0.365235,0.12695 0.08594,0.25 0.367187,-0.12695 0.134766,-0.0469 z m -0.748047,0.25977 -0.236328,0.0801 -0.263672,0.0879 0.08203,0.25 0.267579,-0.0879 0.236328,-0.0801 z m -0.751953,0.25 -0.351562,0.11523 -0.150391,0.0488 0.08008,0.25196 0.152344,-0.0488 0.351562,-0.11524 z m -0.753906,0.24414 -0.03711,0.0117 L 46,339.61328 l -0.02148,0.006 0.07813,0.25391 0.02148,-0.008 0.445312,-0.13867 0.03906,-0.0117 z m -0.75586,0.23438 -0.175781,0.0527 -0.330078,0.0996 0.07422,0.25195 0.332031,-0.0976 0.175781,-0.0547 z m -0.759765,0.22656 -0.330078,0.0957 -0.177735,0.0508 0.07227,0.25391 0.177734,-0.0508 0.332032,-0.0957 z m -0.761719,0.21875 -0.0332,0.01 -0.470703,0.13086 -0.0039,0.002 0.06836,0.2539 h 0.0059 l 0.472657,-0.13281 0.0332,-0.01 z m -0.763672,0.21094 -0.214844,0.0586 -0.294921,0.0781 0.06641,0.25586 0.296875,-0.0781 0.216797,-0.0586 z m -0.765625,0.20507 -0.416015,0.10743 -0.0957,0.0234 0.06445,0.25782 0.09766,-0.0254 0.416015,-0.10742 z m -0.767578,0.19532 -0.138672,0.0351 -0.375,0.0918 0.06445,0.25781 0.375,-0.0918 0.138672,-0.0351 z m -0.769531,0.18945 -0.371094,0.0898 -0.142578,0.0332 0.06055,0.25781 0.142578,-0.0332 0.373047,-0.0899 z m -0.771485,0.18359 -0.109375,0.0254 -0.40625,0.0918 0.05859,0.25781 0.408203,-0.0918 0.109375,-0.0254 z m -0.773437,0.17578 -0.373047,0.082 -0.142578,0.0312 0.05664,0.25781 0.142578,-0.0312 0.375,-0.082 z m -0.773438,0.16797 -0.126953,0.0273 -0.390625,0.082 0.05469,0.25781 0.390625,-0.0801 0.126953,-0.0293 z m -0.77539,0.16211 -0.429688,0.0879 -0.08984,0.0176 0.05273,0.25977 0.08984,-0.0176 0.429687,-0.0879 z m -0.777344,0.15625 -0.201172,0.0391 -0.318359,0.0605 0.04883,0.25977 0.320312,-0.0605 0.201172,-0.0391 z m -0.779297,0.15039 -0.519531,0.0957 0.04883,0.26171 0.519531,-0.0976 z m -0.779297,0.14258 -0.330078,0.0606 -0.189453,0.0332 0.04492,0.25977 0.191406,-0.0332 0.330078,-0.0586 z m -0.78125,0.13867 -0.125,0.0215 -0.396484,0.0684 0.04492,0.25976 0.394531,-0.0664 0.126953,-0.0215 z m -0.78125,0.13282 -0.521484,0.0859 0.04297,0.26172 0.521484,-0.0859 z"
               id="path8199" />
            <g
               id="g8189">
              <g
                 id="path8191">
                <path
                   style="color:#000000;fill:#555555;fill-rule:evenodd;stroke-width:0.211666pt;-inkscape-stroke:none"
                   d="m 59.231341,334.31299 -0.441991,1.42995 2.781927,-2.66491 -3.769892,0.79296 z"
                   id="path8195" />
                <path
                   style="color:#000000;fill:#555555;fill-rule:evenodd;-inkscape-stroke:none"
                   d="m 62.025391,332.83789 -4.785157,1.00781 1.814453,0.56055 -0.560546,1.81445 z m -0.908204,0.48047 -2.03125,1.94531 0.322266,-1.04297 -0.134766,-0.043 -0.908203,-0.28125 z"
                   id="path8197" />
              </g>
            </g>
          </g>
          <g
             id="path14984">
            <path
               style="color:#000000;fill:#555555;stroke-dasharray:0.529167, 0.264583;-inkscape-stroke:none"
               d="m 33.662109,323.33398 -0.03125,0.26368 0.496094,0.0586 0.02734,0.004 0.0332,-0.26172 -0.0293,-0.004 z m 0.789063,0.0977 -0.03516,0.26172 0.203125,0.0254 0.322265,0.043 0.03516,-0.26172 -0.322265,-0.043 z m 0.787109,0.10547 -0.03711,0.26172 0.398437,0.0547 0.125,0.0195 0.03906,-0.26172 -0.125,-0.0195 z m 0.78711,0.11328 -0.03906,0.26172 0.101563,0.0137 0.421875,0.0664 0.03906,-0.26172 -0.421875,-0.0664 z m 0.785156,0.12109 -0.04102,0.26172 0.285156,0.0469 0.236329,0.0391 0.04297,-0.26172 -0.236328,-0.0391 z m 0.785156,0.13086 -0.04492,0.25977 0.464844,0.082 0.05469,0.01 0.04883,-0.25977 -0.05664,-0.01 z m 0.783203,0.13868 -0.04687,0.26171 0.160156,0.0293 0.357422,0.0664 0.05078,-0.25977 -0.359375,-0.0664 z m 0.78125,0.14843 -0.05078,0.25977 0.330078,0.0644 0.1875,0.0391 0.05273,-0.25976 -0.1875,-0.0371 z m 0.779297,0.15625 -0.05273,0.25977 0.02539,0.006 0.46875,0.0976 0.02148,0.006 0.05664,-0.25976 -0.02344,-0.004 -0.470703,-0.0996 z m 0.777344,0.16602 -0.05469,0.25781 0.185547,0.041 0.330078,0.0742 0.05664,-0.25782 -0.330078,-0.0742 z m 0.777344,0.17383 -0.06055,0.25781 0.341797,0.0801 0.171875,0.041 0.0625,-0.25781 -0.173829,-0.041 z m 0.773437,0.18359 -0.0625,0.25781 0.03125,0.006 0.458984,0.11328 0.02148,0.006 0.06641,-0.25586 -0.02344,-0.006 -0.460938,-0.11328 z m 0.771484,0.19141 -0.06445,0.25781 0.177735,0.0449 0.332031,0.0879 0.06836,-0.25781 -0.333984,-0.0859 z m 0.769532,0.20117 -0.06836,0.25586 0.322266,0.0859 0.1875,0.0527 0.07031,-0.25391 -0.189453,-0.0527 z m 0.767578,0.21094 -0.07227,0.2539 0.0098,0.002 0.449219,0.1289 0.04883,0.0137 0.07422,-0.2539 -0.05078,-0.0137 -0.451172,-0.12891 z m 0.763672,0.21875 -0.07422,0.2539 0.144531,0.043 0.361328,0.10742 0.07617,-0.2539 -0.363281,-0.10743 z m 0.761718,0.22851 -0.07617,0.25195 0.27539,0.0859 0.228516,0.0703 0.08008,-0.25195 -0.230469,-0.0723 z m 0.759766,0.23633 -0.08008,0.25195 0.400391,0.12891 0.101562,0.0332 0.08203,-0.25 -0.101562,-0.0332 z m 0.755859,0.24609 -0.08203,0.25196 0.08594,0.0273 0.414062,0.14063 0.08398,-0.25 -0.414063,-0.14063 z m 0.753907,0.25586 -0.08594,0.25 0.207031,0.0723 0.291016,0.10156 0.08789,-0.24805 -0.291016,-0.10351 z m 0.75,0.26367 -0.08984,0.25 0.326172,0.11719 0.169922,0.0625 0.0918,-0.24804 -0.171875,-0.0645 z m 0.746093,0.27344 -0.0918,0.24805 0.0098,0.004 0.427735,0.16015 0.05664,0.0215 0.0957,-0.2461 -0.05664,-0.0215 -0.429688,-0.16211 z m 0.744141,0.28125 -0.0957,0.24805 0.123047,0.0469 0.36914,0.14454 0.09766,-0.2461 -0.371094,-0.14453 z m 0.740234,0.29297 -0.09766,0.24414 0.232422,0.0937 0.255859,0.10547 0.101563,-0.24609 -0.257813,-0.10547 z m 0.736329,0.29883 -0.101563,0.24414 0.337891,0.14258 0.15039,0.0625 0.103516,-0.24414 -0.150391,-0.0625 z m 0.732421,0.30859 -0.103515,0.24414 0.02539,0.01 0.416016,0.17969 0.04297,0.0195 0.107422,-0.24219 -0.04492,-0.0195 -0.417969,-0.17969 z m 0.730469,0.31836 -0.107422,0.24219 0.128907,0.0566 0.353515,0.1582 0.107422,-0.24023 -0.353516,-0.16016 z m 0.72461,0.32617 -0.109375,0.24024 0.228515,0.10547 0.25,0.11718 0.111328,-0.24023 -0.251953,-0.11719 z m 0.720703,0.33594 -0.113282,0.23828 0.326172,0.15625 0.150391,0.0723 0.115234,-0.23828 -0.15039,-0.0742 z m 0.716797,0.34375 -0.115235,0.23828 0.01758,0.008 0.402344,0.19726 0.05469,0.0273 0.117187,-0.23632 -0.05273,-0.0273 -0.40625,-0.19922 z m 0.71289,0.35156 -0.117187,0.23829 0.111328,0.0547 0.359375,0.1836 0.121094,-0.23633 -0.361329,-0.1836 z m 0.708985,0.36133 -0.121094,0.23633 0.205078,0.10547 0.263672,0.13867 0.123047,-0.23437 -0.263672,-0.13868 z m 0.705078,0.36914 -0.125,0.23438 0.296875,0.1582 0.169922,0.0918 0.125,-0.23242 -0.169922,-0.0918 z m 0.701172,0.37891 -0.128907,0.23047 0.386719,0.21289 0.07617,0.043 0.128906,-0.23047 -0.07617,-0.043 z m 0.693359,0.38476 -0.128906,0.23047 0.08398,0.0469 0.375,0.21484 0.130859,-0.23047 -0.375,-0.21484 z m 0.691406,0.39454 -0.132812,0.22851 0.173828,0.0996 0.283203,0.16602 0.134766,-0.22657 -0.285157,-0.16796 z m 0.6875,0.40234 -0.136719,0.22656 0.259766,0.1543 0.193359,0.11719 0.136719,-0.22657 -0.193359,-0.11718 z m 0.681641,0.41016 -0.138672,0.22461 0.345703,0.21289 0.138672,-0.22657 z"
               id="path8213" />
            <g
               id="g8203">
              <g
                 id="path8205">
                <path
                   style="color:#000000;fill:#555555;fill-rule:evenodd;stroke-width:0.211666pt;-inkscape-stroke:none"
                   d="m 59.319824,331.68829 -1.456477,0.34469 3.70793,1.04505 -2.596139,-2.84622 z"
                   id="path8209" />
                <path
                   style="color:#000000;fill:#555555;fill-rule:evenodd;-inkscape-stroke:none"
                   d="m 58.712891,329.73437 0.435546,1.84961 -1.847656,0.4375 4.707031,1.32618 z m 0.52539,0.99415 1.894531,2.07812 -2.705078,-0.76172 1.0625,-0.25195 -0.0332,-0.13672 z"
                   id="path8211" />
              </g>
            </g>
          </g>
          <g
             aria-label="RC1"
             id="text4124-6-7"
             style="font-size:10.5833px;font-family:Helvetica;-inkscape-font-specification:Helvetica;letter-spacing:0px;word-spacing:0px;stroke-width:0.264583">
            <path
               d="m 29.021021,316.48475 h 1.693334 c 0.585612,0 0.846668,0.28222 0.846668,0.91722 l -0.0071,0.45861 c 0,0.3175 0.05645,0.62795 0.148167,0.83962 h 0.797278 v -0.16228 c -0.246944,-0.16934 -0.296333,-0.35278 -0.310445,-1.03717 -0.0071,-0.84667 -0.141111,-1.10067 -0.6985,-1.34056 0.578556,-0.28927 0.811389,-0.635 0.811389,-1.22766 0,-0.889 -0.550333,-1.37584 -1.566334,-1.37584 h -2.370668 v 5.14351 h 0.656167 z m 0,-0.57856 v -1.77094 h 1.587501 c 0.366889,0 0.578556,0.0564 0.740834,0.19755 0.176389,0.14817 0.268111,0.381 0.268111,0.68439 0,0.61384 -0.310445,0.889 -1.008945,0.889 z"
               id="path8215" />
            <path
               d="m 37.353624,315.15125 c -0.204612,-1.12889 -0.853723,-1.67922 -1.982613,-1.67922 -0.691445,0 -1.248834,0.21872 -1.629834,0.64205 -0.465667,0.508 -0.719667,1.24178 -0.719667,2.07434 0,0.84666 0.261055,1.57339 0.740833,2.07433 0.402167,0.40922 0.910168,0.59972 1.580446,0.59972 1.25589,0 1.961446,-0.67733 2.116668,-2.03905 h -0.677334 c -0.05644,0.35277 -0.127,0.59266 -0.232833,0.79727 -0.211667,0.42334 -0.649112,0.66323 -1.199446,0.66323 -1.023056,0 -1.672167,-0.81845 -1.672167,-2.10256 0,-1.31939 0.613833,-2.13078 1.615723,-2.13078 0.416278,0 0.804334,0.11995 1.016001,0.32456 0.1905,0.17639 0.296333,0.38805 0.373944,0.77611 z"
               id="path8217" />
            <path
               d="m 39.604335,315.06658 v 3.63362 h 0.620889 v -5.10117 h -0.409222 c -0.218722,0.78316 -0.359834,0.889 -1.31939,1.016 v 0.45155 z"
               id="path8219" />
          </g>
          <g
             aria-label="RC2"
             id="text4132-5-9"
             style="font-size:10.5833px;font-family:Helvetica;-inkscape-font-specification:Helvetica;letter-spacing:0px;word-spacing:0px;stroke-width:0.264583">
            <path
               d="m 28.280184,335.50355 h 1.693334 c 0.585612,0 0.846668,0.28222 0.846668,0.91722 l -0.0071,0.45861 c 0,0.3175 0.05644,0.62795 0.148167,0.83961 h 0.797278 v -0.16227 c -0.246945,-0.16934 -0.296333,-0.35278 -0.310445,-1.03717 -0.0071,-0.84667 -0.141111,-1.10067 -0.6985,-1.34056 0.578556,-0.28928 0.811389,-0.635 0.811389,-1.22766 0,-0.88901 -0.550333,-1.37584 -1.566334,-1.37584 h -2.370668 v 5.1435 h 0.656167 z m 0,-0.57856 v -1.77094 h 1.587501 c 0.366889,0 0.578556,0.0564 0.740834,0.19755 0.176389,0.14817 0.268111,0.381 0.268111,0.68439 0,0.61384 -0.310445,0.889 -1.008945,0.889 z"
               id="path8228" />
            <path
               d="m 36.612786,334.17005 c -0.204611,-1.12889 -0.853722,-1.67923 -1.982612,-1.67923 -0.691445,0 -1.248834,0.21873 -1.629834,0.64206 -0.465667,0.508 -0.719667,1.24178 -0.719667,2.07433 0,0.84667 0.261055,1.57339 0.740833,2.07434 0.402167,0.40922 0.910168,0.59972 1.580446,0.59972 1.255889,0 1.961446,-0.67733 2.116668,-2.03905 h -0.677334 c -0.05644,0.35277 -0.127,0.59266 -0.232833,0.79727 -0.211667,0.42334 -0.649112,0.66323 -1.199446,0.66323 -1.023056,0 -1.672167,-0.81845 -1.672167,-2.10256 0,-1.31939 0.613833,-2.13078 1.615723,-2.13078 0.416278,0 0.804334,0.11994 1.016001,0.32456 0.1905,0.17638 0.296333,0.38805 0.373944,0.77611 z"
               id="path8230" />
            <path
               d="m 40.606221,337.10516 h -2.631723 c 0.0635,-0.42333 0.289277,-0.69144 0.903111,-1.06539 l 0.705556,-0.39511 c 0.698501,-0.38806 1.058334,-0.91017 1.058334,-1.53811 0,-0.42334 -0.169333,-0.81845 -0.465667,-1.09361 -0.296333,-0.26812 -0.663222,-0.39512 -1.135945,-0.39512 -0.635,0 -1.107723,0.22578 -1.38289,0.66323 -0.176389,0.26811 -0.254,0.58561 -0.268111,1.10066 h 0.620889 c 0.02117,-0.34572 0.0635,-0.55033 0.148167,-0.71966 0.162278,-0.31045 0.486834,-0.50095 0.860778,-0.50095 0.564445,0 0.987779,0.40922 0.987779,0.95956 0,0.40922 -0.232834,0.762 -0.677334,1.016 l -0.649111,0.381 c -1.044223,0.59972 -1.347612,1.0795 -1.404057,2.19428 h 3.330224 z"
               id="path8232" />
          </g>
          <g
             id="circle846-9">
            <path
               style="color:#000000;fill:#006647;stroke-width:0.396875;-inkscape-stroke:none"
               d="m 67.282239,333.078 a 2.8554811,2.8554811 0 0 1 -2.855481,2.85548 2.8554811,2.8554811 0 0 1 -2.855481,-2.85548 2.8554811,2.8554811 0 0 1 2.855481,-2.85548 2.8554811,2.8554811 0 0 1 2.855481,2.85548 z"
               id="path8243" />
            <path
               style="color:#000000;fill:#000000;-inkscape-stroke:none"
               d="m 64.425781,330.02344 c -1.68428,0 -3.052734,1.3704 -3.052734,3.05468 0,1.68429 1.368454,3.05469 3.052734,3.05469 1.684281,0 3.054688,-1.3704 3.054688,-3.05469 0,-1.68428 -1.370407,-3.05468 -3.054688,-3.05468 z m 0,0.39843 c 1.469794,0 2.658203,1.18646 2.658203,2.65625 0,1.4698 -1.188409,2.65625 -2.658203,2.65625 -1.469793,0 -2.65625,-1.18645 -2.65625,-2.65625 0,-1.46979 1.186457,-2.65625 2.65625,-2.65625 z"
               id="path8245" />
          </g>
          <g
             id="path836-3-3">
            <path
               style="color:#000000;fill:#ce1126;stroke-width:0.396875;-inkscape-stroke:none"
               d="m 36.501401,323.46548 a 2.8554811,2.8554811 0 0 1 -2.855481,2.85549 2.8554811,2.8554811 0 0 1 -2.855481,-2.85549 2.8554811,2.8554811 0 0 1 2.855481,-2.85548 2.8554811,2.8554811 0 0 1 2.855481,2.85548 z"
               id="path8249" />
            <path
               style="color:#000000;fill:#000000;-inkscape-stroke:none"
               d="m 33.646484,320.41211 c -1.68428,0 -3.054687,1.36845 -3.054687,3.05273 0,1.68428 1.370407,3.05469 3.054687,3.05469 1.684281,0 3.052735,-1.37041 3.052735,-3.05469 0,-1.68428 -1.368454,-3.05273 -3.052735,-3.05273 z m 0,0.39648 c 1.469794,0 2.65625,1.18646 2.65625,2.65625 0,1.4698 -1.186456,2.65821 -2.65625,2.65821 -1.469793,0 -2.658203,-1.18841 -2.658203,-2.65821 0,-1.46979 1.18841,-2.65625 2.658203,-2.65625 z"
               id="path8251" />
          </g>
          <g
             id="circle840-5-2">
            <path
               style="color:#000000;fill:#ce1126;stroke-width:0.396875;-inkscape-stroke:none"
               d="m 36.501401,342.56985 a 2.8554811,2.8554811 0 0 1 -2.855481,2.85549 2.8554811,2.8554811 0 0 1 -2.855481,-2.85549 2.8554811,2.8554811 0 0 1 2.855481,-2.85548 2.8554811,2.8554811 0 0 1 2.855481,2.85548 z"
               id="path8255" />
            <path
               style="color:#000000;fill:#000000;-inkscape-stroke:none"
               d="m 33.646484,339.51562 c -1.68428,0 -3.054687,1.37041 -3.054687,3.05469 0,1.68428 1.370407,3.05274 3.054687,3.05274 1.684281,0 3.052735,-1.36846 3.052735,-3.05274 0,-1.68428 -1.368454,-3.05468 -3.052735,-3.05469 z m 0,0.39649 c 1.469794,0 2.65625,1.18841 2.65625,2.6582 0,1.4698 -1.186456,2.65625 -2.65625,2.65625 -1.469793,0 -2.658203,-1.18645 -2.658203,-2.65625 0,-1.46979 1.18841,-2.6582 2.658203,-2.6582 z"
               id="path8257" />
          </g>
        </g>
        <g
           id="g7870">
          <g
             aria-label="POI1"
             id="text4136-4-5"
             style="font-size:7.05556px;font-family:Helvetica;-inkscape-font-specification:Helvetica;letter-spacing:0px;word-spacing:0px;stroke-width:0.264583">
            <path
               d="m 59.533727,370.60465 h 1.615723 c 0.402167,0 0.719668,-0.11994 0.994834,-0.36689 0.310445,-0.28222 0.444501,-0.61383 0.444501,-1.08655 0,-0.96661 -0.571501,-1.50989 -1.587501,-1.50989 H 58.87756 v 5.1435 h 0.656167 z m 0,-0.57855 v -1.80623 h 1.368779 c 0.627945,0 1.001889,0.33867 1.001889,0.90311 0,0.56445 -0.373944,0.90312 -1.001889,0.90312 z"
               id="path8259" />
            <path
               d="m 65.587383,367.55665 c -1.474612,0 -2.476501,1.08656 -2.476501,2.69522 0,1.61573 0.994834,2.69523 2.483557,2.69523 0.627945,0 1.178279,-0.1905 1.594557,-0.54328 0.557389,-0.47272 0.889,-1.27 0.889,-2.10961 0,-1.65806 -0.980723,-2.73756 -2.490613,-2.73756 z m 0,0.57856 c 1.114779,0 1.834446,0.83961 1.834446,2.14489 0,1.24178 -0.740834,2.08844 -1.82739,2.08844 -1.100667,0 -1.82739,-0.84666 -1.82739,-2.11667 0,-1.27 0.726723,-2.11666 1.820334,-2.11666 z"
               id="path8261" />
            <path
               d="m 69.700774,367.64132 h -0.663223 v 5.1435 h 0.663223 z"
               id="path8263" />
            <path
               d="m 72.12083,369.15121 v 3.63361 h 0.620889 v -5.10117 h -0.409222 c -0.218723,0.78317 -0.359834,0.889 -1.31939,1.016 v 0.45156 z"
               id="path8265" />
          </g>
          <g
             id="path868-4">
            <path
               style="color:#000000;fill:#555555;stroke-dasharray:0.529167, 0.264583;-inkscape-stroke:none"
               d="m 34.59375,367.8457 -0.05469,0.25782 0.517579,0.11132 0.05469,-0.25781 z m 0.777344,0.16602 -0.05664,0.25976 0.179688,0.0391 0.33789,0.0742 0.05664,-0.25977 -0.337891,-0.0742 z m 0.77539,0.16992 -0.05664,0.25977 0.357422,0.0781 0.158203,0.0352 0.05859,-0.25782 -0.160156,-0.0351 z m 0.775391,0.17188 -0.05859,0.25976 0.517578,0.11524 0.05664,-0.25782 z m 0.775391,0.17578 -0.05859,0.25781 0.515625,0.11719 0.05859,-0.25782 z m 0.773437,0.17578 -0.06055,0.25781 0.515625,0.12109 0.06055,-0.25781 z m 0.773438,0.18164 -0.06055,0.25781 0.101562,0.0234 0.41211,0.0976 0.0625,-0.25585 -0.414063,-0.0996 z m 0.773437,0.18359 -0.0625,0.25781 0.269531,0.0645 0.244141,0.0586 0.0625,-0.25586 -0.244141,-0.0605 z m 0.771484,0.1875 -0.0625,0.25586 0.433594,0.10742 0.07813,0.0195 0.06445,-0.25585 -0.08008,-0.0215 z m 0.771485,0.19141 -0.06445,0.25586 0.513672,0.1289 0.06445,-0.25781 z m 0.769531,0.19336 -0.06641,0.25586 0.513672,0.13281 0.06641,-0.25586 z m 0.769531,0.19922 -0.06641,0.25586 0.509766,0.13476 0.06836,-0.25586 z m 0.767578,0.20312 -0.06836,0.25586 0.140625,0.0371 0.369141,0.0996 0.07031,-0.25391 -0.371094,-0.10156 z m 0.767579,0.20703 -0.07031,0.25586 0.291016,0.0801 0.21875,0.0605 0.07031,-0.25391 -0.21875,-0.0625 z m 0.765625,0.21289 -0.07227,0.25586 0.4375,0.12305 0.07031,0.0195 0.07422,-0.25391 -0.07227,-0.0195 z m 0.763671,0.21875 -0.07422,0.25391 0.509765,0.14844 0.07227,-0.25391 z m 0.763672,0.22266 -0.07617,0.25391 0.50586,0.15234 0.07617,-0.25391 z m 0.761719,0.22852 -0.07813,0.2539 0.503906,0.15625 0.07813,-0.2539 z m 0.757813,0.23437 -0.07813,0.25391 0.0957,0.0293 0.40625,0.13086 0.08203,-0.25195 -0.410156,-0.13086 z m 0.757812,0.24219 -0.08203,0.25195 0.226562,0.0723 0.275391,0.0918 0.08398,-0.25195 -0.277343,-0.0898 z m 0.753906,0.24804 -0.08203,0.25196 0.353516,0.11719 0.146484,0.0488 0.08594,-0.25 -0.148438,-0.0508 z m 0.753907,0.25391 -0.08398,0.25 0.03906,0.0137 0.435547,0.15039 0.02344,0.008 0.08789,-0.24805 -0.02344,-0.01 -0.4375,-0.15039 z m 0.751953,0.26172 -0.08789,0.24805 0.160156,0.0566 0.335938,0.12109 0.08984,-0.24805 -0.337891,-0.12109 z m 0.748047,0.26758 -0.0918,0.25 0.277343,0.0996 0.21875,0.082 0.0918,-0.24805 -0.21875,-0.082 z m 0.746093,0.27734 -0.09375,0.24805 0.386719,0.14648 0.105469,0.041 0.0957,-0.2461 -0.105469,-0.043 z m 0.742188,0.2832 -0.0957,0.24805 0.07031,0.0274 0.419922,0.16601 0.09766,-0.24609 -0.419922,-0.16602 z m 0.738281,0.29297 -0.09766,0.2461 0.175781,0.0723 0.3125,0.12696 0.101563,-0.24414 -0.314454,-0.12891 z m 0.736328,0.30274 -0.101562,0.24414 0.277343,0.11523 0.208985,0.0898 0.103515,-0.24414 -0.210937,-0.0899 z m 0.732422,0.31054 -0.105469,0.24219 0.373047,0.16211 0.111328,0.0488 0.107422,-0.24219 -0.113281,-0.0488 z m 0.728516,0.31836 -0.107422,0.24219 0.05469,0.0234 0.40625,0.18555 0.01953,0.008 0.111328,-0.24024 -0.01953,-0.01 -0.408203,-0.1836 z m 0.724609,0.33008 -0.111328,0.24024 0.144531,0.0664 0.333985,0.15625 0.113281,-0.23828 -0.333985,-0.1582 z m 0.71875,0.33789 -0.113281,0.24024 0.230469,0.10937 0.24414,0.1211 0.117188,-0.23829 -0.246094,-0.12109 z m 0.716797,0.34961 -0.119141,0.23633 0.310547,0.15625 0.160156,0.082 0.121094,-0.23633 -0.162109,-0.082 z m 0.708984,0.35938 -0.123047,0.23437 0.386719,0.20313 0.08203,0.043 0.125,-0.23438 -0.08398,-0.043 z m 0.703125,0.37109 -0.123047,0.23438 0.07031,0.0371 0.384766,0.20898 0.0078,0.004 0.126953,-0.23047 -0.0078,-0.004 -0.384766,-0.21094 z m 0.699219,0.38281 -0.128906,0.23047 0.144531,0.0801 0.314453,0.17969 0.13086,-0.23047 -0.316407,-0.17969 z m 0.691406,0.39258 -0.132812,0.22852 0.210937,0.12304 0.244141,0.14454 0.134766,-0.22852 -0.244141,-0.14453 z m 0.685547,0.4043 -0.136719,0.22656 0.275391,0.16602 0.136719,-0.22657 z"
               id="path8288" />
            <g
               id="g8278">
              <g
                 id="path8280">
                <path
                   style="color:#000000;fill:#555555;fill-rule:evenodd;stroke-width:0.211666pt;-inkscape-stroke:none"
                   d="m 60.23544,376.25408 -1.455195,0.35006 3.711761,1.03136 -2.606624,-2.83662 z"
                   id="path8284" />
                <path
                   style="color:#000000;fill:#555555;fill-rule:evenodd;-inkscape-stroke:none"
                   d="m 59.621094,374.30273 0.443359,1.84766 -1.845703,0.44336 4.710937,1.31055 z m 0.529297,0.99414 1.90625,2.07227 -2.714844,-0.75391 1.064453,-0.25781 -0.0332,-0.13672 z"
                   id="path8286" />
              </g>
            </g>
          </g>
          <g
             id="path26724">
            <path
               style="color:#000000;fill:#555555;stroke-dasharray:0.529167, 0.264583;-inkscape-stroke:none"
               d="m 62.431641,377.51758 -0.148438,0.0742 0.121094,0.23632 0.148437,-0.0742 z m -0.382813,0.19336 -0.386719,0.19336 -0.08594,0.043 0.115234,0.23632 0.08789,-0.043 0.386719,-0.1914 z m -0.710937,0.35156 -0.0625,0.0312 -0.390625,0.1875 -0.02148,0.0117 0.113281,0.23828 0.02148,-0.01 0.392578,-0.18945 0.06445,-0.0312 z m -0.714844,0.3418 -0.13086,0.0625 -0.347656,0.16211 0.111328,0.24023 0.347657,-0.16211 0.132812,-0.0625 z m -0.716797,0.33398 -0.207031,0.0957 -0.275391,0.12305 0.109375,0.24219 0.275391,-0.125 0.207031,-0.0937 z m -0.722656,0.32617 -0.285157,0.12696 -0.199218,0.0859 0.105468,0.24414 0.201172,-0.0879 0.285157,-0.12695 z m -0.72461,0.31836 -0.488281,0.20703 0.103516,0.24414 0.488281,-0.20703 z m -0.730468,0.3125 -0.04687,0.0195 -0.441407,0.18164 0.101563,0.24414 0.443359,-0.18164 0.04687,-0.0215 z m -0.732422,0.30274 -0.134766,0.0547 -0.355469,0.14258 0.09961,0.2461 0.355468,-0.14258 0.136719,-0.0566 z m -0.734375,0.29687 -0.230469,0.0918 -0.261719,0.10156 0.09766,0.24609 0.261719,-0.10156 0.230469,-0.0937 z m -0.738282,0.28906 -0.328125,0.12891 -0.164062,0.0605 0.09375,0.24804 0.164062,-0.0625 0.330079,-0.1289 z m -0.740234,0.28321 -0.431641,0.16406 -0.0625,0.0234 0.0918,0.24804 0.0625,-0.0234 0.433594,-0.16407 z m -0.742187,0.27929 -0.496094,0.18164 0.0918,0.25 0.496093,-0.18359 z m -0.744141,0.27149 -0.498047,0.17969 0.08984,0.24804 0.498047,-0.17773 z m -0.746094,0.26758 -0.5,0.17382 0.08789,0.25 0.5,-0.17382 z m -0.75,0.26172 -0.02148,0.008 -0.478516,0.16211 0.08594,0.25 0.480468,-0.16211 0.02148,-0.008 z m -0.75,0.25585 -0.140625,0.0469 -0.359375,0.12109 0.08398,0.25 0.359375,-0.11914 0.142578,-0.0488 z m -0.751953,0.25 -0.263672,0.0879 -0.238281,0.0781 0.08203,0.25195 0.238281,-0.0781 0.265625,-0.0879 z m -0.751953,0.24805 -0.392578,0.12695 -0.111328,0.0352 0.08008,0.25195 0.111328,-0.0351 0.392578,-0.12696 z m -0.755859,0.24219 -0.503907,0.16016 0.08008,0.25195 0.503907,-0.16016 z m -0.75586,0.23828 -0.505859,0.1582 0.07813,0.25196 0.505859,-0.15625 z m -0.757812,0.23633 -0.50586,0.15234 0.07617,0.25391 0.507813,-0.1543 z m -0.759766,0.23047 -0.03711,0.0117 -0.46875,0.14062 0.07617,0.25195 0.46875,-0.13867 0.03906,-0.0117 z m -0.759766,0.22656 -0.177734,0.0547 -0.328125,0.0957 0.07422,0.25391 0.330078,-0.0977 0.177734,-0.0527 z m -0.759765,0.22461 -0.322266,0.0937 -0.185547,0.0547 0.07422,0.2539 0.185547,-0.0527 0.322266,-0.0957 z m -0.761719,0.2207 -0.46875,0.13672 -0.03906,0.01 0.07227,0.25586 0.03906,-0.0117 0.46875,-0.13477 z m -0.763672,0.21875 -0.507812,0.14453 0.07227,0.25586 0.507813,-0.14453 z m -0.761719,0.2168 -0.509765,0.14258 0.07031,0.2539 0.509766,-0.14257 z m -0.765625,0.21289 -0.0059,0.002 -0.503906,0.13867 0.07031,0.25586 0.50586,-0.13867 0.0059,-0.002 z m -0.763671,0.21094 -0.160157,0.0449 -0.349609,0.0957 0.06836,0.25391 0.351563,-0.0957 0.160156,-0.043 z m -0.765625,0.20898 -0.314454,0.0859 -0.195312,0.0527 0.06836,0.25586 0.195313,-0.0527 0.314453,-0.0859 z m -0.765625,0.20703 -0.472657,0.12696 -0.03906,0.01 0.06836,0.25586 0.03906,-0.01 0.472656,-0.12696 z m -0.767579,0.20508 -0.509765,0.13672 0.06641,0.25586 0.511719,-0.13672 z m -0.765625,0.20508 -0.511718,0.13476 0.06641,0.25586 0.511719,-0.13476 z m -0.767578,0.20117 -0.511718,0.13477 0.06641,0.25586 0.511719,-0.13477 z m -0.767578,0.20117 -0.185547,0.0488 -0.326172,0.0859 0.06641,0.25586 0.326172,-0.084 0.185546,-0.0508 z m -0.767578,0.20117 -0.513672,0.13282 0.06836,0.25586 0.511718,-0.13282 z m -0.769531,0.19922 -0.511719,0.13282 0.06641,0.25586 0.511719,-0.13282 z"
               id="path8302" />
            <g
               id="g8292">
              <g
                 id="path8294">
                <path
                   style="color:#000000;fill:#555555;fill-rule:evenodd;stroke-width:0.211666pt;-inkscape-stroke:none"
                   d="m 60.135983,378.83948 -0.460816,1.424 2.816839,-2.62798 -3.780025,0.74317 z"
                   id="path8298" />
                <path
                   style="color:#000000;fill:#555555;fill-rule:evenodd;-inkscape-stroke:none"
                   d="m 62.949219,377.40234 -4.798828,0.94336 1.808593,0.58594 -0.585937,1.80664 z m -0.91211,0.4668 -2.060547,1.91992 0.337891,-1.04101 -0.134766,-0.043 -0.904296,-0.29297 z"
                   id="path8300" />
              </g>
            </g>
          </g>
          <g
             aria-label="PTS1"
             id="text4112-2-9"
             style="font-size:10.5833px;font-family:Helvetica;-inkscape-font-specification:Helvetica;letter-spacing:0px;word-spacing:0px;stroke-width:0.264583">
            <path
               d="m 28.086179,380.03873 h 1.615724 c 0.402166,0 0.719667,-0.11994 0.994834,-0.36688 0.310444,-0.28223 0.4445,-0.61384 0.4445,-1.08656 0,-0.96661 -0.571501,-1.50989 -1.587501,-1.50989 h -2.123724 v 5.1435 h 0.656167 z m 0,-0.57855 v -1.80622 h 1.368779 c 0.627945,0 1.001889,0.33866 1.001889,0.90311 0,0.56444 -0.373944,0.90311 -1.001889,0.90311 z"
               id="path8304" />
            <path
               d="m 33.885839,377.65396 h 1.686279 v -0.57856 h -4.03578 v 0.57856 h 1.693334 v 4.56494 h 0.656167 z"
               id="path8306" />
            <path
               d="m 39.727819,378.58529 c 0,-0.35278 -0.02117,-0.45156 -0.134056,-0.69145 -0.282222,-0.59266 -0.881945,-0.90311 -1.749779,-0.90311 -1.128889,0 -1.82739,0.57856 -1.82739,1.50989 0,0.62795 0.331612,1.02306 1.008945,1.19945 l 1.277057,0.33866 c 0.656167,0.16934 0.945445,0.43039 0.945445,0.83256 0,0.27517 -0.148167,0.55739 -0.366889,0.71261 -0.204612,0.14817 -0.529167,0.21872 -0.945445,0.21872 -0.564445,0 -0.93839,-0.13405 -1.185334,-0.43038 -0.190501,-0.22578 -0.275167,-0.47273 -0.268112,-0.79023 h -0.620889 c 0.0071,0.47273 0.09878,0.78317 0.303389,1.06539 0.352778,0.48684 0.945445,0.73378 1.728612,0.73378 0.613834,0 1.114779,-0.14111 1.44639,-0.39511 0.345723,-0.27517 0.564445,-0.73378 0.564445,-1.17828 0,-0.635 -0.395111,-1.10067 -1.093612,-1.29117 l -1.291167,-0.34572 c -0.62089,-0.16933 -0.846668,-0.36689 -0.846668,-0.762 0,-0.52211 0.458612,-0.86783 1.150057,-0.86783 0.818445,0 1.277056,0.36689 1.284112,1.04422 z"
               id="path8308" />
            <path
               d="m 42.056153,378.58529 v 3.63361 h 0.620889 v -5.10117 h -0.409223 c -0.218722,0.78317 -0.359833,0.889 -1.319389,1.016 v 0.45156 z"
               id="path8310" />
          </g>
          <g
             aria-label="PTS2"
             id="text4116-1-7"
             style="font-size:10.5833px;font-family:Helvetica;-inkscape-font-specification:Helvetica;letter-spacing:0px;word-spacing:0px;stroke-width:0.264583">
            <path
               d="m 27.345342,361.04636 h 1.615723 c 0.402167,0 0.719668,-0.11994 0.994834,-0.36689 0.310445,-0.28222 0.444501,-0.61383 0.444501,-1.08655 0,-0.96661 -0.571501,-1.50989 -1.587501,-1.50989 h -2.123724 v 5.1435 h 0.656167 z m 0,-0.57855 v -1.80623 h 1.368779 c 0.627945,0 1.001889,0.33867 1.001889,0.90312 0,0.56444 -0.373944,0.90311 -1.001889,0.90311 z"
               id="path8321" />
            <path
               d="m 33.145002,358.66158 h 1.686279 v -0.57855 h -4.03578 v 0.57855 h 1.693334 v 4.56495 h 0.656167 z"
               id="path8323" />
            <path
               d="m 38.986982,359.59292 c 0,-0.35278 -0.02117,-0.45156 -0.134056,-0.69145 -0.282222,-0.59266 -0.881945,-0.90311 -1.749779,-0.90311 -1.128889,0 -1.82739,0.57856 -1.82739,1.50989 0,0.62795 0.331612,1.02306 1.008945,1.19945 l 1.277057,0.33866 c 0.656167,0.16934 0.945445,0.43039 0.945445,0.83256 0,0.27517 -0.148167,0.55739 -0.366889,0.71261 -0.204612,0.14817 -0.529167,0.21872 -0.945445,0.21872 -0.564445,0 -0.93839,-0.13405 -1.185335,-0.43039 -0.1905,-0.22577 -0.275166,-0.47272 -0.268111,-0.79022 h -0.620889 c 0.0071,0.47272 0.09878,0.78317 0.303389,1.06539 0.352778,0.48684 0.945445,0.73378 1.728612,0.73378 0.613834,0 1.114779,-0.14111 1.44639,-0.39511 0.345722,-0.27517 0.564445,-0.73378 0.564445,-1.17828 0,-0.635 -0.395112,-1.10067 -1.093612,-1.29117 l -1.291168,-0.34572 c -0.620889,-0.16933 -0.846667,-0.36689 -0.846667,-0.762 0,-0.52211 0.458612,-0.86783 1.150057,-0.86783 0.818445,0 1.277056,0.36688 1.284112,1.04422 z"
               id="path8325" />
            <path
               d="m 43.058039,362.6127 h -2.631724 c 0.0635,-0.42334 0.289278,-0.69145 0.903112,-1.06539 l 0.705556,-0.39511 c 0.6985,-0.38806 1.058334,-0.91017 1.058334,-1.53811 0,-0.42334 -0.169334,-0.81845 -0.465667,-1.09362 -0.296334,-0.26811 -0.663223,-0.39511 -1.135945,-0.39511 -0.635001,0 -1.107723,0.22578 -1.38289,0.66322 -0.176389,0.26812 -0.254,0.58562 -0.268111,1.10067 h 0.620889 c 0.02117,-0.34572 0.0635,-0.55033 0.148167,-0.71967 0.162277,-0.31044 0.486833,-0.50094 0.860778,-0.50094 0.564445,0 0.987778,0.40922 0.987778,0.95956 0,0.40922 -0.232833,0.762 -0.677333,1.016 l -0.649112,0.381 c -1.044223,0.59972 -1.347612,1.0795 -1.404056,2.19428 h 3.330224 z"
               id="path8327" />
          </g>
          <g
             id="circle846-9-2">
            <path
               style="color:#000000;fill:#006647;stroke-width:0.396875;-inkscape-stroke:none"
               d="m 68.20297,377.6355 a 2.8554811,2.8554811 0 0 1 -2.855482,2.85548 2.8554811,2.8554811 0 0 1 -2.855481,-2.85548 2.8554811,2.8554811 0 0 1 2.855481,-2.85548 2.8554811,2.8554811 0 0 1 2.855482,2.85548 z"
               id="path8340" />
            <path
               style="color:#000000;fill:#000000;-inkscape-stroke:none"
               d="m 65.347656,374.58203 c -1.68428,0 -3.054687,1.36846 -3.054687,3.05274 0,1.68428 1.370407,3.05468 3.054687,3.05468 1.684281,0 3.054688,-1.3704 3.054688,-3.05468 0,-1.68428 -1.370407,-3.05274 -3.054688,-3.05274 z m 0,0.39649 c 1.469794,0 2.65625,1.18645 2.65625,2.65625 0,1.46979 -1.186456,2.6582 -2.65625,2.6582 -1.469793,0 -2.65625,-1.18841 -2.65625,-2.6582 0,-1.4698 1.186457,-2.65625 2.65625,-2.65625 z"
               id="path8342" />
          </g>
          <g
             id="circle848-7-5">
            <path
               style="color:#000000;fill:#005293;stroke-width:0.396875;-inkscape-stroke:none"
               d="m 37.422177,387.06973 a 2.8554811,2.8554811 0 0 1 -2.855481,2.85548 2.8554811,2.8554811 0 0 1 -2.855481,-2.85548 2.8554811,2.8554811 0 0 1 2.855481,-2.85548 2.8554811,2.8554811 0 0 1 2.855481,2.85548 z"
               id="path8346" />
            <path
               style="color:#000000;fill:#000000;-inkscape-stroke:none"
               d="m 34.566406,384.01562 c -1.68428,0 -3.052734,1.37041 -3.052734,3.05469 0,1.68428 1.368454,3.05274 3.052734,3.05274 1.684281,0 3.054688,-1.36846 3.054688,-3.05274 0,-1.68428 -1.370407,-3.05468 -3.054688,-3.05469 z m 0,0.39649 c 1.469794,0 2.658203,1.18841 2.658203,2.6582 0,1.4698 -1.188409,2.65625 -2.658203,2.65625 -1.469793,0 -2.65625,-1.18645 -2.65625,-2.65625 0,-1.46979 1.186457,-2.6582 2.65625,-2.6582 z"
               id="path8348" />
          </g>
          <g
             id="circle850-6-6">
            <path
               style="color:#000000;fill:#005293;stroke-width:0.396875;-inkscape-stroke:none"
               d="m 37.422177,367.97415 a 2.8554811,2.8554811 0 0 1 -2.855481,2.85548 2.8554811,2.8554811 0 0 1 -2.855481,-2.85548 2.8554811,2.8554811 0 0 1 2.855481,-2.85548 2.8554811,2.8554811 0 0 1 2.855481,2.85548 z"
               id="path8352" />
            <path
               style="color:#000000;fill:#000000;-inkscape-stroke:none"
               d="m 34.566406,364.91992 c -1.68428,0 -3.052734,1.37041 -3.052734,3.05469 0,1.68428 1.368454,3.05273 3.052734,3.05273 1.684281,0 3.054688,-1.36845 3.054688,-3.05273 0,-1.68428 -1.370407,-3.05469 -3.054688,-3.05469 z m 0,0.39649 c 1.469794,0 2.658203,1.18841 2.658203,2.6582 0,1.46979 -1.188409,2.65625 -2.658203,2.65625 -1.469793,0 -2.65625,-1.18646 -2.65625,-2.65625 0,-1.46979 1.186457,-2.6582 2.65625,-2.6582 z"
               id="path8354" />
          </g>
        </g>
        <path
           style="color:#000000;fill:#000000;-inkscape-stroke:none"
           d="m 18.888672,311.78906 v 79.78906 h 0.529297 v -79.78906 z"
           id="path26558" />
        <path
           style="color:#000000;fill:#000000;-inkscape-stroke:none"
           d="m -42.542969,351.6582 v 0.5293 H 75.410156 v -0.5293 z"
           id="path26658" />
        <g
           id="g7880">
          <g
             id="path31315-3">
            <path
               style="color:#000000;fill:#006680;-inkscape-stroke:none"
               d="m -13.353516,370.58789 c -5.187141,0.21738 -10.061901,2.10263 -13.455078,6.17969 l 0.205078,0.16797 c 3.339199,-4.0122 8.12954,-5.869 13.259766,-6.08399 5.1302265,-0.21499 10.5939499,1.21786 15.2441406,3.78321 l 0.1289063,-0.23243 c -4.6904179,-2.58753 -10.1956711,-4.03182 -15.3828129,-3.81445 z"
               id="path8376" />
            <g
               id="g8366">
              <g
                 id="path8368">
                <path
                   style="color:#000000;fill:#006680;fill-rule:evenodd;stroke-width:0.211666pt;-inkscape-stroke:none"
                   d="m -0.35144929,373.24051 -1.43788911,0.41547 3.7545769,0.86257 -2.73214888,-2.71592 z"
                   id="path8372" />
                <path
                   style="color:#000000;fill:#006680;fill-rule:evenodd;-inkscape-stroke:none"
                   d="m -1.0527344,371.31836 0.52734378,1.82617 -1.82617188,0.52734 4.765625,1.09571 z m 0.57226565,0.96875 1.99414065,1.98242 -2.7402344,-0.62891 1.05078125,-0.30468 -0.0410156,-0.13477 z"
                   id="path8374" />
              </g>
            </g>
          </g>
          <g
             id="path47646-5">
            <path
               style="color:#000000;fill:#006680;-inkscape-stroke:none"
               d="m 4.0019531,376.74219 c -4.69422732,3.15384 -8.5859903,4.97924 -12.8945312,5.33593 -4.3085409,0.3567 -9.0480889,-0.7557 -15.4355469,-3.50976 l -0.105469,0.24219 c 6.407383,2.76265 11.193018,3.89298 15.5625002,3.53125 4.3694827,-0.36174 8.30831805,-2.2156 13.0195313,-5.38086 z"
               id="path8390" />
            <g
               id="g8380">
              <g
                 id="path8382">
                <path
                   style="color:#000000;fill:#006680;fill-rule:evenodd;stroke-width:0.211666pt;-inkscape-stroke:none"
                   d="m -21.951787,379.73715 1.390873,-0.55282 -3.820485,-0.49475 2.98243,2.43844 z"
                   id="path8386" />
                <path
                   style="color:#000000;fill:#006680;fill-rule:evenodd;-inkscape-stroke:none"
                   d="m -24.853516,378.48633 3.78711,3.0957 -0.701172,-1.76562 1.765625,-0.70118 z m 0.94336,0.40625 2.791015,0.36133 -1.015625,0.40429 0.05273,0.13086 0.353515,0.88867 z"
                   id="path8388" />
              </g>
            </g>
          </g>
          <g
             aria-label="PTS2"
             id="text4116-15"
             style="font-size:10.5833px;font-family:Helvetica;-inkscape-font-specification:Helvetica;letter-spacing:0px;word-spacing:0px;stroke-width:0.264583">
            <path
               d="m -3.1465354,368.76359 h 1.6157233 c 0.4021669,0 0.71966714,-0.11995 0.99483399,-0.36689 0.31044464,-0.28222 0.44450028,-0.61383 0.44450028,-1.08656 0,-0.96661 -0.57150037,-1.50989 -1.58750107,-1.50989 h -2.1237235 v 5.14351 h 0.656167 z m 0,-0.57856 v -1.80622 h 1.3687787 c 0.6279449,0 1.00188954,0.33867 1.00188954,0.90311 0,0.56445 -0.37394464,0.90311 -1.00188954,0.90311 z"
               id="path8392" />
            <path
               d="m 2.6531248,366.37881 h 1.6862789 v -0.57856 H 0.30362331 v 0.57856 H 1.9969577 v 4.56495 h 0.6561671 z"
               id="path8394" />
            <path
               d="m 8.4951043,367.31014 c 0,-0.35278 -0.021167,-0.45155 -0.1340557,-0.69144 -0.2822224,-0.59267 -0.881945,-0.90311 -1.7497789,-0.90311 -1.1288896,0 -1.8273901,0.57855 -1.8273901,1.50989 0,0.62794 0.3316114,1.02305 1.0089451,1.19944 l 1.2770564,0.33867 c 0.6561671,0.16933 0.9454451,0.43039 0.9454451,0.83255 0,0.27517 -0.1481668,0.55739 -0.3668892,0.71262 -0.2046112,0.14816 -0.529167,0.21872 -0.945445,0.21872 -0.5644448,0 -0.9383895,-0.13406 -1.1853341,-0.43039 -0.1905001,-0.22578 -0.2751669,-0.47272 -0.2681113,-0.79022 H 4.6286573 c 0.00706,0.47272 0.098778,0.78316 0.3033891,1.06539 0.352778,0.48683 0.9454451,0.73377 1.7286122,0.73377 0.6138338,0 1.1147785,-0.14111 1.4463898,-0.39511 0.3457225,-0.27516 0.5644449,-0.73378 0.5644449,-1.17828 0,-0.635 -0.3951114,-1.10066 -1.0936119,-1.29116 l -1.2911675,-0.34573 c -0.6208893,-0.16933 -0.8466672,-0.36688 -0.8466672,-0.762 0,-0.52211 0.4586114,-0.86783 1.1500563,-0.86783 0.818445,0 1.2770564,0.36689 1.284112,1.04422 z"
               id="path8396" />
            <path
               d="M 12.566161,370.32992 H 9.9344375 c 0.0635,-0.42333 0.2892775,-0.69144 0.9031115,-1.06539 l 0.705556,-0.39511 c 0.698501,-0.38805 1.058334,-0.91017 1.058334,-1.53811 0,-0.42333 -0.169333,-0.81845 -0.465667,-1.09361 -0.296333,-0.26811 -0.663222,-0.39511 -1.135945,-0.39511 -0.635,0 -1.1077229,0.22577 -1.3828897,0.66322 -0.176389,0.26811 -0.2540002,0.58561 -0.2681113,1.10067 h 0.6208893 c 0.021167,-0.34573 0.0635,-0.55034 0.1481667,-0.71967 0.162278,-0.31045 0.486834,-0.50095 0.860778,-0.50095 0.564445,0 0.987779,0.40923 0.987779,0.95956 0,0.40922 -0.232834,0.762 -0.677334,1.016 l -0.649112,0.381 c -1.0442224,0.59972 -1.3476115,1.0795 -1.404056,2.19428 h 3.330224 z"
               id="path8398" />
          </g>
          <g
             aria-label="PTS1"
             id="text4112-0"
             style="font-size:10.5833px;font-family:Helvetica;-inkscape-font-specification:Helvetica;letter-spacing:0px;word-spacing:0px;stroke-width:0.264583">
            <path
               d="m -33.186541,368.76359 h 1.615723 c 0.402167,0 0.719667,-0.11995 0.994834,-0.36689 0.310445,-0.28222 0.4445,-0.61383 0.4445,-1.08656 0,-0.96661 -0.5715,-1.50989 -1.587501,-1.50989 h -2.123723 v 5.14351 h 0.656167 z m 0,-0.57856 v -1.80622 h 1.368779 c 0.627944,0 1.001889,0.33867 1.001889,0.90311 0,0.56445 -0.373945,0.90311 -1.001889,0.90311 z"
               id="path8409" />
            <path
               d="m -27.386881,366.37881 h 1.686279 v -0.57856 h -4.03578 v 0.57856 h 1.693334 v 4.56495 h 0.656167 z"
               id="path8411" />
            <path
               d="m -21.544901,367.31014 c 0,-0.35278 -0.02117,-0.45155 -0.134056,-0.69144 -0.282222,-0.59267 -0.881945,-0.90311 -1.749779,-0.90311 -1.12889,0 -1.82739,0.57855 -1.82739,1.50989 0,0.62794 0.331611,1.02305 1.008945,1.19944 l 1.277056,0.33867 c 0.656168,0.16933 0.945445,0.43039 0.945445,0.83255 0,0.27517 -0.148166,0.55739 -0.366889,0.71262 -0.204611,0.14816 -0.529167,0.21872 -0.945445,0.21872 -0.564445,0 -0.938389,-0.13406 -1.185334,-0.43039 -0.1905,-0.22578 -0.275167,-0.47272 -0.268111,-0.79022 h -0.620889 c 0.0071,0.47272 0.09878,0.78316 0.303389,1.06539 0.352778,0.48683 0.945445,0.73377 1.728612,0.73377 0.613834,0 1.114778,-0.14111 1.44639,-0.39511 0.345722,-0.27516 0.564445,-0.73378 0.564445,-1.17828 0,-0.635 -0.395112,-1.10066 -1.093612,-1.29116 l -1.291168,-0.34573 c -0.620889,-0.16933 -0.846667,-0.36688 -0.846667,-0.762 0,-0.52211 0.458611,-0.86783 1.150056,-0.86783 0.818445,0 1.277057,0.36689 1.284112,1.04422 z"
               id="path8413" />
            <path
               d="m -19.216568,367.31014 v 3.63362 h 0.62089 v -5.10117 h -0.409223 c -0.218722,0.78316 -0.359833,0.889 -1.31939,1.016 v 0.45155 z"
               id="path8415" />
          </g>
          <g
             id="circle850-2">
            <path
               style="color:#000000;fill:#005293;stroke-width:0.396875;-inkscape-stroke:none"
               d="m 6.9302998,376.85153 a 2.8554811,2.8554811 0 0 1 -2.8554812,2.85548 2.8554811,2.8554811 0 0 1 -2.8554811,-2.85548 2.8554811,2.8554811 0 0 1 2.8554811,-2.85548 2.8554811,2.8554811 0 0 1 2.8554812,2.85548 z"
               id="path8428" />
            <path
               style="color:#000000;fill:#000000;-inkscape-stroke:none"
               d="m 4.0742187,373.79687 c -1.6842805,0 -3.0527343,1.37041 -3.0527343,3.05469 0,1.68428 1.3684538,3.05469 3.0527343,3.05469 1.6842806,0 3.0546875,-1.37041 3.0546875,-3.05469 0,-1.68428 -1.3704069,-3.05468 -3.0546875,-3.05469 z m 0,0.39844 c 1.4697937,0 2.6582032,1.18646 2.6582032,2.65625 0,1.4698 -1.1884095,2.65625 -2.6582032,2.65625 -1.4697936,0 -2.6562499,-1.18645 -2.65625,-2.65625 10e-8,-1.46979 1.1864564,-2.65625 2.65625,-2.65625 z"
               id="path8430" />
          </g>
          <g
             id="circle848-76">
            <path
               style="color:#000000;fill:#005293;stroke-width:0.396875;-inkscape-stroke:none"
               d="m -23.850535,376.85153 a 2.8554811,2.8554811 0 0 1 -2.855482,2.85548 2.8554811,2.8554811 0 0 1 -2.855481,-2.85548 2.8554811,2.8554811 0 0 1 2.855481,-2.85548 2.8554811,2.8554811 0 0 1 2.855482,2.85548 z"
               id="path8434" />
            <path
               style="color:#000000;fill:#000000;-inkscape-stroke:none"
               d="m -26.705078,373.79687 c -1.684281,0 -3.054688,1.37041 -3.054688,3.05469 0,1.68428 1.370407,3.05469 3.054688,3.05469 1.68428,0 3.052734,-1.37041 3.052734,-3.05469 0,-1.68428 -1.368454,-3.05468 -3.052734,-3.05469 z m 0,0.39844 c 1.469794,0 2.65625,1.18646 2.65625,2.65625 0,1.4698 -1.186456,2.65625 -2.65625,2.65625 -1.469794,0 -2.658203,-1.18645 -2.658203,-2.65625 0,-1.46979 1.188409,-2.65625 2.658203,-2.65625 z"
               id="path8436" />
          </g>
        </g>
      </g>
    </g>
  </g>
</svg>
