<?xml version="1.0" encoding="UTF-8" standalone="no"?>
<!-- Created with Inkscape (http://www.inkscape.org/) -->

<svg
   width="150.26456mm"
   height="100.26459mm"
   viewBox="0 0 150.26456 100.26459"
   version="1.1"
   id="svg8"
   inkscape:version="1.1.2 (0a00cf5339, 2022-02-04)"
   sodipodi:docname="sample_graph_print.svg"
   xmlns:inkscape="http://www.inkscape.org/namespaces/inkscape"
   xmlns:sodipodi="http://sodipodi.sourceforge.net/DTD/sodipodi-0.dtd"
   xmlns="http://www.w3.org/2000/svg"
   xmlns:svg="http://www.w3.org/2000/svg"
   xmlns:rdf="http://www.w3.org/1999/02/22-rdf-syntax-ns#"
   xmlns:cc="http://creativecommons.org/ns#"
   xmlns:dc="http://purl.org/dc/elements/1.1/">
  <defs
     id="defs2">
    <marker
       style="overflow:visible"
       id="marker25818"
       refX="0"
       refY="0"
       orient="auto"
       inkscape:stockid="Arrow1Lend"
       inkscape:isstock="true">
      <path
         transform="matrix(-0.8,0,0,-0.8,-10,0)"
         style="fill:context-stroke;fill-rule:evenodd;stroke:context-stroke;stroke-width:1pt"
         d="M 0,0 5,-5 -12.5,0 5,5 Z"
         id="path25816" />
    </marker>
    <marker
       style="overflow:visible"
       id="marker24543"
       refX="0"
       refY="0"
       orient="auto"
       inkscape:stockid="Arrow1Lend"
       inkscape:isstock="true">
      <path
         transform="matrix(-0.8,0,0,-0.8,-10,0)"
         style="fill:context-stroke;fill-rule:evenodd;stroke:context-stroke;stroke-width:1pt"
         d="M 0,0 5,-5 -12.5,0 5,5 Z"
         id="path24541" />
    </marker>
    <marker
       style="overflow:visible"
       id="marker24047"
       refX="0"
       refY="0"
       orient="auto"
       inkscape:stockid="Arrow1Lend"
       inkscape:isstock="true">
      <path
         transform="matrix(-0.8,0,0,-0.8,-10,0)"
         style="fill:context-stroke;fill-rule:evenodd;stroke:context-stroke;stroke-width:1pt"
         d="M 0,0 5,-5 -12.5,0 5,5 Z"
         id="path24045" />
    </marker>
    <marker
       style="overflow:visible"
       id="marker10879"
       refX="0"
       refY="0"
       orient="auto"
       inkscape:stockid="Arrow1Lend"
       inkscape:isstock="true">
      <path
         transform="matrix(-0.8,0,0,-0.8,-10,0)"
         style="fill:context-stroke;fill-rule:evenodd;stroke:context-stroke;stroke-width:1pt"
         d="M 0,0 5,-5 -12.5,0 5,5 Z"
         id="path10877" />
    </marker>
    <marker
       style="overflow:visible"
       id="marker10869"
       refX="0"
       refY="0"
       orient="auto"
       inkscape:stockid="Arrow1Lend"
       inkscape:isstock="true">
      <path
         transform="matrix(-0.8,0,0,-0.8,-10,0)"
         style="fill:context-stroke;fill-rule:evenodd;stroke:context-stroke;stroke-width:1pt"
         d="M 0,0 5,-5 -12.5,0 5,5 Z"
         id="path10867" />
    </marker>
    <marker
       style="overflow:visible"
       id="marker10612"
       refX="0"
       refY="0"
       orient="auto"
       inkscape:stockid="Arrow1Lend"
       inkscape:isstock="true">
      <path
         transform="matrix(-0.8,0,0,-0.8,-10,0)"
         style="fill:context-stroke;fill-rule:evenodd;stroke:context-stroke;stroke-width:1pt"
         d="M 0,0 5,-5 -12.5,0 5,5 Z"
         id="path10610" />
    </marker>
    <marker
       style="overflow:visible"
       id="marker10602"
       refX="0"
       refY="0"
       orient="auto"
       inkscape:stockid="Arrow1Lend"
       inkscape:isstock="true">
      <path
         transform="matrix(-0.8,0,0,-0.8,-10,0)"
         style="fill:context-stroke;fill-rule:evenodd;stroke:context-stroke;stroke-width:1pt"
         d="M 0,0 5,-5 -12.5,0 5,5 Z"
         id="path10600" />
    </marker>
    <marker
       style="overflow:visible"
       id="marker9376"
       refX="0"
       refY="0"
       orient="auto"
       inkscape:stockid="Arrow1Lstart"
       inkscape:isstock="true">
      <path
         transform="matrix(0.8,0,0,0.8,10,0)"
         style="fill:context-stroke;fill-rule:evenodd;stroke:context-stroke;stroke-width:1pt"
         d="M 0,0 5,-5 -12.5,0 5,5 Z"
         id="path9374" />
    </marker>
    <marker
       style="overflow:visible"
       id="marker8936"
       refX="0"
       refY="0"
       orient="auto"
       inkscape:stockid="Arrow1Lend"
       inkscape:isstock="true">
      <path
         transform="matrix(-0.8,0,0,-0.8,-10,0)"
         style="fill:context-stroke;fill-rule:evenodd;stroke:context-stroke;stroke-width:1pt"
         d="M 0,0 5,-5 -12.5,0 5,5 Z"
         id="path8670" />
    </marker>
    <marker
       style="overflow:visible"
       id="Arrow1Lstart"
       refX="0"
       refY="0"
       orient="auto"
       inkscape:stockid="Arrow1Lstart"
       inkscape:isstock="true">
      <path
         transform="matrix(0.8,0,0,0.8,10,0)"
         style="fill:context-stroke;fill-rule:evenodd;stroke:context-stroke;stroke-width:1pt"
         d="M 0,0 5,-5 -12.5,0 5,5 Z"
         id="path8667" />
    </marker>
    <marker
       inkscape:isstock="true"
       style="overflow:visible"
       id="marker26728"
       refX="0"
       refY="0"
       orient="auto"
       inkscape:stockid="Arrow1Lend">
      <path
         transform="matrix(-0.8,0,0,-0.8,-10,0)"
         style="fill:#5aa02c;fill-opacity:1;fill-rule:evenodd;stroke:#5aa02c;stroke-width:1pt;stroke-opacity:1"
         d="M 0,0 5,-5 -12.5,0 5,5 Z"
         id="path26726"
         inkscape:connector-curvature="0" />
    </marker>
    <marker
       inkscape:stockid="Arrow1Lend"
       orient="auto"
       refY="0"
       refX="0"
       id="marker14988"
       style="overflow:visible"
       inkscape:isstock="true">
      <path
         id="path14986"
         d="M 0,0 5,-5 -12.5,0 5,5 Z"
         style="fill:#bc5fd3;fill-opacity:1;fill-rule:evenodd;stroke:#bc5fd3;stroke-width:1pt;stroke-opacity:1"
         transform="matrix(-0.8,0,0,-0.8,-10,0)"
         inkscape:connector-curvature="0" />
    </marker>
    <marker
       inkscape:isstock="true"
       style="overflow:visible"
       id="marker12740"
       refX="0"
       refY="0"
       orient="auto"
       inkscape:stockid="Arrow1Lend">
      <path
         inkscape:connector-curvature="0"
         transform="matrix(-0.8,0,0,-0.8,-10,0)"
         style="fill:#aa0000;fill-opacity:1;fill-rule:evenodd;stroke:#aa0000;stroke-width:1pt;stroke-opacity:1"
         d="M 0,0 5,-5 -12.5,0 5,5 Z"
         id="path12738" />
    </marker>
    <marker
       inkscape:isstock="true"
       style="overflow:visible"
       id="marker12248"
       refX="0"
       refY="0"
       orient="auto"
       inkscape:stockid="Arrow1Lend">
      <path
         inkscape:connector-curvature="0"
         transform="matrix(-0.8,0,0,-0.8,-10,0)"
         style="fill:#aa0000;fill-opacity:1;fill-rule:evenodd;stroke:#aa0000;stroke-width:1pt;stroke-opacity:1"
         d="M 0,0 5,-5 -12.5,0 5,5 Z"
         id="path12246" />
    </marker>
    <marker
       inkscape:isstock="true"
       style="overflow:visible"
       id="marker47792"
       refX="0"
       refY="0"
       orient="auto"
       inkscape:stockid="Arrow1Lend">
      <path
         transform="matrix(-0.8,0,0,-0.8,-10,0)"
         style="fill:#006680;fill-opacity:1;fill-rule:evenodd;stroke:#006680;stroke-width:1pt;stroke-opacity:1"
         d="M 0,0 5,-5 -12.5,0 5,5 Z"
         id="path47790" />
    </marker>
    <marker
       inkscape:stockid="Arrow1Lstart"
       orient="auto"
       refY="0"
       refX="0"
       id="marker47650"
       style="overflow:visible"
       inkscape:isstock="true">
      <path
         id="path47648"
         d="M 0,0 5,-5 -12.5,0 5,5 Z"
         style="fill:#006680;fill-opacity:1;fill-rule:evenodd;stroke:#006680;stroke-width:1pt;stroke-opacity:1"
         transform="matrix(0.8,0,0,0.8,10,0)" />
    </marker>
    <marker
       inkscape:isstock="true"
       style="overflow:visible"
       id="marker44428"
       refX="0"
       refY="0"
       orient="auto"
       inkscape:stockid="Arrow1Lend">
      <path
         transform="matrix(-0.8,0,0,-0.8,-10,0)"
         style="fill:#5aa02c;fill-opacity:1;fill-rule:evenodd;stroke:#5aa02c;stroke-width:1pt;stroke-opacity:1"
         d="M 0,0 5,-5 -12.5,0 5,5 Z"
         id="path44426" />
    </marker>
    <marker
       inkscape:stockid="Arrow1Lend"
       orient="auto"
       refY="0"
       refX="0"
       id="marker37713"
       style="overflow:visible"
       inkscape:isstock="true">
      <path
         id="path37711"
         d="M 0,0 5,-5 -12.5,0 5,5 Z"
         style="fill:#bc5fd3;fill-opacity:1;fill-rule:evenodd;stroke:#bc5fd3;stroke-width:1pt;stroke-opacity:1"
         transform="matrix(-0.8,0,0,-0.8,-10,0)" />
    </marker>
    <marker
       inkscape:stockid="Arrow1Lend"
       orient="auto"
       refY="0"
       refX="0"
       id="marker37203"
       style="overflow:visible"
       inkscape:isstock="true">
      <path
         id="path37201"
         d="M 0,0 5,-5 -12.5,0 5,5 Z"
         style="fill:#aa0000;fill-opacity:1;fill-rule:evenodd;stroke:#aa0000;stroke-width:1pt;stroke-opacity:1"
         transform="matrix(-0.8,0,0,-0.8,-10,0)"
         inkscape:connector-curvature="0" />
    </marker>
    <marker
       inkscape:isstock="true"
       style="overflow:visible"
       id="marker31431"
       refX="0"
       refY="0"
       orient="auto"
       inkscape:stockid="Arrow1Lend">
      <path
         transform="matrix(-0.8,0,0,-0.8,-10,0)"
         style="fill:#006680;fill-opacity:1;fill-rule:evenodd;stroke:#006680;stroke-width:1pt;stroke-opacity:1"
         d="M 0,0 5,-5 -12.5,0 5,5 Z"
         id="path31429" />
    </marker>
    <marker
       inkscape:stockid="Arrow1Lstart"
       orient="auto"
       refY="0"
       refX="0"
       id="marker31319"
       style="overflow:visible"
       inkscape:isstock="true">
      <path
         id="path31317"
         d="M 0,0 5,-5 -12.5,0 5,5 Z"
         style="fill:#006680;fill-opacity:1;fill-rule:evenodd;stroke:#006680;stroke-width:1pt;stroke-opacity:1"
         transform="matrix(0.8,0,0,0.8,10,0)" />
    </marker>
    <marker
       inkscape:isstock="true"
       style="overflow:visible"
       id="marker12631"
       refX="0"
       refY="0"
       orient="auto"
       inkscape:stockid="Arrow1Lend">
      <path
         transform="matrix(-0.8,0,0,-0.8,-10,0)"
         style="fill:#006680;fill-opacity:1;fill-rule:evenodd;stroke:#006680;stroke-width:1pt;stroke-opacity:1"
         d="M 0,0 5,-5 -12.5,0 5,5 Z"
         id="path12629"
         inkscape:connector-curvature="0" />
    </marker>
    <marker
       inkscape:stockid="Arrow1Lstart"
       orient="auto"
       refY="0"
       refX="0"
       id="marker12537"
       style="overflow:visible"
       inkscape:isstock="true">
      <path
         id="path12535"
         d="M 0,0 5,-5 -12.5,0 5,5 Z"
         style="fill:#006680;fill-opacity:1;fill-rule:evenodd;stroke:#006680;stroke-width:1pt;stroke-opacity:1"
         transform="matrix(0.8,0,0,0.8,10,0)"
         inkscape:connector-curvature="0" />
    </marker>
    <marker
       inkscape:isstock="true"
       style="overflow:visible"
       id="marker3982"
       refX="0"
       refY="0"
       orient="auto"
       inkscape:stockid="Arrow1Lend">
      <path
         transform="matrix(-0.8,0,0,-0.8,-10,0)"
         style="fill:#aa0000;fill-opacity:1;fill-rule:evenodd;stroke:#aa0000;stroke-width:1pt;stroke-opacity:1"
         d="M 0,0 5,-5 -12.5,0 5,5 Z"
         id="path3980" />
    </marker>
    <marker
       inkscape:isstock="true"
       style="overflow:visible"
       id="marker3908"
       refX="0"
       refY="0"
       orient="auto"
       inkscape:stockid="Arrow1Lend">
      <path
         transform="matrix(-0.8,0,0,-0.8,-10,0)"
         style="fill:#aa0000;fill-opacity:1;fill-rule:evenodd;stroke:#aa0000;stroke-width:1pt;stroke-opacity:1"
         d="M 0,0 5,-5 -12.5,0 5,5 Z"
         id="path3906" />
    </marker>
    <marker
       inkscape:isstock="true"
       style="overflow:visible"
       id="marker3898"
       refX="0"
       refY="0"
       orient="auto"
       inkscape:stockid="Arrow1Lend">
      <path
         transform="matrix(-0.8,0,0,-0.8,-10,0)"
         style="fill:#aa0000;fill-opacity:1;fill-rule:evenodd;stroke:#aa0000;stroke-width:1pt;stroke-opacity:1"
         d="M 0,0 5,-5 -12.5,0 5,5 Z"
         id="path3896" />
    </marker>
    <marker
       inkscape:stockid="Arrow1Lend"
       orient="auto"
       refY="0"
       refX="0"
       id="marker3620"
       style="overflow:visible"
       inkscape:isstock="true">
      <path
         id="path3618"
         d="M 0,0 5,-5 -12.5,0 5,5 Z"
         style="fill:#000000;fill-opacity:1;fill-rule:evenodd;stroke:#000000;stroke-width:1pt;stroke-opacity:1"
         transform="matrix(-0.8,0,0,-0.8,-10,0)" />
    </marker>
    <marker
       inkscape:stockid="Arrow1Lend"
       orient="auto"
       refY="0"
       refX="0"
       id="Arrow1Lend"
       style="overflow:visible"
       inkscape:isstock="true">
      <path
         id="path873"
         d="M 0,0 5,-5 -12.5,0 5,5 Z"
         style="fill:#000000;fill-opacity:1;fill-rule:evenodd;stroke:#000000;stroke-width:1pt;stroke-opacity:1"
         transform="matrix(-0.8,0,0,-0.8,-10,0)" />
    </marker>
    <marker
       inkscape:isstock="true"
       style="overflow:visible"
       id="marker3898-5-9"
       refX="0"
       refY="0"
       orient="auto"
       inkscape:stockid="Arrow1Lend">
      <path
         inkscape:connector-curvature="0"
         transform="matrix(-0.8,0,0,-0.8,-10,0)"
         style="fill:#aa0000;fill-opacity:1;fill-rule:evenodd;stroke:#aa0000;stroke-width:1pt;stroke-opacity:1"
         d="M 0,0 5,-5 -12.5,0 5,5 Z"
         id="path3896-6-1" />
    </marker>
    <marker
       inkscape:isstock="true"
       style="overflow:visible"
       id="marker3972-7"
       refX="0"
       refY="0"
       orient="auto"
       inkscape:stockid="Arrow1Lend">
      <path
         inkscape:connector-curvature="0"
         transform="matrix(-0.8,0,0,-0.8,-10,0)"
         style="fill:#aa0000;fill-opacity:1;fill-rule:evenodd;stroke:#aa0000;stroke-width:1pt;stroke-opacity:1"
         d="M 0,0 5,-5 -12.5,0 5,5 Z"
         id="path3970-0" />
    </marker>
    <marker
       inkscape:isstock="true"
       style="overflow:visible"
       id="marker3972-3"
       refX="0"
       refY="0"
       orient="auto"
       inkscape:stockid="Arrow1Lend">
      <path
         inkscape:connector-curvature="0"
         transform="matrix(-0.8,0,0,-0.8,-10,0)"
         style="fill:#aa0000;fill-opacity:1;fill-rule:evenodd;stroke:#aa0000;stroke-width:1pt;stroke-opacity:1"
         d="M 0,0 5,-5 -12.5,0 5,5 Z"
         id="path3970-6" />
    </marker>
    <marker
       inkscape:isstock="true"
       style="overflow:visible"
       id="marker3972-6"
       refX="0"
       refY="0"
       orient="auto"
       inkscape:stockid="Arrow1Lend">
      <path
         inkscape:connector-curvature="0"
         transform="matrix(-0.8,0,0,-0.8,-10,0)"
         style="fill:#aa0000;fill-opacity:1;fill-rule:evenodd;stroke:#aa0000;stroke-width:1pt;stroke-opacity:1"
         d="M 0,0 5,-5 -12.5,0 5,5 Z"
         id="path3970-2" />
    </marker>
    <marker
       inkscape:isstock="true"
       style="overflow:visible"
       id="marker12248-7"
       refX="0"
       refY="0"
       orient="auto"
       inkscape:stockid="Arrow1Lend">
      <path
         inkscape:connector-curvature="0"
         transform="matrix(-0.8,0,0,-0.8,-10,0)"
         style="fill:#aa0000;fill-opacity:1;fill-rule:evenodd;stroke:#aa0000;stroke-width:1pt;stroke-opacity:1"
         d="M 0,0 5,-5 -12.5,0 5,5 Z"
         id="path12246-9" />
    </marker>
    <marker
       inkscape:isstock="true"
       style="overflow:visible"
       id="marker12740-2"
       refX="0"
       refY="0"
       orient="auto"
       inkscape:stockid="Arrow1Lend">
      <path
         inkscape:connector-curvature="0"
         transform="matrix(-0.8,0,0,-0.8,-10,0)"
         style="fill:#aa0000;fill-opacity:1;fill-rule:evenodd;stroke:#aa0000;stroke-width:1pt;stroke-opacity:1"
         d="M 0,0 5,-5 -12.5,0 5,5 Z"
         id="path12738-0" />
    </marker>
    <marker
       inkscape:isstock="true"
       style="overflow:visible"
       id="marker31431-0"
       refX="0"
       refY="0"
       orient="auto"
       inkscape:stockid="Arrow1Lend">
      <path
         inkscape:connector-curvature="0"
         transform="matrix(-0.8,0,0,-0.8,-10,0)"
         style="fill:#006680;fill-opacity:1;fill-rule:evenodd;stroke:#006680;stroke-width:1pt;stroke-opacity:1"
         d="M 0,0 5,-5 -12.5,0 5,5 Z"
         id="path31429-3" />
    </marker>
    <marker
       inkscape:isstock="true"
       style="overflow:visible"
       id="marker47792-0"
       refX="0"
       refY="0"
       orient="auto"
       inkscape:stockid="Arrow1Lend">
      <path
         inkscape:connector-curvature="0"
         transform="matrix(-0.8,0,0,-0.8,-10,0)"
         style="fill:#006680;fill-opacity:1;fill-rule:evenodd;stroke:#006680;stroke-width:1pt;stroke-opacity:1"
         d="M 0,0 5,-5 -12.5,0 5,5 Z"
         id="path47790-6" />
    </marker>
    <marker
       style="overflow:visible"
       id="marker25818-3"
       refX="0"
       refY="0"
       orient="auto"
       inkscape:stockid="Arrow1Lend"
       inkscape:isstock="true">
      <path
         transform="matrix(-0.8,0,0,-0.8,-10,0)"
         style="fill:context-stroke;fill-rule:evenodd;stroke:context-stroke;stroke-width:1pt"
         d="M 0,0 5,-5 -12.5,0 5,5 Z"
         id="path25816-6" />
    </marker>
    <marker
       style="overflow:visible"
       id="marker28597"
       refX="0"
       refY="0"
       orient="auto"
       inkscape:stockid="Arrow1Lend"
       inkscape:isstock="true">
      <path
         transform="matrix(-0.8,0,0,-0.8,-10,0)"
         style="fill:context-stroke;fill-rule:evenodd;stroke:context-stroke;stroke-width:1pt"
         d="M 0,0 5,-5 -12.5,0 5,5 Z"
         id="path28595" />
    </marker>
    <marker
       style="overflow:visible"
       id="marker28601"
       refX="0"
       refY="0"
       orient="auto"
       inkscape:stockid="Arrow1Lend"
       inkscape:isstock="true">
      <path
         transform="matrix(-0.8,0,0,-0.8,-10,0)"
         style="fill:context-stroke;fill-rule:evenodd;stroke:context-stroke;stroke-width:1pt"
         d="M 0,0 5,-5 -12.5,0 5,5 Z"
         id="path28599" />
    </marker>
    <marker
       style="overflow:visible"
       id="marker28605"
       refX="0"
       refY="0"
       orient="auto"
       inkscape:stockid="Arrow1Lend"
       inkscape:isstock="true">
      <path
         transform="matrix(-0.8,0,0,-0.8,-10,0)"
         style="fill:context-stroke;fill-rule:evenodd;stroke:context-stroke;stroke-width:1pt"
         d="M 0,0 5,-5 -12.5,0 5,5 Z"
         id="path28603" />
    </marker>
    <marker
       inkscape:isstock="true"
       style="overflow:visible"
       id="marker31431-0-7"
       refX="0"
       refY="0"
       orient="auto"
       inkscape:stockid="Arrow1Lend">
      <path
         inkscape:connector-curvature="0"
         transform="matrix(-0.8,0,0,-0.8,-10,0)"
         style="fill:#006680;fill-opacity:1;fill-rule:evenodd;stroke:#006680;stroke-width:1pt;stroke-opacity:1"
         d="M 0,0 5,-5 -12.5,0 5,5 Z"
         id="path31429-3-5" />
    </marker>
    <marker
       style="overflow:visible"
       id="marker9376-3"
       refX="0"
       refY="0"
       orient="auto"
       inkscape:stockid="Arrow1Lstart"
       inkscape:isstock="true">
      <path
         transform="matrix(0.8,0,0,0.8,10,0)"
         style="fill:context-stroke;fill-rule:evenodd;stroke:context-stroke;stroke-width:1pt"
         d="M 0,0 5,-5 -12.5,0 5,5 Z"
         id="path9374-5" />
    </marker>
    <marker
       style="overflow:visible"
       id="marker25818-6"
       refX="0"
       refY="0"
       orient="auto"
       inkscape:stockid="Arrow1Lend"
       inkscape:isstock="true">
      <path
         transform="matrix(-0.8,0,0,-0.8,-10,0)"
         style="fill:context-stroke;fill-rule:evenodd;stroke:context-stroke;stroke-width:1pt"
         d="M 0,0 5,-5 -12.5,0 5,5 Z"
         id="path25816-2" />
    </marker>
    <marker
       style="overflow:visible"
       id="marker29045"
       refX="0"
       refY="0"
       orient="auto"
       inkscape:stockid="Arrow1Lend"
       inkscape:isstock="true">
      <path
         transform="matrix(-0.8,0,0,-0.8,-10,0)"
         style="fill:context-stroke;fill-rule:evenodd;stroke:context-stroke;stroke-width:1pt"
         d="M 0,0 5,-5 -12.5,0 5,5 Z"
         id="path29043" />
    </marker>
    <marker
       style="overflow:visible"
       id="marker25818-9"
       refX="0"
       refY="0"
       orient="auto"
       inkscape:stockid="Arrow1Lend"
       inkscape:isstock="true">
      <path
         transform="matrix(-0.8,0,0,-0.8,-10,0)"
         style="fill:context-stroke;fill-rule:evenodd;stroke:context-stroke;stroke-width:1pt"
         d="M 0,0 5,-5 -12.5,0 5,5 Z"
         id="path25816-1" />
    </marker>
    <marker
       style="overflow:visible"
       id="marker29246"
       refX="0"
       refY="0"
       orient="auto"
       inkscape:stockid="Arrow1Lend"
       inkscape:isstock="true">
      <path
         transform="matrix(-0.8,0,0,-0.8,-10,0)"
         style="fill:context-stroke;fill-rule:evenodd;stroke:context-stroke;stroke-width:1pt"
         d="M 0,0 5,-5 -12.5,0 5,5 Z"
         id="path29244" />
    </marker>
    <marker
       inkscape:isstock="true"
       style="overflow:visible"
       id="marker31431-0-7-2"
       refX="0"
       refY="0"
       orient="auto"
       inkscape:stockid="Arrow1Lend">
      <path
         inkscape:connector-curvature="0"
         transform="matrix(-0.8,0,0,-0.8,-10,0)"
         style="fill:#006680;fill-opacity:1;fill-rule:evenodd;stroke:#006680;stroke-width:1pt;stroke-opacity:1"
         d="M 0,0 5,-5 -12.5,0 5,5 Z"
         id="path31429-3-5-7" />
    </marker>
    <marker
       style="overflow:visible"
       id="marker9376-3-0"
       refX="0"
       refY="0"
       orient="auto"
       inkscape:stockid="Arrow1Lstart"
       inkscape:isstock="true">
      <path
         transform="matrix(0.8,0,0,0.8,10,0)"
         style="fill:context-stroke;fill-rule:evenodd;stroke:context-stroke;stroke-width:1pt"
         d="M 0,0 5,-5 -12.5,0 5,5 Z"
         id="path9374-5-9" />
    </marker>
  </defs>
  <sodipodi:namedview
     id="base"
     pagecolor="#ffffff"
     bordercolor="#666666"
     borderopacity="1.0"
     inkscape:pageopacity="0.0"
     inkscape:pageshadow="2"
     inkscape:zoom="1.1277132"
     inkscape:cx="273.56246"
     inkscape:cy="183.11393"
     inkscape:document-units="mm"
     inkscape:current-layer="g4870"
     showgrid="false"
     inkscape:window-width="1920"
     inkscape:window-height="1016"
     inkscape:window-x="0"
     inkscape:window-y="0"
     inkscape:window-maximized="1"
     inkscape:snap-intersection-paths="true"
     inkscape:snap-object-midpoints="true"
     inkscape:snap-smooth-nodes="true"
     showguides="true"
     inkscape:guide-bbox="true"
     inkscape:object-nodes="true"
     inkscape:pagecheckerboard="0"
     fit-margin-top="0"
     fit-margin-left="0"
     fit-margin-right="0"
     fit-margin-bottom="0" />
  <metadata
     id="metadata5">
    <rdf:RDF>
      <cc:Work
         rdf:about="">
        <dc:format>image/svg+xml</dc:format>
        <dc:type
           rdf:resource="http://purl.org/dc/dcmitype/StillImage" />
      </cc:Work>
    </rdf:RDF>
  </metadata>
  <g
     inkscape:label="Layer 1"
     inkscape:groupmode="layer"
     id="layer1"
     transform="translate(-15.364726,-84.337946)">
    <g
       id="g4870">
      <g
         id="path31315">
        <path
           style="color:#000000;fill:#005293;-inkscape-stroke:none"
           d="m 87.058594,109.76563 c -11.527556,-0.0438 -24.451409,2.76095 -37.94336,10.7246 l 0.269532,0.45508 c 17.881937,-10.55485 34.715396,-11.98062 48.621093,-9.75 13.905701,2.23063 24.881921,8.12633 30.992191,12.21875 l 0.29297,-0.43945 c -6.15839,-4.12466 -17.19457,-10.05397 -31.201176,-12.30078 -3.501651,-0.5617 -7.188732,-0.89361 -11.03125,-0.9082 z"
           id="path5017" />
        <g
           id="g5007">
          <g
             id="path5009">
            <path
               style="color:#000000;fill:#005293;fill-rule:evenodd;stroke-width:0.423334pt;-inkscape-stroke:none"
               d="m 124.748,120.24991 -2.93654,0.58078 7.33318,2.36393 -4.97742,-5.88125 z"
               id="path5013" />
            <path
               style="color:#000000;fill:#005293;fill-rule:evenodd;-inkscape-stroke:none"
               d="m 123.67969,116.29883 0.73633,3.72851 -3.72852,0.73829 9.31055,3 z m 0.97656,2.0293 3.63477,4.29492 -5.35547,-1.72657 2.14453,-0.42382 -0.0547,-0.27735 z"
               id="path5015" />
          </g>
        </g>
      </g>
      <path
         style="color:#000000;fill:#000000;-inkscape-stroke:none"
         d="m 15.365234,84.337891 v 0.132812 50.130857 H 65.628906 V 84.337891 Z m 0.263672,0.263671 H 65.365234 V 134.33789 H 15.628906 Z"
         id="rect815" />
      <path
         style="color:#000000;fill:#000000;-inkscape-stroke:none"
         d="m 15.365234,134.33789 v 0.13281 50.13086 h 50.263672 v -50.26367 z m 0.263672,0.26367 h 49.736328 v 49.73633 H 15.628906 Z"
         id="rect826" />
      <path
         style="color:#000000;fill:#000000;-inkscape-stroke:none"
         d="m 65.365234,84.337891 v 0.132812 50.130857 H 115.62891 V 84.337891 Z m 0.263672,0.263671 H 115.36523 V 134.33789 H 65.628906 Z"
         id="rect828" />
      <path
         style="color:#000000;fill:#000000;-inkscape-stroke:none"
         d="m 65.365234,134.33789 v 0.13281 50.13086 h 50.263676 v -50.26367 z m 0.263672,0.26367 h 49.736324 v 49.73633 H 65.628906 Z"
         id="rect830" />
      <g
         id="path37709"
         style="opacity:0.6">
        <path
           style="color:#000000;fill:#555555;stroke-dasharray:1.05833, 0.529167;-inkscape-stroke:none"
           d="m 98.529297,96.556641 c -0.354003,-8.85e-4 -0.707086,9.28e-4 -1.060547,0.0039 l 0.0039,0.529297 c 0.352064,-0.003 0.703141,-0.0048 1.054688,-0.0039 z m 0.529297,0.002 v 0.529297 c 0.351811,4.3e-4 0.702959,0.0015 1.054686,0.0059 l 0.006,-0.527344 c -0.353768,-0.0044 -0.706806,-0.0074 -1.060546,-0.0078 z m -2.119141,0.0059 c -0.354143,0.0026 -0.707375,0.0093 -1.060547,0.01563 l 0.0098,0.527344 c 0.352264,-0.0063 0.703297,-0.01104 1.054687,-0.01367 z m 3.708987,0.0078 -0.006,0.529296 c 0.35151,0.0039 0.70272,0.0097 1.05469,0.01758 l 0.0117,-0.529297 c -0.35341,-0.0079 -0.70654,-0.01362 -1.06054,-0.01758 z m -5.300784,0.01563 -0.728515,0.01563 -0.330079,0.0098 0.01367,0.529297 0.328125,-0.0098 0.728516,-0.01563 z m 6.892574,0.01367 -0.0137,0.529297 0.72071,0.01758 0.33593,0.01172 0.0156,-0.529297 -0.33594,-0.0098 z m -8.482418,0.02539 -0.697265,0.02148 -0.361328,0.01367 0.01953,0.529297 0.359375,-0.01367 0.697266,-0.02148 z m 10.070318,0.02148 -0.0176,0.529297 0.60547,0.02148 0.44921,0.01758 0.0234,-0.527344 -0.45312,-0.01953 z m -11.658208,0.0332 -0.677735,0.02734 -0.380859,0.01758 0.02344,0.529297 0.378906,-0.01758 0.677734,-0.02734 z m 13.248048,0.0293 -0.0254,0.529297 0.47656,0.02148 0.58008,0.0293 0.0273,-0.527344 -0.58008,-0.0293 z m -14.835939,0.04102 -0.671875,0.0332 -0.386719,0.02148 0.0293,0.527343 0.384766,-0.02148 0.669922,-0.0332 z m 16.423829,0.04102 -0.0293,0.527343 c 0.35189,0.01941 0.70232,0.0393 1.05274,0.0625 l 0.0351,-0.527343 c -0.35359,-0.02341 -0.706,-0.04305 -1.05859,-0.0625 z m -18.011719,0.04297 -0.675782,0.03906 -0.382812,0.02539 0.03516,0.527343 0.380859,-0.02344 0.673829,-0.04102 z m 19.599609,0.05469 -0.0352,0.527344 c 0.35099,0.02287 0.70211,0.04707 1.05274,0.07422 l 0.041,-0.527343 c -0.35282,-0.02732 -0.70551,-0.05121 -1.05859,-0.07422 z m -21.1875,0.04297 -0.691406,0.04883 -0.365235,0.02539 0.03906,0.529297 0.363281,-0.02734 0.691406,-0.04687 z m 22.77344,0.07227 -0.041,0.527344 c 0.35012,0.02673 0.70167,0.0571 1.05274,0.08789 l 0.0449,-0.527344 c -0.35178,-0.03086 -0.70326,-0.06091 -1.05664,-0.08789 z m -24.359378,0.04102 -0.71875,0.05664 -0.33789,0.02734 0.04492,0.527344 0.335937,-0.02734 0.716797,-0.05469 z m 25.945318,0.09375 -0.0488,0.527344 0.51758,0.04687 0.53515,0.05273 0.0508,-0.527344 -0.53515,-0.05273 z m -27.529302,0.03516 -0.759766,0.06641 -0.296875,0.02734 0.04883,0.525391 0.294921,-0.02539 0.757813,-0.06641 z m 29.111332,0.117188 -0.0527,0.527343 c 0.35042,0.03557 0.69991,0.0716 1.04883,0.111329 l 0.0586,-0.525391 c -0.3521,-0.04009 -0.70317,-0.0776 -1.05468,-0.113281 z m -30.695316,0.02344 -0.810547,0.07813 -0.244141,0.02539 0.05273,0.527344 0.24414,-0.02539 0.808594,-0.07813 z m 32.275386,0.150391 -0.0586,0.52539 c 0.34907,0.03931 0.6976,0.08114 1.04688,0.125 l 0.0664,-0.52539 c -0.35077,-0.04405 -0.70264,-0.08535 -1.05469,-0.125 z m -33.855464,0.0059 c -0.352083,0.0355 -0.705325,0.07425 -1.056641,0.113281 l 0.05859,0.525391 C 80.42414,98.072452 80.775089,98.035278 81.125,98 Z m -1.582032,0.171875 c -0.351554,0.03861 -0.701569,0.07888 -1.052734,0.121094 L 78.5,98.291016 c 0.349345,-0.04199 0.699046,-0.08268 1.048828,-0.121094 z m 37.019536,0.01367 -0.0684,0.525391 0.52539,0.06836 0.52148,0.07031 0.0703,-0.525391 -0.52148,-0.07031 z m -38.597661,0.169922 c -0.350932,0.04174 -0.701739,0.0836 -1.052734,0.128906 l 0.06641,0.525391 c 0.348752,-0.04502 0.699149,-0.08731 1.048828,-0.128906 z m 40.171871,0.04297 -0.0723,0.523437 c 0.34853,0.04867 0.69578,0.09907 1.04297,0.152344 l 0.0801,-0.523438 c -0.35021,-0.05374 -0.70055,-0.103432 -1.05079,-0.152343 z m -41.749996,0.154297 -0.287109,0.03711 -0.763672,0.101562 0.07031,0.525391 0.763671,-0.101562 0.285157,-0.03711 z m 43.324216,0.07813 -0.0801,0.523437 c 0.34678,0.05285 0.69507,0.110581 1.04296,0.167969 l 0.0859,-0.523438 c -0.34824,-0.05744 -0.69811,-0.114519 -1.04883,-0.167968 z m -44.900388,0.132812 -0.386718,0.05469 -0.66211,0.09375 0.07422,0.523437 0.662109,-0.09375 0.384766,-0.05273 z m 46.470708,0.123047 -0.0879,0.521484 c 0.3474,0.05862 0.69389,0.11863 1.03906,0.181641 l 0.0957,-0.521484 c -0.34892,-0.0637 -0.69856,-0.122874 -1.04687,-0.181641 z m -48.044926,0.101562 -0.496094,0.07422 -0.550781,0.08398 0.08008,0.523437 0.548828,-0.08398 0.496094,-0.07422 z m 49.611326,0.175782 -0.0937,0.519531 c 0.34518,0.06262 0.69132,0.129663 1.03711,0.197266 l 0.10156,-0.519532 c -0.34664,-0.06777 -0.69588,-0.133944 -1.04492,-0.197265 z m -51.183592,0.0625 -0.617187,0.09766 -0.427735,0.06836 0.08398,0.523438 0.427734,-0.07031 0.615234,-0.0957 z m 52.748052,0.238281 -0.10352,0.519531 c 0.3454,0.06873 0.69015,0.137496 1.0332,0.210938 l 0.11133,-0.517578 c -0.34687,-0.07426 -0.69443,-0.143927 -1.04101,-0.212891 z m -54.316411,0.01367 -0.75,0.125 -0.294922,0.05078 0.08789,0.521484 0.294922,-0.05078 0.748047,-0.125 z m -1.566407,0.263672 c -0.34877,0.05957 -0.69709,0.120621 -1.044921,0.183593 l 0.09375,0.521485 c 0.346433,-0.06272 0.69235,-0.124379 1.039062,-0.183594 z m 57.439458,0.04687 -0.10938,0.517578 c 0.34275,0.07305 0.68529,0.150426 1.0293,0.228513 l 0.11719,-0.515623 c -0.34403,-0.07809 -0.68981,-0.156446 -1.03711,-0.230468 z m -59.005864,0.232422 c -0.34781,0.06252 -0.695288,0.125384 -1.042969,0.191406 l 0.09766,0.519533 c 0.345485,-0.0656 0.692453,-0.1291 1.039062,-0.19141 z m 60.560544,0.117187 -0.11914,0.515622 c 0.34242,0.0791 0.68254,0.15952 1.02344,0.24414 l 0.12891,-0.513668 c -0.34388,-0.08536 -0.68817,-0.166405 -1.03321,-0.246094 z m -62.123044,0.173828 -0.33789,0.0625 -0.703125,0.136719 0.101562,0.519535 0.701172,-0.13672 0.335937,-0.0625 z M 129.01758,99.986328 128.88867,100.5 c 0.34205,0.0863 0.68317,0.17113 1.02149,0.26172 l 0.13671,-0.51172 c -0.34322,-0.0919 -0.68725,-0.17735 -1.02929,-0.263672 z m -65.230471,0.101562 -0.503906,0.10156 -0.535156,0.10743 0.105469,0.51953 0.535156,-0.10938 0.501953,-0.0996 z m 66.769531,0.29883 -0.13477,0.51172 c 0.3384,0.0903 0.67634,0.18711 1.01563,0.2832 l 0.14453,-0.50976 c -0.33954,-0.0962 -0.6821,-0.19352 -1.02539,-0.28516 z m -68.328124,0.0176 -0.677735,0.14258 -0.359375,0.0762 0.111328,0.51758 0.357422,-0.0762 0.675781,-0.14257 z m -1.554688,0.33008 -0.861328,0.1875 -0.173828,0.0391 0.115234,0.51562 0.171875,-0.0371 0.859375,-0.18945 z m 71.416012,0.084 -0.14453,0.50781 c 0.33716,0.0969 0.67176,0.19756 1.00781,0.30078 l 0.15625,-0.50586 c -0.33839,-0.10394 -0.6786,-0.20471 -1.01953,-0.30273 z m -72.968746,0.25781 -0.181641,0.041 -0.851562,0.19336 0.11914,0.51562 0.84961,-0.19336 0.179687,-0.0391 z m 74.494136,0.20117 -0.15625,0.50586 c 0.33558,0.10409 0.67086,0.21196 1.00391,0.32227 l 0.16602,-0.50391 c -0.33673,-0.11152 -0.67537,-0.21928 -1.01368,-0.32422 z m -76.042964,0.1543 -0.38086,0.0879 -0.65039,0.15625 0.123046,0.51367 0.648438,-0.15429 0.378906,-0.0879 z m 77.558594,0.33789 -0.16797,0.50195 c 0.33358,0.11161 0.66606,0.2242 0.99609,0.3418 l 0.17774,-0.49805 c -0.33459,-0.11922 -0.67035,-0.23345 -1.00586,-0.3457 z m -79.105469,0.0293 -0.585938,0.14258 -0.443359,0.10937 0.126953,0.51367 0.441406,-0.10937 0.585938,-0.14258 z m -1.544922,0.38086 -0.800782,0.20117 -0.224609,0.0586 0.130859,0.51172 0.22461,-0.0566 0.800781,-0.20312 z m 82.156251,0.11328 -0.17969,0.49805 c 0.3311,0.11932 0.66139,0.23997 0.98828,0.36523 l 0.18946,-0.49414 c -0.33195,-0.1272 -0.6654,-0.24926 -0.99805,-0.36914 z m -83.695314,0.2793 -0.142578,0.0371 -0.882812,0.23046 0.134765,0.51172 0.88086,-0.23047 0.142578,-0.0371 z m 85.187504,0.27929 -0.19141,0.49414 c 0.32803,0.1271 0.65494,0.25529 0.97852,0.38868 l 0.20117,-0.49024 c -0.32873,-0.13551 -0.65843,-0.26477 -0.98828,-0.39258 z m 1.47851,0.59571 -0.20312,0.48828 c 0.32432,0.13494 0.6467,0.27206 0.96679,0.41406 l 0.21485,-0.48242 c -0.32485,-0.14411 -0.65143,-0.28383 -0.97852,-0.41992 z m 1.46289,0.63476 -0.21679,0.48242 c 0.31991,0.143 0.63854,0.29035 0.95507,0.44141 l 0.22852,-0.47656 c -0.32022,-0.15282 -0.64258,-0.30235 -0.9668,-0.44727 z m 1.44336,0.67578 -0.22851,0.47852 c 0.31467,0.15151 0.62813,0.30832 0.9414,0.46875 l 0.24024,-0.4707 c -0.3147,-0.16116 -0.63209,-0.322 -0.95313,-0.47657 z m 1.42578,0.72266 -0.24804,0.46875 c 0.31103,0.16497 0.62011,0.33042 0.92382,0.50195 l 0.25977,-0.46094 c -0.31064,-0.17544 -0.62331,-0.34414 -0.93555,-0.50976 z m 1.39649,0.76953 -0.26172,0.46094 c 0.30371,0.17295 0.60494,0.35245 0.9043,0.53515 l 0.27539,-0.45312 c -0.30289,-0.18486 -0.60857,-0.36678 -0.91797,-0.54297 z m 1.37304,0.82422 -0.2832,0.44726 c 0.29737,0.18748 0.59218,0.37525 0.88086,0.57032 l 0.29688,-0.4375 c -0.29594,-0.19996 -0.5951,-0.3913 -0.89454,-0.58008 z m 1.33399,0.87891 -0.29883,0.43554 c 0.28802,0.19737 0.57047,0.40113 0.85156,0.60938 l 0.31641,-0.42578 c -0.28577,-0.21172 -0.5752,-0.41771 -0.86914,-0.61914 z m 1.29297,0.93945 -0.31836,0.42187 c 0.27766,0.21045 0.54995,0.42798 0.82031,0.65039 l 0.33594,-0.4082 c -0.27448,-0.2258 -0.55326,-0.44834 -0.83789,-0.66406 z m 1.24609,1.00781 -0.3418,0.40234 c 0.2656,0.22541 0.52544,0.45759 0.78125,0.69532 l 0.36133,-0.38672 c -0.26099,-0.24254 -0.52846,-0.47982 -0.80078,-0.71094 z m 1.1875,1.07813 -0.36719,0.38086 c 0.25108,0.24144 0.49676,0.49014 0.73438,0.74414 l 0.38672,-0.36329 c -0.24435,-0.26118 -0.49648,-0.51417 -0.75391,-0.76171 z m 1.11524,1.15625 -0.39258,0.35351 c 0.23303,0.25786 0.45805,0.52387 0.67578,0.79492 l 0.41211,-0.33203 c -0.22408,-0.27896 -0.45532,-0.55085 -0.69531,-0.8164 z m 1.02734,1.23632 -0.42188,0.32227 c 0.21142,0.27645 0.41534,0.55782 0.60743,0.8457 l 0.43945,-0.29297 c -0.19949,-0.29898 -0.40787,-0.59107 -0.625,-0.875 z m 0.91797,1.32227 -0.44727,0.28516 c 0.18524,0.29177 0.3602,0.59077 0.52539,0.89648 l 0.46485,-0.25195 c -0.17019,-0.31495 -0.35007,-0.62584 -0.54297,-0.92969 z m 0.78906,1.4082 -0.47266,0.23633 c 0.15466,0.30812 0.29603,0.62415 0.42579,0.94531 l 0.49023,-0.19726 c -0.13451,-0.33292 -0.28154,-0.66196 -0.44336,-0.98438 z m 0.63477,1.48633 -0.4961,0.18164 c 0.11874,0.32317 0.22231,0.65268 0.3125,0.98633 l 0.50977,-0.13672 c -0.0939,-0.34736 -0.2016,-0.6922 -0.32617,-1.03125 z m 0.45703,1.55274 -0.51563,0.12109 c 0.0785,0.33456 0.14174,0.67335 0.18946,1.01562 l 0.52343,-0.0723 c -0.0497,-0.35641 -0.11459,-0.71216 -0.19726,-1.06445 z m 0.25976,1.5996 -0.52539,0.0547 c 0.0355,0.34138 0.0528,0.68538 0.0566,1.03125 l 0.5293,-0.006 c -0.004,-0.3595 -0.0231,-0.71972 -0.0606,-1.08008 z m -0.47461,1.60547 c -0.008,0.34338 -0.0346,0.68754 -0.0742,1.03125 l 0.5254,0.0606 c 0.0412,-0.35706 0.0693,-0.7162 0.0781,-1.07812 z m -0.14453,1.54688 c -0.051,0.3409 -0.11681,0.67963 -0.19726,1.01562 l 0.51367,0.12305 c 0.0838,-0.35006 0.15365,-0.70374 0.20703,-1.06055 z m -0.32617,1.52148 c -0.0912,0.33442 -0.19455,0.66495 -0.31055,0.99024 l 0.5,0.17773 c 0.12096,-0.3392 0.22593,-0.68312 0.32032,-1.0293 z m -0.49219,1.48047 c -0.12383,0.32306 -0.25968,0.64235 -0.40625,0.95703 l 0.48047,0.22266 c 0.15128,-0.3248 0.29125,-0.65457 0.41992,-0.99024 z m -0.63086,1.42774 c -0.15451,0.31144 -0.31799,0.61982 -0.49023,0.92187 l 0.45898,0.26172 c 0.17727,-0.31086 0.34485,-0.62666 0.50391,-0.94727 z m -0.75586,1.37304 c -0.17836,0.29851 -0.36437,0.59141 -0.55859,0.88086 l 0.43945,0.29492 c 0.1989,-0.29642 0.39068,-0.59712 0.57422,-0.90429 z m -0.85546,1.31446 c -0.20032,0.28618 -0.40448,0.56842 -0.61719,0.84375 l 0.41797,0.32226 c 0.21865,-0.28302 0.42854,-0.57145 0.63281,-0.86328 z m -0.94141,1.25781 c -0.21719,0.27367 -0.44001,0.5428 -0.66797,0.80664 l 0.40039,0.3457 c 0.23324,-0.26995 0.46032,-0.54533 0.68164,-0.82422 z m -1.01367,1.20312 c -0.2308,0.26197 -0.46782,0.51857 -0.70899,0.77149 l 0.38282,0.36523 c 0.24572,-0.2577 0.48703,-0.51967 0.72265,-0.78711 z m -1.07422,1.15235 c -0.24122,0.25044 -0.4917,0.49693 -0.74414,0.74218 l 0.36914,0.37891 c 0.25357,-0.24635 0.50761,-0.49617 0.75586,-0.75391 z m -1.125,1.10547 c -0.25126,0.23982 -0.51139,0.47362 -0.77344,0.71093 l 0.35547,0.39258 c 0.26085,-0.23623 0.52408,-0.47338 0.7832,-0.7207 z m -1.16602,1.05859 -0.39453,0.3418 -0.40625,0.34375 0.33985,0.40429 0.41015,-0.3457 0.39844,-0.34375 z m -1.20703,1.01953 c -0.26849,0.22191 -0.54493,0.43968 -0.82226,0.6582 l 0.32812,0.41407 c 0.27681,-0.21811 0.55473,-0.43649 0.83008,-0.66407 z m -1.23828,0.98047 c -0.2761,0.21428 -0.55673,0.42431 -0.83984,0.63281 l 0.3125,0.42578 c 0.28498,-0.20988 0.57027,-0.42232 0.85156,-0.64062 z m -1.26758,0.94336 c -0.28367,0.20697 -0.56772,0.41179 -0.85547,0.61133 l 0.30078,0.43554 c 0.29205,-0.20251 0.5809,-0.41026 0.86719,-0.61914 z m -1.28906,0.91211 -0.45117,0.30859 -0.42383,0.2832 0.29492,0.43946 0.42578,-0.28516 0.45313,-0.30859 z m -1.31445,0.88281 c -0.2929,0.19333 -0.5879,0.38337 -0.88477,0.57031 l 0.28125,0.44727 c 0.30017,-0.18902 0.59859,-0.38083 0.89453,-0.57617 z m -1.33008,0.85156 -0.50781,0.31641 -0.39258,0.23828 0.27539,0.45117 0.39258,-0.24023 0.51172,-0.31641 z m -1.35156,0.82617 c -0.30202,0.18135 -0.60293,0.36198 -0.90625,0.53711 l 0.26367,0.45704 c 0.30769,-0.17767 0.6112,-0.35917 0.91406,-0.54102 z m -1.36524,0.80079 -0.14062,0.082 0.26367,0.45898 0.14062,-0.082 z"
           id="path5047" />
        <g
           id="g5037">
          <g
             id="path5039">
            <path
               style="color:#000000;fill:#555555;fill-rule:evenodd;stroke-width:0.423334pt;-inkscape-stroke:none"
               d="m 142.19091,141.68609 0.78545,-2.88853 -5.37793,5.51739 7.48102,-1.84341 z"
               id="path5043" />
            <path
               style="color:#000000;fill:#555555;fill-rule:evenodd;-inkscape-stroke:none"
               d="m 143.53516,137.82031 -6.82813,7.00586 9.49805,-2.3418 -3.66797,-0.99609 z m -1.11719,1.95508 -0.57422,2.10938 0.27344,0.0742 1.83593,0.5 -5.46289,1.34571 z"
               id="path5045" />
          </g>
        </g>
      </g>
      <path
         style="color:#000000;fill:#000000;-inkscape-stroke:none"
         d="m 115.36523,84.337891 v 0.132812 50.130857 h 50.26368 V 84.337891 Z m 0.26368,0.263671 h 49.73632 v 49.736328 h -49.73632 z"
         id="rect832" />
      <path
         style="color:#000000;fill:#000000;-inkscape-stroke:none"
         d="m 115.36523,134.33789 v 0.13281 50.13086 h 50.26368 v -50.26367 z m 0.26368,0.26367 h 49.73632 v 49.73633 h -49.73632 z"
         id="rect834" />
      <g
         id="path868"
         style="opacity:0.6">
        <path
           style="color:#000000;fill:#555555;stroke-dasharray:1.05833, 0.529167;-inkscape-stroke:none"
           d="m 131.75781,125.7168 -0.52148,0.0879 0.17773,1.04297 0.52149,-0.0879 z m 0.26758,1.56445 -0.52148,0.0879 0.17773,1.04297 0.52148,-0.0879 z m 0.26758,1.56445 -0.52344,0.0899 0.17969,1.04297 0.52148,-0.0899 z m 0.26562,1.56446 -0.52148,0.0898 0.17969,1.04297 0.52148,-0.0898 z m 0.26758,1.56445 -0.52148,0.0898 0.17968,1.04297 0.52149,-0.0898 z m 0.26758,1.56445 -0.52148,0.0898 0.17773,1.04296 0.52148,-0.0879 z m 0.26758,1.56641 -0.52149,0.0879 0.17774,1.04297 0.52148,-0.0879 z m 0.26758,1.56445 -0.52149,0.0879 0.17774,1.04492 0.52148,-0.0898 z m 0.26757,1.56445 -0.52148,0.0898 0.17773,1.04297 0.52149,-0.0898 z m 0.26758,1.56446 -0.52148,0.0898 0.17773,1.04297 0.52149,-0.0898 z m 0.26758,1.56445 -0.52148,0.0898 0.17773,1.04297 0.52148,-0.0879 z"
           id="path5069" />
        <g
           id="g5059">
          <g
             id="path5061">
            <path
               style="color:#000000;fill:#555555;fill-rule:evenodd;stroke-width:0.423334pt;-inkscape-stroke:none"
               d="m 133.51869,137.59612 -2.4429,-1.72998 3.33405,6.94607 0.83883,-7.65899 z"
               id="path5065" />
            <path
               style="color:#000000;fill:#555555;fill-rule:evenodd;-inkscape-stroke:none"
               d="m 135.64844,134.10156 -2.19532,3.10156 -3.10351,-2.19726 4.23242,8.81836 z m -0.79883,2.10156 -0.61328,5.59571 -2.43555,-5.07227 1.78516,1.26367 0.16211,-0.23046 z"
               id="path5067" />
          </g>
        </g>
      </g>
      <g
         aria-label="PTS1"
         id="text4112"
         style="font-size:10.5833px;font-family:Helvetica;-inkscape-font-specification:Helvetica;letter-spacing:0px;word-spacing:0px;stroke-width:0.264583"
         transform="translate(-4.7625002)">
        <path
           d="m 28.94642,121.00702 h 1.615724 c 0.402166,0 0.719667,-0.11995 0.994833,-0.36689 0.310445,-0.28222 0.444501,-0.61383 0.444501,-1.08656 0,-0.96661 -0.571501,-1.50989 -1.587501,-1.50989 h -2.123724 v 5.14351 h 0.656167 z m 0,-0.57856 v -1.80622 h 1.368779 c 0.627945,0 1.001889,0.33867 1.001889,0.90311 0,0.56445 -0.373944,0.90311 -1.001889,0.90311 z"
           id="path5071" />
        <path
           d="m 34.74608,118.62224 h 1.686279 v -0.57856 h -4.03578 v 0.57856 h 1.693334 v 4.56495 h 0.656167 z"
           id="path5073" />
        <path
           d="m 40.58806,119.55357 c 0,-0.35277 -0.02117,-0.45155 -0.134056,-0.69144 -0.282222,-0.59267 -0.881945,-0.90311 -1.749779,-0.90311 -1.128889,0 -1.82739,0.57855 -1.82739,1.50989 0,0.62794 0.331612,1.02305 1.008945,1.19944 l 1.277057,0.33867 c 0.656167,0.16933 0.945445,0.43039 0.945445,0.83256 0,0.27516 -0.148167,0.55738 -0.366889,0.71261 -0.204612,0.14816 -0.529167,0.21872 -0.945445,0.21872 -0.564445,0 -0.93839,-0.13406 -1.185335,-0.43039 -0.1905,-0.22578 -0.275166,-0.47272 -0.268111,-0.79022 h -0.620889 c 0.0071,0.47272 0.09878,0.78316 0.303389,1.06539 0.352778,0.48683 0.945445,0.73378 1.728612,0.73378 0.613834,0 1.114779,-0.14112 1.44639,-0.39512 0.345722,-0.27516 0.564445,-0.73377 0.564445,-1.17827 0,-0.63501 -0.395112,-1.10067 -1.093612,-1.29117 l -1.291167,-0.34572 c -0.62089,-0.16934 -0.846668,-0.36689 -0.846668,-0.76201 0,-0.52211 0.458612,-0.86783 1.150057,-0.86783 0.818445,0 1.277056,0.36689 1.284112,1.04422 z"
           id="path5075" />
        <path
           d="m 42.916394,119.55357 v 3.63362 h 0.620889 v -5.10117 H 43.12806 c -0.218722,0.78316 -0.359833,0.889 -1.319389,1.016 v 0.45155 z"
           id="path5077" />
      </g>
      <g
         aria-label="PTS2"
         id="text4116"
         style="font-size:10.5833px;font-family:Helvetica;-inkscape-font-specification:Helvetica;letter-spacing:0px;word-spacing:0px;stroke-width:0.264583">
        <path
           d="m 137.49146,125.47498 h 1.61572 c 0.40217,0 0.71967,-0.11995 0.99484,-0.36689 0.31044,-0.28223 0.4445,-0.61384 0.4445,-1.08656 0,-0.96661 -0.5715,-1.50989 -1.5875,-1.50989 h -2.12373 v 5.1435 h 0.65617 z m 0,-0.57856 v -1.80622 h 1.36878 c 0.62794,0 1.00189,0.33866 1.00189,0.90311 0,0.56444 -0.37395,0.90311 -1.00189,0.90311 z"
           id="path5088" />
        <path
           d="m 143.29112,123.0902 h 1.68628 v -0.57856 h -4.03578 v 0.57856 h 1.69333 v 4.56494 h 0.65617 z"
           id="path5090" />
        <path
           d="m 149.1331,124.02153 c 0,-0.35278 -0.0212,-0.45156 -0.13406,-0.69144 -0.28222,-0.59267 -0.88194,-0.90312 -1.74977,-0.90312 -1.12889,0 -1.82739,0.57856 -1.82739,1.50989 0,0.62795 0.33161,1.02306 1.00894,1.19945 l 1.27706,0.33867 c 0.65616,0.16933 0.94544,0.43038 0.94544,0.83255 0,0.27517 -0.14816,0.55739 -0.36689,0.71261 -0.20461,0.14817 -0.52916,0.21873 -0.94544,0.21873 -0.56445,0 -0.93839,-0.13406 -1.18534,-0.43039 -0.1905,-0.22578 -0.27516,-0.47273 -0.26811,-0.79023 h -0.62089 c 0.007,0.47273 0.0988,0.78317 0.30339,1.06539 0.35278,0.48684 0.94545,0.73378 1.72861,0.73378 0.61384,0 1.11478,-0.14111 1.44639,-0.39511 0.34573,-0.27517 0.56445,-0.73378 0.56445,-1.17828 0,-0.635 -0.39511,-1.10067 -1.09361,-1.29117 l -1.29117,-0.34572 c -0.62089,-0.16933 -0.84667,-0.36689 -0.84667,-0.762 0,-0.52211 0.45861,-0.86783 1.15006,-0.86783 0.81844,0 1.27706,0.36689 1.28411,1.04422 z"
           id="path5092" />
        <path
           d="m 153.20416,127.04131 h -2.63173 c 0.0635,-0.42333 0.28928,-0.69144 0.90311,-1.06539 l 0.70556,-0.39511 c 0.6985,-0.38806 1.05833,-0.91017 1.05833,-1.53811 0,-0.42334 -0.16933,-0.81845 -0.46566,-1.09361 -0.29634,-0.26812 -0.66322,-0.39512 -1.13595,-0.39512 -0.635,0 -1.10772,0.22578 -1.38289,0.66323 -0.17639,0.26811 -0.254,0.58561 -0.26811,1.10066 h 0.62089 c 0.0212,-0.34572 0.0635,-0.55033 0.14817,-0.71966 0.16228,-0.31045 0.48683,-0.50095 0.86078,-0.50095 0.56444,0 0.98777,0.40922 0.98777,0.95956 0,0.40922 -0.23283,0.762 -0.67733,1.016 l -0.64911,0.381 c -1.04422,0.59972 -1.34761,1.0795 -1.40406,2.19428 h 3.33023 z"
           id="path5094" />
      </g>
      <g
         aria-label="RC1"
         id="text4124"
         style="font-size:10.5833px;font-family:Helvetica;-inkscape-font-specification:Helvetica;letter-spacing:0px;word-spacing:0px;stroke-width:0.264583">
        <path
           d="m 46.907652,95.818497 h 1.693334 c 0.585612,0 0.846668,0.282223 0.846668,0.917223 l -0.0071,0.458612 c 0,0.3175 0.05644,0.627944 0.148167,0.839611 h 0.797278 v -0.162278 c -0.246944,-0.169333 -0.296333,-0.352778 -0.310444,-1.037167 -0.0071,-0.846667 -0.141112,-1.100667 -0.698501,-1.340556 0.578556,-0.289278 0.811389,-0.635001 0.811389,-1.227668 0,-0.889 -0.550333,-1.375834 -1.566334,-1.375834 h -2.370668 v 5.143503 h 0.656167 z m 0,-0.578556 v -1.770945 h 1.587501 c 0.366889,0 0.578556,0.05644 0.740834,0.197555 0.176389,0.148167 0.268111,0.381001 0.268111,0.68439 0,0.613834 -0.310445,0.889 -1.008945,0.889 z"
           id="path5105" />
        <path
           d="m 55.240255,94.484996 c -0.204612,-1.128889 -0.853723,-1.679223 -1.982613,-1.679223 -0.691445,0 -1.248834,0.218722 -1.629834,0.642056 -0.465667,0.508 -0.719667,1.241779 -0.719667,2.074335 0,0.846667 0.261055,1.57339 0.740833,2.074334 0.402167,0.409223 0.910168,0.599723 1.580446,0.599723 1.25589,0 1.961446,-0.677334 2.116668,-2.039057 h -0.677334 c -0.05644,0.352778 -0.127,0.592667 -0.232833,0.797278 -0.211667,0.423334 -0.649112,0.663223 -1.199446,0.663223 -1.023056,0 -1.672167,-0.818445 -1.672167,-2.102557 0,-1.31939 0.613833,-2.130779 1.615723,-2.130779 0.416278,0 0.804334,0.119945 1.016001,0.324556 0.1905,0.176389 0.296333,0.388056 0.373944,0.776111 z"
           id="path5107" />
        <path
           d="m 57.490966,94.40033 v 3.633613 h 0.620889 v -5.10117 h -0.409222 c -0.218722,0.783167 -0.359834,0.889001 -1.31939,1.016001 v 0.451556 z"
           id="path5109" />
      </g>
      <g
         aria-label="RC2"
         id="text4132"
         style="font-size:10.5833px;font-family:Helvetica;-inkscape-font-specification:Helvetica;letter-spacing:0px;word-spacing:0px;stroke-width:0.264583">
        <path
           d="m 97.245218,178.42896 h 1.693335 c 0.585611,0 0.846667,0.28223 0.846667,0.91723 l -0.0071,0.45861 c 0,0.3175 0.05644,0.62794 0.148167,0.83961 h 0.797279 v -0.16228 c -0.24695,-0.16933 -0.29633,-0.35278 -0.31045,-1.03717 -0.007,-0.84666 -0.14111,-1.10066 -0.698496,-1.34055 0.578556,-0.28928 0.811386,-0.635 0.811386,-1.22767 0,-0.889 -0.55033,-1.37583 -1.56633,-1.37583 h -2.370669 v 5.1435 h 0.656167 z m 0,-0.57855 v -1.77095 h 1.587501 c 0.36689,0 0.578556,0.0564 0.740834,0.19756 0.176389,0.14816 0.268112,0.381 0.268112,0.68439 0,0.61383 -0.310445,0.889 -1.008946,0.889 z"
           id="path5118" />
        <path
           d="m 105.57782,177.09546 c -0.20461,-1.12889 -0.85372,-1.67922 -1.98261,-1.67922 -0.69145,0 -1.24884,0.21872 -1.62984,0.64206 -0.46566,0.508 -0.71966,1.24177 -0.71966,2.07433 0,0.84667 0.26105,1.57339 0.74083,2.07433 0.40217,0.40923 0.91017,0.59973 1.58045,0.59973 1.25589,0 1.96144,-0.67734 2.11666,-2.03906 h -0.67733 c -0.0564,0.35278 -0.127,0.59267 -0.23283,0.79728 -0.21167,0.42333 -0.64911,0.66322 -1.19945,0.66322 -1.02305,0 -1.67217,-0.81844 -1.67217,-2.10256 0,-1.31939 0.61384,-2.13077 1.61573,-2.13077 0.41628,0 0.80433,0.11994 1.016,0.32455 0.1905,0.17639 0.29633,0.38806 0.37394,0.77611 z"
           id="path5120" />
        <path
           d="m 109.57126,180.03058 h -2.63173 c 0.0635,-0.42334 0.28928,-0.69145 0.90311,-1.06539 l 0.70556,-0.39512 c 0.6985,-0.38805 1.05833,-0.91016 1.05833,-1.53811 0,-0.42333 -0.16933,-0.81844 -0.46566,-1.09361 -0.29634,-0.26811 -0.66323,-0.39511 -1.13595,-0.39511 -0.635,0 -1.10772,0.22578 -1.38289,0.66322 -0.17639,0.26811 -0.254,0.58561 -0.26811,1.10067 h 0.62089 c 0.0212,-0.34572 0.0635,-0.55033 0.14817,-0.71967 0.16227,-0.31044 0.48683,-0.50094 0.86077,-0.50094 0.56445,0 0.98778,0.40922 0.98778,0.95955 0,0.40923 -0.23283,0.762 -0.67733,1.016 l -0.64911,0.381 c -1.04422,0.59973 -1.34761,1.07951 -1.40406,2.19428 h 3.33023 z"
           id="path5122" />
      </g>
      <g
         aria-label="POI1"
         id="text4136"
         style="font-size:7.05556px;font-family:Helvetica;-inkscape-font-specification:Helvetica;letter-spacing:0px;word-spacing:0px;stroke-width:0.264583">
        <path
           d="m 140.49219,147.96293 h 1.61573 c 0.40216,0 0.71966,-0.11995 0.99483,-0.36689 0.31044,-0.28222 0.4445,-0.61383 0.4445,-1.08656 0,-0.96661 -0.5715,-1.50989 -1.5875,-1.50989 h -2.12372 v 5.14351 h 0.65616 z m 0,-0.57856 v -1.80622 h 1.36878 c 0.62795,0 1.00189,0.33867 1.00189,0.90311 0,0.56445 -0.37394,0.90311 -1.00189,0.90311 z"
           id="path5131" />
        <path
           d="m 146.54585,144.91493 c -1.47461,0 -2.4765,1.08655 -2.4765,2.69522 0,1.61572 0.99483,2.69522 2.48355,2.69522 0.62795,0 1.17828,-0.1905 1.59456,-0.54327 0.55739,-0.47273 0.889,-1.27 0.889,-2.10962 0,-1.65805 -0.98072,-2.73755 -2.49061,-2.73755 z m 0,0.57855 c 1.11478,0 1.83444,0.83961 1.83444,2.14489 0,1.24178 -0.74083,2.08845 -1.82739,2.08845 -1.10066,0 -1.82739,-0.84667 -1.82739,-2.11667 0,-1.27 0.72673,-2.11667 1.82034,-2.11667 z"
           id="path5133" />
        <path
           d="m 150.65924,144.99959 h -0.66322 v 5.14351 h 0.66322 z"
           id="path5135" />
        <path
           d="m 153.0793,146.50948 v 3.63362 h 0.62088 v -5.10117 h -0.40922 c -0.21872,0.78316 -0.35983,0.889 -1.31939,1.016 v 0.45155 z"
           id="path5137" />
      </g>
      <g
         id="path3610-2"
         style="opacity:0.6">
        <path
           style="color:#000000;fill:#555555;stroke-dasharray:1.05833, 0.529167;-inkscape-stroke:none"
           d="m 132.13477,147.625 -0.43946,0.34375 0.32617,0.41797 0.43946,-0.3457 z m -0.85743,0.66992 -0.83203,0.65235 0.32422,0.41601 0.83399,-0.65039 z m -1.25,0.97852 -0.83398,0.65234 0.32617,0.41602 0.83399,-0.65235 z m -1.25,0.97851 -0.83398,0.65039 0.32617,0.41797 0.83399,-0.65234 z m -1.25,0.97657 -0.83398,0.65234 0.32617,0.41797 0.83399,-0.65235 z m -1.25195,0.97851 -0.83203,0.65234 0.32617,0.41602 0.83203,-0.65039 z m -1.25,0.97852 -0.83398,0.65234 0.32617,0.41602 0.83398,-0.65235 z m -1.25,0.97851 -0.83398,0.65039 0.32617,0.41797 0.83398,-0.65234 z m -1.25,0.97656 -0.83398,0.65235 0.32617,0.41797 0.83398,-0.65235 z m -1.25,0.97852 -0.83398,0.65234 0.32617,0.41602 0.83203,-0.65039 z m -1.25195,0.97852 -0.83203,0.65234 0.32422,0.41602 0.83398,-0.65235 z m -1.25,0.97851 -0.83399,0.65235 0.32618,0.41601 0.83398,-0.65234 z m -1.25,0.97656 -0.83399,0.65235 0.32618,0.41797 0.83398,-0.65235 z m -1.25,0.97852 -0.83399,0.65234 0.32618,0.41602 0.83398,-0.65039 z m -1.25196,0.97852 -0.83203,0.65234 0.32618,0.41601 0.83203,-0.65234 z m -1.25,0.97851 -0.83398,0.65234 0.32617,0.41602 0.83399,-0.65234 z m -1.25,0.97656 -0.83398,0.65235 0.32617,0.41797 0.83399,-0.65235 z m -1.25,0.97852 -0.83398,0.65234 0.32617,0.41602 0.83399,-0.65039 z m -1.25,0.97851 -0.83398,0.65235 0.32617,0.41601 0.83203,-0.65234 z m -1.25195,0.97852 -0.83203,0.65234 0.32422,0.41602 0.83398,-0.65234 z m -1.25,0.97656 -0.83398,0.65235 0.32617,0.41797 0.83398,-0.65235 z m -1.25,0.97852 -0.83398,0.65234 0.32617,0.41602 0.83398,-0.65039 z m -1.25,0.97851 -0.83398,0.65235 0.32617,0.41601 0.83398,-0.65234 z m -1.25195,0.97852 -0.83203,0.65234 0.32617,0.41602 0.83203,-0.65234 z"
           id="path5160" />
        <g
           id="g5150">
          <g
             id="path5152">
            <path
               style="color:#000000;fill:#555555;fill-rule:evenodd;stroke-width:0.423334pt;-inkscape-stroke:none"
               d="m 128.13003,151.0933 -0.36321,2.9713 4.53134,-6.23143 -7.13944,2.89692 z"
               id="path5156" />
            <path
               style="color:#000000;fill:#555555;fill-rule:evenodd;-inkscape-stroke:none"
               d="m 133.10742,147.20117 -9.06445,3.67774 3.77344,0.46093 -0.46094,3.77149 z m -1.61719,1.26367 -3.31054,4.55274 0.26562,-2.16992 -0.28125,-0.0352 -1.88672,-0.23047 z"
               id="path5158" />
          </g>
        </g>
      </g>
      <g
         id="path2304">
        <path
           style="color:#000000;fill:#005293;-inkscape-stroke:none"
           d="m 51.359375,122.42383 -0.265625,0.45898 c 10.200465,5.90375 19.517534,12.00411 31.705078,13.96289 12.187544,1.95879 27.215742,-0.23721 48.814452,-10.84765 l -0.23242,-0.47461 c -21.53753,10.58039 -36.438841,12.73894 -48.498048,10.80078 -12.059206,-1.93816 -21.307257,-7.98755 -31.523437,-13.90039 z"
           id="path5174" />
        <g
           id="g5164">
          <g
             id="path5166">
            <path
               style="color:#000000;fill:#005293;fill-rule:evenodd;stroke-width:0.423334pt;-inkscape-stroke:none"
               d="m 55.80648,125.30437 2.892246,-0.77167 -7.472144,-1.87905 5.35157,5.54296 z"
               id="path5170" />
            <path
               style="color:#000000;fill:#005293;fill-rule:evenodd;-inkscape-stroke:none"
               d="m 50.337891,122.13867 6.792968,7.03711 -0.978515,-3.67187 3.671875,-0.97852 z m 1.779296,1.0293 5.455079,1.37305 -2.111329,0.5625 0.07227,0.27343 0.490234,1.83789 z"
               id="path5172" />
          </g>
        </g>
      </g>
      <g
         id="path44424"
         style="opacity:0.6">
        <path
           style="color:#000000;fill:#555555;stroke-dasharray:1.05833, 0.529167;-inkscape-stroke:none"
           d="m 49.511719,120.67578 -0.523438,0.084 c 0.05666,0.34936 0.115816,0.6989 0.181641,1.04882 l 0.521484,-0.0977 c -0.06461,-0.34348 -0.123398,-0.68808 -0.179687,-1.03516 z m 0.277343,1.55469 -0.519531,0.10156 c 0.06804,0.34841 0.140602,0.69607 0.21875,1.04297 l 0.515625,-0.11719 c -0.0769,-0.34137 -0.147655,-0.68332 -0.214844,-1.02734 z m 0.333985,1.54101 -0.515625,0.1211 c 0.08089,0.34609 0.166161,0.69159 0.257812,1.03515 l 0.511719,-0.13671 c -0.0902,-0.33811 -0.174229,-0.67863 -0.253906,-1.01954 z m 0.392578,1.52735 -0.509766,0.14062 c 0.09485,0.3427 0.194527,0.68387 0.300782,1.02344 l 0.505859,-0.1582 c -0.104437,-0.33376 -0.203533,-0.66861 -0.296875,-1.00586 z m 0.455078,1.50781 -0.501953,0.16406 c 0.10992,0.33819 0.224205,0.6752 0.345703,1.00977 l 0.498047,-0.18164 c -0.11933,-0.3286 -0.233631,-0.6594 -0.341797,-0.99219 z m 0.523438,1.48633 L 51,128.47852 c 0.125735,0.33292 0.255696,0.66391 0.392578,0.99218 l 0.488281,-0.20312 c -0.134656,-0.32294 -0.263172,-0.64748 -0.386718,-0.97461 z m 0.59375,1.45703 -0.484375,0.21094 c 0.141762,0.32681 0.288639,0.65167 0.443359,0.97265 l 0.476562,-0.23047 c -0.151627,-0.31456 -0.29655,-0.63268 -0.435546,-0.95312 z m 0.667968,1.42578 -0.474609,0.23633 c 0.159435,0.31797 0.324276,0.63289 0.496094,0.94531 l 0.464843,-0.2539 c -0.168177,-0.30581 -0.32952,-0.61501 -0.486328,-0.92774 z m 0.742188,1.38672 -0.458985,0.25977 c 0.176501,0.31037 0.36002,0.61626 0.548829,0.91796 l 0.449218,-0.27929 c -0.185464,-0.29636 -0.366793,-0.59551 -0.539062,-0.89844 z m 0.820312,1.33984 -0.443359,0.28711 c 0.19424,0.29923 0.396207,0.59457 0.603516,0.88477 l 0.429687,-0.30664 c -0.202799,-0.28389 -0.399934,-0.57268 -0.589844,-0.86524 z m 0.898438,1.28907 -0.425781,0.31445 c 0.211967,0.28648 0.431111,0.57045 0.65625,0.84766 l 0.410156,-0.33399 c -0.219656,-0.27046 -0.432951,-0.54745 -0.640625,-0.82812 z m 0.974609,1.23242 -0.40625,0.33984 c 0.229229,0.27264 0.464992,0.54186 0.707031,0.80469 l 0.388672,-0.35742 c -0.235907,-0.25617 -0.464647,-0.51974 -0.689453,-0.78711 z m 1.048828,1.16992 -0.384765,0.36523 c 0.245716,0.25789 0.498049,0.5105 0.755859,0.75782 l 0.365234,-0.38086 c -0.251336,-0.24111 -0.495358,-0.48929 -0.736328,-0.74219 z m 1.117188,1.10156 -0.359375,0.38867 c 0.261188,0.24238 0.528544,0.47993 0.800781,0.71094 l 0.341797,-0.4043 c -0.265719,-0.22548 -0.527228,-0.45777 -0.783203,-0.69531 z m 1.185547,1.03321 -0.335938,0.4082 c 0.275445,0.22628 0.556609,0.44783 0.841797,0.66211 l 0.316406,-0.42383 c -0.278878,-0.20953 -0.552542,-0.42491 -0.822265,-0.64648 z m 1.246093,0.95898 -0.3125,0.42773 c 0.288321,0.20979 0.582253,0.4139 0.878907,0.61133 l 0.292968,-0.4414 c -0.290693,-0.19347 -0.577191,-0.39234 -0.859375,-0.59766 z m 1.298829,0.88477 -0.28711,0.44531 c 0.299708,0.19313 0.603445,0.37977 0.910156,0.56054 l 0.269532,-0.45507 c -0.301104,-0.17747 -0.599219,-0.36174 -0.892578,-0.55078 z m 1.345703,0.8125 -0.261719,0.46093 c 0.309572,0.1766 0.622026,0.34721 0.9375,0.51172 l 0.246094,-0.4707 c -0.310107,-0.16172 -0.618604,-0.32895 -0.921875,-0.50195 z m 1.388672,0.74218 -0.238282,0.47266 c 0.317949,0.1604 0.639833,0.31406 0.962891,0.46289 l 0.220703,-0.48047 c -0.31775,-0.14638 -0.633338,-0.29769 -0.945312,-0.45508 z m 1.423828,0.67188 -0.214844,0.48437 c 0.324929,0.14473 0.652865,0.28412 0.982422,0.41797 l 0.199219,-0.49023 c -0.324127,-0.13165 -0.64723,-0.26977 -0.966797,-0.41211 z m 1.455078,0.60742 -0.19336,0.49219 c 0.330654,0.1297 0.663046,0.25527 0.998047,0.375 l 0.177735,-0.49805 c -0.329388,-0.11772 -0.656264,-0.2412 -0.982422,-0.36914 z m 1.478515,0.54297 -0.171875,0.5 c 0.3354,0.1155 0.672534,0.22731 1.011719,0.33398 l 0.158203,-0.5039 c -0.333859,-0.10501 -0.666357,-0.21585 -0.998047,-0.33008 z m 1.501954,0.48633 -0.154297,0.50586 c 0.340012,0.10359 0.67988,0.20207 1.021484,0.29687 l 0.142578,-0.50976 c -0.338239,-0.0939 -0.67486,-0.19093 -1.009765,-0.29297 z m 1.517578,0.42968 -0.136719,0.51172 0.173828,0.0449 0.666016,0.16993 0.193359,0.0469 0.123047,-0.51562 -0.189453,-0.0449 -0.660156,-0.16796 z m 59.017581,0.0508 -0.5918,0.0254 0.0234,0.52929 0.59179,-0.0273 z m -1.1211,0.0508 -0.53125,0.0254 -0.52734,0.0273 0.0273,0.52734 0.52539,-0.0273 0.53125,-0.0254 z m -1.58789,0.0801 -0.60547,0.0312 -0.45117,0.0254 0.0293,0.52734 0.44922,-0.0254 0.60547,-0.0312 z m -1.58593,0.0859 -0.6875,0.0391 -0.36915,0.0234 0.0312,0.52735 0.36915,-0.0215 0.68554,-0.0391 z m -1.58594,0.0937 -0.77539,0.0488 -0.28125,0.0176 0.0332,0.52734 0.28125,-0.0176 0.77539,-0.0469 z m -51.605471,0.0195 -0.117188,0.51563 0.644531,0.14453 0.392579,0.084 0.109375,-0.51757 -0.388672,-0.084 z m 50.019531,0.0801 -0.86914,0.0566 -0.1875,0.0117 0.0352,0.5293 0.1875,-0.0137 0.86914,-0.0547 z m -1.58398,0.10352 -0.9668,0.0664 -0.0898,0.006 0.0371,0.52735 0.0898,-0.006 0.96484,-0.0645 z m -1.58399,0.10937 -1.05664,0.0723 0.0371,0.52734 1.05664,-0.0723 z m -45.306639,0.0391 -0.103516,0.51758 0.464844,0.0937 0.578125,0.10742 0.09766,-0.52148 -0.576172,-0.10547 z m 43.722659,0.0703 -1.05664,0.0742 0.0371,0.52929 1.05664,-0.0762 z m -1.58399,0.11328 -1.05664,0.0742 0.0391,0.52929 1.05469,-0.0762 z m -40.583982,0.10547 -0.08984,0.52148 0.298828,0.0508 0.710938,0.11524 0.03906,0.006 0.07813,-0.52344 -0.03516,-0.006 -0.705078,-0.11328 z m 39.000002,0.008 -1.05469,0.0742 0.0371,0.5293 1.05469,-0.0762 z m -1.58203,0.11328 -1.05664,0.0742 0.0371,0.52734 1.05664,-0.0742 z m -1.58399,0.11133 -1.05664,0.0742 0.0371,0.52734 1.05664,-0.0742 z m -34.273435,0.0176 -0.07813,0.52148 0.152344,0.0234 0.720703,0.10156 0.18164,0.0234 0.06641,-0.52539 -0.177735,-0.0234 -0.714843,-0.0996 z m 32.689455,0.0918 -1.05469,0.0723 0.0352,0.52734 1.05664,-0.0703 z m -1.58399,0.10743 -0.0957,0.008 -0.95898,0.0625 0.0352,0.52734 0.95899,-0.0625 0.0976,-0.006 z m -29.537106,0.0117 -0.06836,0.5254 0.02148,0.002 0.730469,0.0879 0.304688,0.0332 0.05859,-0.52539 -0.302734,-0.0332 -0.726563,-0.0859 z m 27.955076,0.0918 -0.1914,0.0137 -0.86524,0.0527 0.0332,0.52734 0.86523,-0.0527 0.19141,-0.0117 z m -26.384763,0.0859 -0.05273,0.52734 0.644532,0.0645 0.412109,0.0371 0.04687,-0.52735 -0.410156,-0.0371 z m 24.800783,0.0137 -0.28125,0.0176 -0.77344,0.0449 0.0293,0.52734 0.77539,-0.0449 0.2832,-0.0176 z m -1.58399,0.0918 -0.36328,0.0215 -0.6914,0.0371 0.0273,0.52735 0.69336,-0.0371 0.36523,-0.0195 z m -21.640621,0.041 -0.04297,0.52735 0.554687,0.0469 0.501954,0.0352 0.03906,-0.52735 -0.5,-0.0371 z m 20.056641,0.0449 -0.44141,0.0234 -0.61328,0.0293 0.0234,0.5293 0.61719,-0.0293 0.4414,-0.0234 z m -18.478516,0.0742 -0.03516,0.52735 0.484375,0.0312 0.574219,0.0332 0.03125,-0.52734 -0.574219,-0.0332 z m 16.894536,0.004 -0.50977,0.0234 -0.54688,0.0234 0.0234,0.52929 0.54688,-0.0234 0.51172,-0.0254 z m -1.583989,0.0684 -0.570313,0.0234 -0.486328,0.0176 0.01953,0.52929 0.486328,-0.0176 0.572271,-0.0234 z m -13.730469,0.0195 -0.02539,0.52734 0.427735,0.0215 0.630859,0.0273 0.02344,-0.52929 -0.630859,-0.0254 z m 12.146484,0.0391 -0.621094,0.0215 -0.435546,0.0117 0.01367,0.52929 0.4375,-0.0117 0.623047,-0.0215 z m -10.564453,0.0273 -0.01758,0.52929 0.386719,0.0137 0.671875,0.0195 0.01563,-0.5293 -0.669922,-0.0195 z m 8.978516,0.0215 -0.660157,0.0156 -0.396484,0.008 0.01172,0.5293 0.396484,-0.008 0.66211,-0.0176 z m -7.394532,0.0254 -0.01172,0.5293 0.361328,0.008 0.699219,0.0117 0.0078,-0.5293 -0.697266,-0.0117 z m 5.810547,0.008 -0.689453,0.0117 -0.367187,0.004 0.0059,0.5293 0.369141,-0.006 0.689453,-0.01 z m -4.226562,0.0176 -0.0059,0.5293 0.351563,0.004 0.708984,0.002 0.002,-0.5293 -0.707031,-0.002 z m 2.642578,0.002 -0.705078,0.004 -0.353516,0.002 0.002,0.52734 h 0.351563 l 0.707031,-0.004 z"
           id="path5188" />
        <g
           id="g5178">
          <g
             id="path5180">
            <path
               style="color:#000000;fill:#555555;fill-rule:evenodd;stroke-width:0.423334pt;-inkscape-stroke:none"
               d="m 125.94256,146.40752 -2.02362,2.20579 7.31039,-2.4335 -7.49256,-1.79592 z"
               id="path5184" />
            <path
               style="color:#000000;fill:#555555;fill-rule:evenodd;-inkscape-stroke:none"
               d="m 122.74414,143.85547 2.79883,2.56836 -2.56836,2.80078 9.28125,-3.08984 z m 1.98633,1.05664 5.47265,1.3125 -5.33984,1.77734 1.47852,-1.61133 -0.20899,-0.1914 z"
               id="path5186" />
          </g>
        </g>
      </g>
      <g
         id="circle850">
        <path
           style="color:#000000;fill:#005293;stroke-width:0.396875;-inkscape-stroke:none"
           d="m 134.51774,125.18569 a 2.8554811,2.8554811 0 0 1 -2.85548,2.85548 2.8554811,2.8554811 0 0 1 -2.85548,-2.85548 2.8554811,2.8554811 0 0 1 2.85548,-2.85548 2.8554811,2.8554811 0 0 1 2.85548,2.85548 z"
           id="path5192" />
        <path
           style="color:#000000;fill:#000000;-inkscape-stroke:none"
           d="m 131.66211,122.13086 c -1.68428,0 -3.05469,1.37041 -3.05469,3.05469 0,1.68428 1.37041,3.05468 3.05469,3.05468 1.68428,0 3.05469,-1.3704 3.05469,-3.05468 0,-1.68428 -1.37041,-3.05469 -3.05469,-3.05469 z m 0,0.39844 c 1.46979,0 2.65625,1.18645 2.65625,2.65625 0,1.46979 -1.18646,2.65625 -2.65625,2.65625 -1.46979,0 -2.65625,-1.18646 -2.65625,-2.65625 0,-1.4698 1.18646,-2.65625 2.65625,-2.65625 z"
           id="path5194" />
      </g>
      <g
         id="path10883"
         style="opacity:0.6">
        <path
           style="color:#000000;fill:#555555;stroke-dasharray:1.05833, 0.529167;-inkscape-stroke:none"
           d="m 47.365234,122.53125 -0.324218,0.67969 -0.08594,0.1875 0.480469,0.2207 0.08398,-0.18359 0.324219,-0.67774 z m -0.632812,1.34766 -0.0039,0.008 -0.298829,0.66992 -0.126953,0.29492 0.484375,0.21094 0.126953,-0.29297 0.296875,-0.66406 0.002,-0.006 z m -0.638672,1.46289 c -0.137106,0.32716 -0.269329,0.65544 -0.398438,0.98633 l 0.492188,0.19335 c 0.127353,-0.32639 0.258943,-0.65106 0.394531,-0.9746 z m -0.589844,1.48242 c -0.126184,0.33197 -0.24934,0.6654 -0.367187,1 l 0.5,0.17578 c 0.116536,-0.33088 0.236826,-0.65878 0.361328,-0.98633 z m -0.539062,1.5039 c -0.1145,0.33668 -0.223633,0.67434 -0.328125,1.01368 l 0.505859,0.15625 c 0.103145,-0.33496 0.209597,-0.66871 0.322266,-1 z m -0.482422,1.52344 c -0.100795,0.34112 -0.195367,0.68339 -0.285156,1.02735 l 0.511718,0.13476 c 0.08842,-0.33871 0.182115,-0.67621 0.28125,-1.01172 z m -0.416016,1.54297 c -0.08579,0.34565 -0.164574,0.69327 -0.238281,1.04102 l 0.517578,0.10937 c 0.07258,-0.34245 0.150207,-0.68236 0.234375,-1.02148 z m -0.34375,1.56445 c -0.06883,0.34961 -0.132041,0.69924 -0.1875,1.05079 l 0.523438,0.082 c 0.05448,-0.34536 0.114187,-0.68862 0.18164,-1.03125 z m -0.265625,1.58008 c -0.04899,0.35226 -0.09205,0.70526 -0.126953,1.06055 l 0.525391,0.0508 c 0.03408,-0.34689 0.07681,-0.69251 0.125,-1.03906 z m -0.175781,1.5918 c -0.02918,0.35553 -0.04955,0.71176 -0.0625,1.06836 l 0.529297,0.0195 c 0.01266,-0.34845 0.03202,-0.6973 0.06055,-1.04492 z m -0.07813,1.60156 c -0.0062,0.35692 -0.003,0.71543 0.0078,1.07227 l 0.529297,-0.0176 c -0.01059,-0.34837 -0.0139,-0.69641 -0.0078,-1.04492 z m 0.558594,1.57813 -0.529297,0.0273 c 0.01865,0.35655 0.04538,0.71284 0.08203,1.06836 l 0.527344,-0.0527 c -0.0357,-0.34631 -0.06187,-0.69495 -0.08008,-1.04297 z m 0.138672,1.5625 -0.523438,0.0664 c 0.04489,0.35433 0.09806,0.70649 0.162109,1.0586 l 0.521485,-0.0937 c -0.06222,-0.34204 -0.116373,-0.68566 -0.160156,-1.03125 z m 0.257812,1.54492 -0.517578,0.10547 c 0.072,0.35024 0.15417,0.69892 0.246094,1.04492 l 0.511718,-0.13477 c -0.08923,-0.33587 -0.170169,-0.6748 -0.240234,-1.01562 z m 0.378906,1.51953 -0.507812,0.14648 c 0.09967,0.34399 0.209042,0.68437 0.328125,1.02149 l 0.5,-0.17578 c -0.115901,-0.32811 -0.223629,-0.65852 -0.320313,-0.99219 z m 0.5,1.48242 -0.49414,0.18945 c 0.127593,0.33436 0.26442,0.66386 0.410156,0.99024 l 0.484375,-0.21484 c -0.141923,-0.31785 -0.276434,-0.64003 -0.400391,-0.96485 z m 0.619141,1.43945 -0.478516,0.22852 c 0.154114,0.32239 0.318121,0.64116 0.490235,0.95508 l 0.46289,-0.25586 c -0.167076,-0.30473 -0.324438,-0.6136 -0.474609,-0.92774 z m 0.732422,1.38477 -0.458985,0.26367 c 0.178721,0.3098 0.365392,0.6146 0.560547,0.91406 l 0.44336,-0.28906 c -0.190039,-0.29161 -0.371095,-0.58735 -0.544922,-0.88867 z m 0.835937,1.32422 -0.4375,0.29883 c 0.201415,0.29543 0.411122,0.58482 0.626953,0.86914 l 0.421875,-0.32031 c -0.210755,-0.27763 -0.41531,-0.56015 -0.611328,-0.84766 z m 0.931641,1.26172 -0.414063,0.32812 c 0.221687,0.28002 0.449229,0.55531 0.683594,0.82422 l 0.398438,-0.34765 c -0.229179,-0.26297 -0.451723,-0.53155 -0.667969,-0.80469 z m 1.017578,1.19726 -0.392578,0.35352 c 0.239393,0.26451 0.483726,0.52378 0.734375,0.77734 l 0.376953,-0.37109 c -0.245341,-0.24819 -0.484716,-0.50118 -0.71875,-0.75977 z m 1.091797,1.12891 -0.371094,0.37891 c 0.25474,0.24941 0.514854,0.49379 0.779297,0.73242 L 51.027344,153.875 C 50.768,153.64097 50.51501,153.40042 50.265625,153.15625 Z m 1.154297,1.06641 -0.347656,0.39843 c 0.268071,0.23465 0.540674,0.46299 0.816406,0.6875 l 0.333984,-0.41015 c -0.271383,-0.22097 -0.539906,-0.44572 -0.802734,-0.67578 z m 1.21289,1.0039 -0.328125,0.41602 c 0.2792,0.22041 0.561181,0.43556 0.847657,0.64648 l 0.314453,-0.42578 c -0.281675,-0.20738 -0.559417,-0.41996 -0.833985,-0.63672 z m 1.259766,0.94531 -0.308594,0.42969 0.216797,0.15625 0.5,0.34766 0.160156,0.10547 0.292969,-0.43946 -0.154297,-0.10351 -0.49414,-0.34375 z m 1.298828,0.89063 -0.287109,0.44336 0.433594,0.28125 0.46289,0.28906 0.28125,-0.44726 -0.460937,-0.28907 z m 1.337891,0.83984 -0.273438,0.45118 0.160157,0.0976 0.55664,0.32617 0.203125,0.11524 0.259766,-0.45899 -0.199219,-0.11328 -0.548828,-0.32226 z m 1.365234,0.78907 -0.255859,0.46289 0.476562,0.26367 0.457032,0.24219 0.25,-0.4668 -0.455079,-0.24024 z m 1.392578,0.74609 -0.242187,0.4707 0.257812,0.13282 0.609375,0.30468 0.08398,0.041 0.230468,-0.47656 -0.08203,-0.0391 -0.601562,-0.30273 z m 1.416016,0.70508 -0.232422,0.47656 0.06055,0.0273 0.628906,0.29883 0.275391,0.125 0.220703,-0.48242 -0.271484,-0.12305 -0.625,-0.29492 z m 1.431641,0.66406 -0.214844,0.48438 0.533203,0.23632 0.4375,0.18946 0.210937,-0.48633 -0.4375,-0.1875 z m 1.451171,0.62891 -0.205078,0.48828 0.40625,0.16992 0.574219,0.23437 0.201172,-0.49023 -0.574219,-0.23242 z m 1.464844,0.5957 -0.195312,0.49219 0.304687,0.12109 0.685547,0.26367 0.189453,-0.49414 -0.68164,-0.26172 z m 1.478516,0.56641 -0.185547,0.49609 0.232422,0.0859 0.724609,0.26172 0.04297,0.0156 0.175781,-0.49805 -0.04102,-0.0156 -0.71875,-0.25977 z m 1.488281,0.53711 -0.175781,0.49804 0.191406,0.0684 0.744141,0.25391 0.07031,0.0234 0.166016,-0.50196 -0.06836,-0.0234 -0.738281,-0.25195 z m 1.498047,0.50781 -0.166016,0.50195 0.181641,0.0606 0.763672,0.24804 0.06445,0.0195 0.160156,-0.50391 -0.06445,-0.0195 -0.759766,-0.2461 z m 1.507812,0.48437 -0.158203,0.50586 0.203125,0.0625 0.783203,0.24024 0.0293,0.008 0.150391,-0.50586 -0.02734,-0.008 -0.779297,-0.24024 z m 1.515625,0.46094 -0.15039,0.50781 0.255859,0.0762 0.761719,0.21875 0.146484,-0.50781 -0.759765,-0.21875 z m 1.521485,0.4375 -0.144531,0.50977 0.345703,0.0977 0.677734,0.18555 0.138672,-0.51172 -0.675781,-0.18359 z m 1.527344,0.41797 -0.136719,0.51172 0.466797,0.125 0.558593,0.14453 0.132813,-0.51367 -0.556641,-0.14258 z m 1.533203,0.39844 -0.128907,0.51367 0.621094,0.15625 0.40625,0.0996 0.126953,-0.51367 -0.40625,-0.0996 z m 1.537109,0.38086 -0.123047,0.51562 0.8125,0.19141 0.220703,0.0527 0.119141,-0.51562 -0.220703,-0.0508 z m 1.544922,0.36328 -0.121094,0.51562 0.146485,0.0332 0.888671,0.20117 0.115235,-0.51758 -0.886719,-0.19922 z m 1.544922,0.3457 -0.113281,0.51758 0.384765,0.084 0.652344,0.13867 0.109375,-0.51757 -0.650391,-0.13868 z m 1.550781,0.33203 -0.107422,0.51758 0.658203,0.13672 0.378907,0.0762 0.105468,-0.51953 -0.378906,-0.0762 z m 1.552734,0.31641 -0.103515,0.51953 0.0293,0.006 0.939453,0.18359 0.07227,0.0137 0.09961,-0.51953 -0.07227,-0.0137 -0.935547,-0.18359 z m 1.556641,0.30273 -0.09961,0.51953 0.355468,0.0684 0.685547,0.12696 0.09766,-0.52149 -0.685547,-0.12695 z m 1.556641,0.28906 -0.09375,0.52149 0.714843,0.12891 0.328125,0.0566 0.0918,-0.52149 -0.326172,-0.0566 z m 1.5625,0.27735 -0.0918,0.52148 0.126953,0.0215 0.917969,0.15625 0.08984,-0.52149 -0.917968,-0.15625 z m 1.5625,0.26562 -0.08594,0.52149 0.53711,0.0898 0.507812,0.082 0.08398,-0.52343 -0.507812,-0.082 z m 1.564453,0.25391 -0.08203,0.52344 0.982421,0.15234 0.06445,0.01 0.08008,-0.52149 -0.0625,-0.01 z m 1.568359,0.24219 -0.08008,0.52343 0.433594,0.0664 0.615234,0.0898 0.07617,-0.52343 -0.613281,-0.0898 z m 1.56836,0.23437 -0.07617,0.52344 0.93164,0.13281 0.117188,0.0176 0.07422,-0.52344 -0.119141,-0.0176 z m 1.570312,0.22266 -0.07422,0.52344 0.40625,0.0566 0.644532,0.0879 0.07031,-0.52539 -0.642578,-0.0859 z m 1.570313,0.21484 -0.06836,0.52344 0.953125,0.125 0.09766,0.0137 0.06641,-0.52539 -0.0957,-0.0117 z m 1.574219,0.20313 -0.0684,0.52539 0.45313,0.0586 0.5996,0.0742 0.0645,-0.52539 -0.59766,-0.0742 z m 1.57227,0.19726 -0.0625,0.52539 1.05078,0.12696 0.0625,-0.52539 z"
           id="path5208" />
        <g
           id="g5198">
          <g
             id="path5200">
            <path
               style="color:#000000;fill:#555555;fill-rule:evenodd;stroke-width:0.423334pt;-inkscape-stroke:none"
               d="m 45.292185,127.40404 0.978894,2.82884 1.333538,-7.58851 -5.141271,5.73856 z"
               id="path5204" />
            <path
               style="color:#000000;fill:#555555;fill-rule:evenodd;-inkscape-stroke:none"
               d="m 48.052734,121.7207 -6.52539,7.28516 3.589843,-1.24414 1.244141,3.5918 z m -0.898437,1.84766 -0.972656,5.54101 -0.714844,-2.06445 -0.267578,0.0918 -1.800782,0.625 z"
               id="path5206" />
          </g>
        </g>
      </g>
      <g
         id="path10885"
         style="opacity:0.6">
        <path
           style="color:#000000;fill:#555555;stroke-dasharray:1.05833, 0.529167;-inkscape-stroke:none"
           d="m 129.40039,127.83008 -0.55859,0.90039 0.44922,0.2793 0.55859,-0.9004 z m -0.83789,1.34961 -0.55859,0.89843 0.44921,0.2793 0.5586,-0.89844 z m -0.83789,1.34765 -0.55859,0.89844 0.44921,0.2793 0.5586,-0.89844 z m -0.83789,1.34961 -0.55859,0.89844 0.44921,0.2793 0.5586,-0.89844 z m -0.83789,1.34766 -0.5586,0.89844 0.44922,0.27929 0.5586,-0.89843 z m -0.83789,1.34766 -0.5586,0.90039 0.45118,0.27929 0.55859,-0.90039 z m -0.83789,1.3496 -0.55664,0.89844 0.44922,0.2793 0.55859,-0.89844 z m -0.83594,1.34766 -0.55859,0.90039 0.44921,0.2793 0.5586,-0.90039 z m -0.83789,1.34961 -0.55859,0.89844 0.44921,0.27929 0.5586,-0.89843 z m -0.83789,1.34766 -0.5586,0.89843 0.44922,0.2793 0.5586,-0.89844 z m -0.83789,1.34961 -0.5586,0.89843 0.44922,0.2793 0.5586,-0.89844 z m -0.83789,1.34765 -0.5586,0.89844 0.44922,0.2793 0.5586,-0.89844 z m -0.83789,1.34766 -0.5586,0.90039 0.44922,0.2793 0.5586,-0.90039 z m -0.83789,1.34961 -0.5586,0.89844 0.44922,0.27929 0.55859,-0.89844 z m -0.83789,1.34765 -0.5586,0.90039 0.44922,0.2793 0.55859,-0.90039 z m -0.8379,1.34961 -0.55859,0.89844 0.45117,0.2793 0.55664,-0.89844 z m -0.83789,1.34766 -0.55664,0.89844 0.44922,0.27929 0.5586,-0.89843 z m -0.83593,1.34961 -0.5586,0.89844 0.44922,0.27929 0.5586,-0.89843 z m -0.83789,1.34766 -0.5586,0.89843 0.44922,0.2793 0.55859,-0.89844 z m -0.83789,1.34765 -0.5586,0.90039 0.44922,0.2793 0.55859,-0.90039 z m -0.8379,1.34961 -0.55859,0.89844 0.44922,0.2793 0.55859,-0.89844 z m -0.83789,1.34766 -0.55859,0.90039 0.44922,0.27929 0.55859,-0.90039 z m -0.83789,1.34961 -0.55859,0.89843 0.44922,0.2793 0.55859,-0.89844 z m -0.83789,1.34765 -0.55859,0.89844 0.44922,0.2793 0.55859,-0.89844 z m -0.83789,1.34961 -0.55859,0.89844 0.44922,0.2793 0.55859,-0.89844 z m -0.83789,1.34766 -0.55859,0.89844 0.45117,0.27929 0.55664,-0.89843 z m -0.83789,1.34765 -0.55664,0.9004 0.44922,0.27929 0.55859,-0.90039 z m -0.83594,1.34961 -0.55859,0.89844 0.44922,0.2793 0.55859,-0.89844 z m -0.83789,1.34766 -0.55859,0.90039 0.44922,0.27734 0.55859,-0.89843 z m -0.83789,1.34961 -0.55859,0.89844 0.44922,0.27929 0.55859,-0.89843 z m -0.83789,1.34766 -0.55859,0.89843 0.44922,0.2793 0.55859,-0.89844 z m -0.83789,1.34765 -0.55859,0.90039 0.44922,0.2793 0.55859,-0.90039 z"
           id="path5222" />
        <g
           id="g5212">
          <g
             id="path5214">
            <path
               style="color:#000000;fill:#555555;fill-rule:evenodd;stroke-width:0.423334pt;-inkscape-stroke:none"
               d="m 127.0719,132.08011 0.68105,2.91491 2.11129,-7.40987 -5.70725,5.176 z"
               id="path5218" />
            <path
               style="color:#000000;fill:#555555;fill-rule:evenodd;-inkscape-stroke:none"
               d="m 130.40625,126.71289 -7.24609,6.57031 3.70117,-0.86328 0.86523,3.69922 z m -1.08398,1.74609 -1.54102,5.41407 -0.49805,-2.13282 -0.27539,0.0645 -1.85351,0.43359 z"
               id="path5220" />
          </g>
        </g>
      </g>
      <g
         id="path11599"
         style="opacity:0.6">
        <path
           style="color:#000000;fill:#555555;stroke-dasharray:1.05833, 0.529167;-inkscape-stroke:none"
           d="m 52.050781,102.83984 -0.134765,0.51172 c 0.333191,0.0883 0.668173,0.16882 1.003906,0.24414 l 0.002,0.002 0.03516,0.008 0.111328,-0.51758 -0.0332,-0.008 h -0.002 c -0.329102,-0.0739 -0.656994,-0.15397 -0.982422,-0.24024 z m 1.529297,0.35743 -0.101562,0.51953 0.496093,0.0976 0.546875,0.0996 h 0.0039 l 0.08789,-0.52148 h -0.002 l -0.539062,-0.0977 z m 1.554688,0.28125 -0.08594,0.52148 0.0293,0.006 0.570312,0.0859 0.453125,0.0644 0.07422,-0.52539 -0.451172,-0.0625 -0.5625,-0.0859 z m 1.5625,0.2207 -0.06641,0.52539 0.19336,0.0234 0.603515,0.0703 0.259766,0.0273 0.05469,-0.52734 -0.257812,-0.0254 -0.597656,-0.0703 z m 1.568359,0.17187 -0.04883,0.52735 0.451172,0.043 0.605468,0.0508 0.04492,-0.52735 -0.603515,-0.0508 z m 1.578125,0.13477 -0.04102,0.52734 0.144532,0.0117 0.65625,0.0449 0.259765,0.0156 0.03125,-0.5293 -0.257812,-0.0156 -0.650391,-0.043 z m 31.095703,0.0391 -0.962891,0.002 0.002,0.52929 0.960937,-0.002 h 0.0957 v -0.5293 z m -1.660156,0.002 -0.890625,0.006 0.002,0.5293 0.890625,-0.006 h 0.167969 l -0.002,-0.52929 z m 2.285156,0 v 0.52929 c 0.352415,6.6e-4 0.704711,8.7e-4 1.056641,0.004 l 0.0039,-0.5293 c -0.353596,-0.003 -0.707411,-0.003 -1.060547,-0.004 z m -3.705078,0.01 -0.242188,0.002 -0.818359,0.008 0.0059,0.52929 0.81836,-0.008 0.238281,-0.002 z m 5.294922,0 -0.0039,0.52734 0.265625,0.004 0.791015,0.008 0.0059,-0.52734 -0.791016,-0.01 z m -6.884766,0.0156 -0.310547,0.004 -0.748047,0.01 0.0078,0.52929 0.746094,-0.01 0.310547,-0.004 z m 8.47461,0.004 -0.0098,0.5293 0.326172,0.004 0.732422,0.0156 0.0098,-0.5293 -0.734375,-0.0156 z m -10.0625,0.0176 -0.38086,0.004 -0.677734,0.0117 0.0078,0.52734 0.677735,-0.01 0.380859,-0.006 z m -23.259766,0.0137 -0.0293,0.5293 0.548828,0.0293 0.509766,0.0234 0.02539,-0.52929 -0.507812,-0.0234 z m 34.910156,0 -0.01172,0.5293 0.375,0.008 0.681641,0.0195 0.01563,-0.52929 -0.683594,-0.0195 z m -13.238281,0.01 -0.443359,0.006 -0.615235,0.0117 0.0098,0.52929 0.613281,-0.0117 0.445313,-0.006 z m -1.587891,0.0273 -1.05664,0.0176 0.0078,0.5293 1.058594,-0.0176 z m 16.416016,0.008 -0.01758,0.5293 0.414062,0.0117 0.642578,0.0254 0.01953,-0.5293 -0.644532,-0.0234 z m -18.001953,0.0195 -0.548828,0.01 -0.509766,0.008 0.0098,0.5293 0.509765,-0.008 0.546875,-0.01 z m -16.916016,0.0117 -0.02148,0.52735 c 0.353075,0.0147 0.706267,0.0289 1.060547,0.0391 l 0.01563,-0.5293 c -0.350982,-0.0101 -0.702825,-0.0225 -1.054688,-0.0371 z m 15.328125,0.0156 -1.058594,0.0176 0.0098,0.52929 1.058594,-0.0176 z m 21.179688,0.0117 -0.02344,0.52929 0.439453,0.0195 0.617186,0.0293 0.0254,-0.52929 -0.619138,-0.0293 z m -22.767578,0.0156 -0.603516,0.01 -0.453125,0.008 0.0078,0.5293 0.453125,-0.008 0.605469,-0.01 z m -12.15625,0.01 -0.01563,0.5293 c 0.353824,0.0106 0.706983,0.0189 1.060546,0.0254 l 0.0098,-0.5293 c -0.351869,-0.006 -0.703275,-0.0149 -1.054687,-0.0254 z m 10.570312,0.0156 -0.609375,0.008 -0.447266,0.006 0.0059,0.52929 0.447265,-0.006 0.611329,-0.008 z m -8.986328,0.0195 -0.0098,0.5293 c 0.354102,0.007 0.707595,0.0101 1.060547,0.0137 l 0.0059,-0.52929 c -0.35256,-0.004 -0.70532,-0.007 -1.056641,-0.0137 z m 7.400391,0.002 -0.597657,0.006 -0.460937,0.004 0.0059,0.5293 0.458985,-0.004 0.599609,-0.008 z m -1.587891,0.0137 -0.564453,0.006 -0.492188,0.002 0.002,0.5293 0.494141,-0.002 0.566406,-0.006 z m 29.115235,0 -0.0293,0.5293 0.45117,0.0234 0.60547,0.0371 0.0312,-0.52929 -0.60742,-0.0352 z m -33.343751,0.004 -0.0039,0.52929 0.626953,0.004 0.433594,0.002 v -0.52929 l -0.429688,-0.002 z m 1.585938,0.006 v 0.52929 l 0.546875,0.002 0.511719,-0.002 -0.002,-0.52929 -0.509765,0.002 z m 33.345703,0.0859 -0.0352,0.52735 0.44532,0.0293 0.60937,0.0449 0.0391,-0.52735 -0.61132,-0.0449 z m 1.58789,0.11524 -0.043,0.52734 0.42188,0.0332 0.63086,0.0566 0.0469,-0.52734 -0.63476,-0.0566 z m 1.58399,0.13867 -0.0488,0.52734 0.37695,0.0352 0.67383,0.0703 0.0547,-0.52734 -0.67579,-0.0703 z m 1.58398,0.16406 -0.0586,0.52539 0.3125,0.0352 0.73632,0.0879 0.0625,-0.52539 -0.73828,-0.0879 z m 1.58008,0.19141 -0.0684,0.52539 0.22656,0.0293 0.73047,0.10156 0.0859,0.0137 0.0801,-0.52344 -0.0898,-0.0137 -0.73633,-0.10156 z m 1.57812,0.22461 -0.0801,0.52343 0.11329,0.0176 0.71679,0.11524 0.20899,0.0371 0.0898,-0.52149 -0.21289,-0.0371 -0.7207,-0.11718 z m 1.57422,0.26172 -0.0957,0.51953 0.67773,0.125 0.35938,0.0703 0.10156,-0.51758 -0.36133,-0.0723 z m 1.56445,0.30078 -0.10742,0.51953 0.49805,0.10351 0.53125,0.11914 0.11523,-0.51562 -0.5332,-0.12109 z m 1.55469,0.34765 -0.11914,0.51368 c 0.34023,0.0792 0.68008,0.16631 1.01953,0.25585 l 0.13477,-0.51171 c -0.34274,-0.0904 -0.6882,-0.17707 -1.03516,-0.25782 z m 1.54883,0.39649 -0.14062,0.50976 c 0.33748,0.0927 0.67415,0.19094 1.00976,0.29297 l 0.1543,-0.50586 c -0.33943,-0.10319 -0.68057,-0.20271 -1.02344,-0.29687 z m 1.53125,0.45508 -0.16016,0.50586 c 0.33311,0.10573 0.66377,0.21729 0.99414,0.33398 l 0.17774,-0.5 c -0.33488,-0.11828 -0.67235,-0.23212 -1.01172,-0.33984 z m 1.51172,0.52148 -0.18359,0.49805 c 0.32744,0.12064 0.65268,0.24788 0.97656,0.38086 l 0.20117,-0.49024 c -0.32878,-0.13499 -0.65955,-0.26539 -0.99414,-0.38867 z m 1.48633,0.59766 -0.20899,0.48632 c 0.32042,0.13794 0.63864,0.28197 0.95313,0.4336 l 0.22851,-0.47656 c -0.32102,-0.15478 -0.64504,-0.30234 -0.97265,-0.44336 z m 1.45312,0.67968 -0.24023,0.47266 c 0.3115,0.15834 0.61815,0.3218 0.91992,0.49414 l 0.26367,-0.45898 c -0.31091,-0.17756 -0.62594,-0.34647 -0.94336,-0.50782 z m 1.4043,0.77539 -0.27149,0.45508 c 0.2985,0.17791 0.59212,0.36592 0.88086,0.56055 l 0.29688,-0.43945 c -0.29628,-0.19971 -0.59869,-0.39287 -0.90625,-0.57618 z m 1.3457,0.88282 -0.30664,0.42968 c 0.28294,0.2026 0.55947,0.41196 0.82813,0.63086 l 0.33398,-0.41015 c -0.27832,-0.22678 -0.56478,-0.44225 -0.85547,-0.65039 z m 1.26758,0.99609 -0.3457,0.40039 c 0.26265,0.22617 0.51651,0.46087 0.76172,0.70508 l 0.37304,-0.375 c -0.25466,-0.25363 -0.51713,-0.49632 -0.78906,-0.73047 z m 1.16406,1.11524 -0.38476,0.36328 c 0.23775,0.25121 0.46678,0.51221 0.68359,0.78125 l 0.41211,-0.33203 c -0.22586,-0.28026 -0.46378,-0.55135 -0.71094,-0.8125 z m 1.04102,1.23632 -0.42188,0.31836 c 0.20812,0.27573 0.40569,0.55961 0.58985,0.85157 l 0.44726,-0.28125 c -0.1922,-0.30472 -0.39836,-0.60135 -0.61523,-0.88868 z m 0.89453,1.34766 -0.45703,0.26758 c 0.17451,0.29792 0.33756,0.60444 0.48633,0.91601 l 0.47656,-0.22851 c -0.15519,-0.32504 -0.32381,-0.6443 -0.50586,-0.95508 z m 0.73047,1.44336 -0.48633,0.21289 c 0.13842,0.31613 0.2636,0.63946 0.37695,0.9668 l 0.5,-0.17383 c -0.1175,-0.33932 -0.24605,-0.67569 -0.39062,-1.00586 z m 0.55859,1.51758 -0.50586,0.15429 c 0.10132,0.33182 0.19157,0.66695 0.26758,1.00391 l 0.51563,-0.11719 c -0.0793,-0.35129 -0.17264,-0.69809 -0.27735,-1.04101 z m 0.38867,1.5664 -0.51953,0.10352 c 0.0675,0.33877 0.12133,0.68212 0.16602,1.02734 l 0.52539,-0.0684 c -0.0459,-0.35442 -0.10151,-0.70931 -0.17188,-1.0625 z m 0.23047,1.59571 -0.52539,0.0527 c 0.0352,0.34228 0.0574,0.68821 0.0723,1.03516 l 0.52734,-0.0234 c -0.0152,-0.35423 -0.0377,-0.7085 -0.0742,-1.06445 z"
           id="path5236" />
        <g
           id="g5226">
          <g
             id="path5228">
            <path
               style="color:#000000;fill:#555555;fill-rule:evenodd;stroke-width:0.423334pt;-inkscape-stroke:none"
               d="m 131.44534,117.04299 -2.20165,-2.02812 2.41857,7.31534 1.8112,-7.48888 z"
               id="path5232" />
            <path
               style="color:#000000;fill:#555555;fill-rule:evenodd;-inkscape-stroke:none"
               d="m 134.00391,113.84961 -2.57422,2.79492 -2.79492,-2.57422 3.07031,9.28711 z m -1.06055,1.98437 -1.32227,5.47266 -1.76757,-5.3457 1.60742,1.48047 0.1914,-0.20703 z"
               id="path5234" />
          </g>
        </g>
      </g>
      <g
         id="path11601"
         style="opacity:0.6">
        <path
           style="color:#000000;fill:#555555;stroke-dasharray:1.05833, 0.529167;-inkscape-stroke:none"
           d="m 51.722656,103.05664 -0.158203,1.04688 0.523438,0.0781 0.158203,-1.04687 z m -0.236328,1.57031 -0.158203,1.04688 0.523437,0.0781 0.158204,-1.04687 z m -0.236328,1.56836 -0.158203,1.04688 0.523437,0.0801 0.158203,-1.04688 z m -0.236328,1.57032 -0.158203,1.04687 0.523437,0.0781 0.158203,-1.04493 z m -0.236328,1.57031 -0.158203,1.04687 0.523437,0.0781 0.158203,-1.04688 z m -0.236328,1.57031 -0.158204,1.04688 0.523438,0.0781 0.158203,-1.04687 z m -0.236329,1.56836 -0.158203,1.04687 0.523438,0.0801 0.158203,-1.04687 z m -0.236328,1.57031 -0.158203,1.04688 0.523438,0.0781 0.158203,-1.04492 z m -0.236328,1.57031 -0.15625,1.04688 0.521485,0.0781 0.158203,-1.04687 z m -0.236328,1.57032 -0.117187,0.78515 0.523437,0.0781 0.117188,-0.78516 z"
           id="path5250" />
        <g
           id="g5240">
          <g
             id="path5242">
            <path
               style="color:#000000;fill:#555555;fill-rule:evenodd;stroke-width:0.423334pt;-inkscape-stroke:none"
               d="m 50.526937,112.77745 -1.778104,-2.40809 0.990618,7.64084 3.195579,-7.01085 z"
               id="path5246" />
            <path
               style="color:#000000;fill:#555555;fill-rule:evenodd;-inkscape-stroke:none"
               d="m 48.328125,109.32617 1.257812,9.69922 4.056641,-8.90039 -3.056641,2.25781 z m 0.841797,2.08789 1.296875,1.75782 0.228515,-0.16797 1.53125,-1.12891 -2.333984,5.11914 z"
               id="path5248" />
          </g>
        </g>
      </g>
      <g
         id="path836">
        <path
           style="color:#000000;fill:#ce1126;stroke-width:0.396875;-inkscape-stroke:none"
           d="m 55.037152,103.3284 a 2.8554811,2.8554811 0 0 1 -2.855481,2.85548 2.8554811,2.8554811 0 0 1 -2.855481,-2.85548 2.8554811,2.8554811 0 0 1 2.855481,-2.85548 2.8554811,2.8554811 0 0 1 2.855481,2.85548 z"
           id="path5254" />
        <path
           style="color:#000000;fill:#000000;-inkscape-stroke:none"
           d="m 52.181641,100.27539 c -1.684281,0 -3.054688,1.36845 -3.054688,3.05274 0,1.68428 1.370407,3.05468 3.054688,3.05468 1.68428,0 3.054687,-1.3704 3.054687,-3.05468 0,-1.68429 -1.370407,-3.05274 -3.054687,-3.05274 z m 0,0.39649 c 1.469793,0 2.65625,1.18645 2.65625,2.65625 0,1.46979 -1.186457,2.6582 -2.65625,2.6582 -1.469794,0 -2.65625,-1.18841 -2.65625,-2.6582 0,-1.4698 1.186456,-2.65625 2.65625,-2.65625 z"
           id="path5256" />
      </g>
      <g
         id="circle848">
        <path
           style="color:#000000;fill:#005293;stroke-width:0.396875;-inkscape-stroke:none"
           d="m 52.105512,120.71774 a 2.8554811,2.8554811 0 0 1 -2.855481,2.85548 2.8554811,2.8554811 0 0 1 -2.855482,-2.85548 2.8554811,2.8554811 0 0 1 2.855482,-2.85548 2.8554811,2.8554811 0 0 1 2.855481,2.85548 z"
           id="path5260" />
        <path
           style="color:#000000;fill:#000000;-inkscape-stroke:none"
           d="m 49.25,117.66406 c -1.684281,0 -3.054688,1.36846 -3.054688,3.05274 0,1.68428 1.370407,3.05468 3.054688,3.05468 1.684281,0 3.054688,-1.3704 3.054687,-3.05468 0,-1.68428 -1.370406,-3.05274 -3.054687,-3.05274 z m 0,0.39649 c 1.469794,0 2.65625,1.18645 2.65625,2.65625 0,1.46979 -1.186456,2.6582 -2.65625,2.6582 -1.469794,0 -2.65625,-1.18841 -2.65625,-2.6582 0,-1.4698 1.186456,-2.65625 2.65625,-2.65625 z"
           id="path5262" />
      </g>
      <g
         id="circle840">
        <path
           style="color:#000000;fill:#ce1126;stroke-width:0.396875;-inkscape-stroke:none"
           d="m 105.95327,170.67239 a 2.8554811,2.8554811 0 0 1 -2.85548,2.85548 2.8554811,2.8554811 0 0 1 -2.85548,-2.85548 2.8554811,2.8554811 0 0 1 2.85548,-2.85548 2.8554811,2.8554811 0 0 1 2.85548,2.85548 z"
           id="path5266" />
        <path
           style="color:#000000;fill:#000000;-inkscape-stroke:none"
           d="m 103.09766,167.61914 c -1.68428,0 -3.05469,1.36845 -3.05469,3.05273 0,1.68429 1.37041,3.05469 3.05469,3.05469 1.68428,0 3.05468,-1.3704 3.05468,-3.05469 0,-1.68428 -1.3704,-3.05273 -3.05468,-3.05273 z m 0,0.39648 c 1.46979,0 2.65625,1.18646 2.65625,2.65625 0,1.4698 -1.18646,2.65821 -2.65625,2.65821 -1.4698,0 -2.65625,-1.18841 -2.65625,-2.65821 0,-1.46979 1.18645,-2.65625 2.65625,-2.65625 z"
           id="path5268" />
      </g>
      <g
         id="circle846">
        <path
           style="color:#000000;fill:#006647;stroke-width:0.396875;-inkscape-stroke:none"
           d="m 137.75169,146.08617 a 2.8554811,2.8554811 0 0 1 -2.85548,2.85548 2.8554811,2.8554811 0 0 1 -2.85548,-2.85548 2.8554811,2.8554811 0 0 1 2.85548,-2.85548 2.8554811,2.8554811 0 0 1 2.85548,2.85548 z"
           id="path5272" />
        <path
           style="color:#000000;fill:#000000;-inkscape-stroke:none"
           d="m 134.89648,143.0332 c -1.68428,0 -3.05468,1.36846 -3.05468,3.05274 0,1.68428 1.3704,3.05468 3.05468,3.05468 1.68428,0 3.05274,-1.3704 3.05274,-3.05468 0,-1.68428 -1.36846,-3.05274 -3.05274,-3.05274 z m 0,0.39649 c 1.4698,0 2.65625,1.18645 2.65625,2.65625 0,1.46979 -1.18645,2.6582 -2.65625,2.6582 -1.46979,0 -2.6582,-1.18841 -2.6582,-2.6582 0,-1.4698 1.18841,-2.65625 2.6582,-2.65625 z"
           id="path5274" />
      </g>
    </g>
  </g>
</svg>
